<?xml version="1.0" encoding="utf-8" standalone="no"?>
<!DOCTYPE svg PUBLIC "-//W3C//DTD SVG 1.1//EN"
  "http://www.w3.org/Graphics/SVG/1.1/DTD/svg11.dtd">
<!-- Created with matplotlib (https://matplotlib.org/) -->
<svg height="720pt" version="1.1" viewBox="0 0 720 720" width="720pt" xmlns="http://www.w3.org/2000/svg" xmlns:xlink="http://www.w3.org/1999/xlink">
 <defs>
  <style type="text/css">
*{stroke-linecap:butt;stroke-linejoin:round;}
  </style>
 </defs>
 <g id="figure_1">
  <g id="patch_1">
   <path d="M 0 720 
L 720 720 
L 720 0 
L 0 0 
z
" style="fill:none;"/>
  </g>
  <g id="axes_1">
   <g id="LineCollection_1">
    <path clip-path="url(#pc8fef98924)" d="M 614.13643 358.200002 
L 246.431792 564.829504 
" style="fill:none;stroke:#666666;"/>
    <path clip-path="url(#pc8fef98924)" d="M 614.13643 358.200002 
L 156.705623 238.902397 
" style="fill:none;stroke:#666666;"/>
    <path clip-path="url(#pc8fef98924)" d="M 614.13643 358.200002 
L 132.216391 296.447013 
" style="fill:none;stroke:#666666;"/>
    <path clip-path="url(#pc8fef98924)" d="M 614.13643 358.200002 
L 369 596.795195 
" style="fill:none;stroke:#666666;"/>
    <path clip-path="url(#pc8fef98924)" d="M 605.783604 296.447022 
L 432.44597 588.665255 
" style="fill:none;stroke:#666666;"/>
    <path clip-path="url(#pc8fef98924)" d="M 605.783604 296.447022 
L 542.337615 526.912289 
" style="fill:none;stroke:#666666;"/>
    <path clip-path="url(#pc8fef98924)" d="M 605.783604 296.447022 
L 305.554025 127.734746 
" style="fill:none;stroke:#666666;"/>
    <path clip-path="url(#pc8fef98924)" d="M 605.783604 296.447022 
L 246.431778 151.570498 
" style="fill:none;stroke:#666666;"/>
    <path clip-path="url(#pc8fef98924)" d="M 605.783604 296.447022 
L 195.662376 189.487728 
" style="fill:none;stroke:#666666;"/>
    <path clip-path="url(#pc8fef98924)" d="M 605.783604 296.447022 
L 132.216393 419.952985 
" style="fill:none;stroke:#666666;"/>
    <path clip-path="url(#pc8fef98924)" d="M 605.783604 296.447022 
L 156.705631 477.497594 
" style="fill:none;stroke:#666666;"/>
    <path clip-path="url(#pc8fef98924)" d="M 581.294372 238.902405 
L 491.568216 151.570491 
" style="fill:none;stroke:#666666;"/>
    <path clip-path="url(#pc8fef98924)" d="M 581.294372 238.902405 
L 581.294378 477.497621 
" style="fill:none;stroke:#666666;"/>
    <path clip-path="url(#pc8fef98924)" d="M 581.294372 238.902405 
L 605.78361 419.952966 
" style="fill:none;stroke:#666666;"/>
    <path clip-path="url(#pc8fef98924)" d="M 581.294372 238.902405 
L 491.568205 564.829505 
" style="fill:none;stroke:#666666;"/>
    <path clip-path="url(#pc8fef98924)" d="M 581.294372 238.902405 
L 123.86357 358.200009 
" style="fill:none;stroke:#666666;"/>
    <path clip-path="url(#pc8fef98924)" d="M 581.294372 238.902405 
L 195.662365 526.912275 
" style="fill:none;stroke:#666666;"/>
    <path clip-path="url(#pc8fef98924)" d="M 542.337627 189.487726 
L 305.554025 588.665274 
" style="fill:none;stroke:#666666;"/>
    <path clip-path="url(#pc8fef98924)" d="M 542.337627 189.487726 
L 432.445978 127.734744 
" style="fill:none;stroke:#666666;"/>
    <path clip-path="url(#pc8fef98924)" d="M 542.337627 189.487726 
L 368.999996 119.604805 
" style="fill:none;stroke:#666666;"/>
    <path clip-path="url(#pc8fef98924)" d="M 491.568216 151.570491 
L 491.568205 564.829505 
" style="fill:none;stroke:#666666;"/>
    <path clip-path="url(#pc8fef98924)" d="M 491.568216 151.570491 
L 581.294378 477.497621 
" style="fill:none;stroke:#666666;"/>
    <path clip-path="url(#pc8fef98924)" d="M 491.568216 151.570491 
L 605.78361 419.952966 
" style="fill:none;stroke:#666666;"/>
    <path clip-path="url(#pc8fef98924)" d="M 491.568216 151.570491 
L 123.86357 358.200009 
" style="fill:none;stroke:#666666;"/>
    <path clip-path="url(#pc8fef98924)" d="M 491.568216 151.570491 
L 195.662365 526.912275 
" style="fill:none;stroke:#666666;"/>
    <path clip-path="url(#pc8fef98924)" d="M 432.445978 127.734744 
L 305.554025 588.665274 
" style="fill:none;stroke:#666666;"/>
    <path clip-path="url(#pc8fef98924)" d="M 432.445978 127.734744 
L 368.999996 119.604805 
" style="fill:none;stroke:#666666;"/>
    <path clip-path="url(#pc8fef98924)" d="M 368.999996 119.604805 
L 305.554025 588.665274 
" style="fill:none;stroke:#666666;"/>
    <path clip-path="url(#pc8fef98924)" d="M 305.554025 127.734746 
L 432.44597 588.665255 
" style="fill:none;stroke:#666666;"/>
    <path clip-path="url(#pc8fef98924)" d="M 305.554025 127.734746 
L 542.337615 526.912289 
" style="fill:none;stroke:#666666;"/>
    <path clip-path="url(#pc8fef98924)" d="M 305.554025 127.734746 
L 246.431778 151.570498 
" style="fill:none;stroke:#666666;"/>
    <path clip-path="url(#pc8fef98924)" d="M 305.554025 127.734746 
L 195.662376 189.487728 
" style="fill:none;stroke:#666666;"/>
    <path clip-path="url(#pc8fef98924)" d="M 305.554025 127.734746 
L 132.216393 419.952985 
" style="fill:none;stroke:#666666;"/>
    <path clip-path="url(#pc8fef98924)" d="M 305.554025 127.734746 
L 156.705631 477.497594 
" style="fill:none;stroke:#666666;"/>
    <path clip-path="url(#pc8fef98924)" d="M 246.431778 151.570498 
L 432.44597 588.665255 
" style="fill:none;stroke:#666666;"/>
    <path clip-path="url(#pc8fef98924)" d="M 246.431778 151.570498 
L 542.337615 526.912289 
" style="fill:none;stroke:#666666;"/>
    <path clip-path="url(#pc8fef98924)" d="M 246.431778 151.570498 
L 195.662376 189.487728 
" style="fill:none;stroke:#666666;"/>
    <path clip-path="url(#pc8fef98924)" d="M 246.431778 151.570498 
L 132.216393 419.952985 
" style="fill:none;stroke:#666666;"/>
    <path clip-path="url(#pc8fef98924)" d="M 246.431778 151.570498 
L 156.705631 477.497594 
" style="fill:none;stroke:#666666;"/>
    <path clip-path="url(#pc8fef98924)" d="M 195.662376 189.487728 
L 432.44597 588.665255 
" style="fill:none;stroke:#666666;"/>
    <path clip-path="url(#pc8fef98924)" d="M 195.662376 189.487728 
L 542.337615 526.912289 
" style="fill:none;stroke:#666666;"/>
    <path clip-path="url(#pc8fef98924)" d="M 195.662376 189.487728 
L 132.216393 419.952985 
" style="fill:none;stroke:#666666;"/>
    <path clip-path="url(#pc8fef98924)" d="M 195.662376 189.487728 
L 156.705631 477.497594 
" style="fill:none;stroke:#666666;"/>
    <path clip-path="url(#pc8fef98924)" d="M 156.705623 238.902397 
L 246.431792 564.829504 
" style="fill:none;stroke:#666666;"/>
    <path clip-path="url(#pc8fef98924)" d="M 156.705623 238.902397 
L 369 596.795195 
" style="fill:none;stroke:#666666;"/>
    <path clip-path="url(#pc8fef98924)" d="M 156.705623 238.902397 
L 132.216391 296.447013 
" style="fill:none;stroke:#666666;"/>
    <path clip-path="url(#pc8fef98924)" d="M 132.216391 296.447013 
L 246.431792 564.829504 
" style="fill:none;stroke:#666666;"/>
    <path clip-path="url(#pc8fef98924)" d="M 132.216391 296.447013 
L 369 596.795195 
" style="fill:none;stroke:#666666;"/>
    <path clip-path="url(#pc8fef98924)" d="M 123.86357 358.200009 
L 491.568205 564.829505 
" style="fill:none;stroke:#666666;"/>
    <path clip-path="url(#pc8fef98924)" d="M 123.86357 358.200009 
L 581.294378 477.497621 
" style="fill:none;stroke:#666666;"/>
    <path clip-path="url(#pc8fef98924)" d="M 123.86357 358.200009 
L 605.78361 419.952966 
" style="fill:none;stroke:#666666;"/>
    <path clip-path="url(#pc8fef98924)" d="M 123.86357 358.200009 
L 195.662365 526.912275 
" style="fill:none;stroke:#666666;"/>
    <path clip-path="url(#pc8fef98924)" d="M 132.216393 419.952985 
L 432.44597 588.665255 
" style="fill:none;stroke:#666666;"/>
    <path clip-path="url(#pc8fef98924)" d="M 132.216393 419.952985 
L 542.337615 526.912289 
" style="fill:none;stroke:#666666;"/>
    <path clip-path="url(#pc8fef98924)" d="M 132.216393 419.952985 
L 156.705631 477.497594 
" style="fill:none;stroke:#666666;"/>
    <path clip-path="url(#pc8fef98924)" d="M 156.705631 477.497594 
L 432.44597 588.665255 
" style="fill:none;stroke:#666666;"/>
    <path clip-path="url(#pc8fef98924)" d="M 156.705631 477.497594 
L 542.337615 526.912289 
" style="fill:none;stroke:#666666;"/>
    <path clip-path="url(#pc8fef98924)" d="M 195.662365 526.912275 
L 581.294378 477.497621 
" style="fill:none;stroke:#666666;"/>
    <path clip-path="url(#pc8fef98924)" d="M 195.662365 526.912275 
L 605.78361 419.952966 
" style="fill:none;stroke:#666666;"/>
    <path clip-path="url(#pc8fef98924)" d="M 195.662365 526.912275 
L 491.568205 564.829505 
" style="fill:none;stroke:#666666;"/>
    <path clip-path="url(#pc8fef98924)" d="M 246.431792 564.829504 
L 369 596.795195 
" style="fill:none;stroke:#666666;"/>
    <path clip-path="url(#pc8fef98924)" d="M 432.44597 588.665255 
L 542.337615 526.912289 
" style="fill:none;stroke:#666666;"/>
    <path clip-path="url(#pc8fef98924)" d="M 491.568205 564.829505 
L 581.294378 477.497621 
" style="fill:none;stroke:#666666;"/>
    <path clip-path="url(#pc8fef98924)" d="M 491.568205 564.829505 
L 605.78361 419.952966 
" style="fill:none;stroke:#666666;"/>
    <path clip-path="url(#pc8fef98924)" d="M 581.294378 477.497621 
L 605.78361 419.952966 
" style="fill:none;stroke:#666666;"/>
   </g>
   <g id="LineCollection_2">
    <path clip-path="url(#pc8fef98924)" d="M 605.783604 296.447022 
L 581.294372 238.902405 
" style="fill:none;stroke:#666666;"/>
    <path clip-path="url(#pc8fef98924)" d="M 605.783604 296.447022 
L 542.337627 189.487726 
" style="fill:none;stroke:#666666;"/>
    <path clip-path="url(#pc8fef98924)" d="M 605.783604 296.447022 
L 491.568216 151.570491 
" style="fill:none;stroke:#666666;"/>
    <path clip-path="url(#pc8fef98924)" d="M 605.783604 296.447022 
L 246.431778 151.570498 
" style="fill:none;stroke:#666666;"/>
    <path clip-path="url(#pc8fef98924)" d="M 605.783604 296.447022 
L 156.705623 238.902397 
" style="fill:none;stroke:#666666;"/>
    <path clip-path="url(#pc8fef98924)" d="M 605.783604 296.447022 
L 132.216391 296.447013 
" style="fill:none;stroke:#666666;"/>
    <path clip-path="url(#pc8fef98924)" d="M 605.783604 296.447022 
L 123.86357 358.200009 
" style="fill:none;stroke:#666666;"/>
    <path clip-path="url(#pc8fef98924)" d="M 605.783604 296.447022 
L 246.431792 564.829504 
" style="fill:none;stroke:#666666;"/>
    <path clip-path="url(#pc8fef98924)" d="M 605.783604 296.447022 
L 305.554025 588.665274 
" style="fill:none;stroke:#666666;"/>
    <path clip-path="url(#pc8fef98924)" d="M 605.783604 296.447022 
L 432.44597 588.665255 
" style="fill:none;stroke:#666666;"/>
    <path clip-path="url(#pc8fef98924)" d="M 605.783604 296.447022 
L 542.337615 526.912289 
" style="fill:none;stroke:#666666;"/>
    <path clip-path="url(#pc8fef98924)" d="M 605.783604 296.447022 
L 581.294378 477.497621 
" style="fill:none;stroke:#666666;"/>
    <path clip-path="url(#pc8fef98924)" d="M 605.783604 296.447022 
L 605.78361 419.952966 
" style="fill:none;stroke:#666666;"/>
    <path clip-path="url(#pc8fef98924)" d="M 581.294372 238.902405 
L 542.337627 189.487726 
" style="fill:none;stroke:#666666;"/>
    <path clip-path="url(#pc8fef98924)" d="M 581.294372 238.902405 
L 491.568216 151.570491 
" style="fill:none;stroke:#666666;"/>
    <path clip-path="url(#pc8fef98924)" d="M 581.294372 238.902405 
L 246.431778 151.570498 
" style="fill:none;stroke:#666666;"/>
    <path clip-path="url(#pc8fef98924)" d="M 581.294372 238.902405 
L 156.705623 238.902397 
" style="fill:none;stroke:#666666;"/>
    <path clip-path="url(#pc8fef98924)" d="M 581.294372 238.902405 
L 132.216391 296.447013 
" style="fill:none;stroke:#666666;"/>
    <path clip-path="url(#pc8fef98924)" d="M 581.294372 238.902405 
L 123.86357 358.200009 
" style="fill:none;stroke:#666666;"/>
    <path clip-path="url(#pc8fef98924)" d="M 581.294372 238.902405 
L 246.431792 564.829504 
" style="fill:none;stroke:#666666;"/>
    <path clip-path="url(#pc8fef98924)" d="M 581.294372 238.902405 
L 305.554025 588.665274 
" style="fill:none;stroke:#666666;"/>
    <path clip-path="url(#pc8fef98924)" d="M 581.294372 238.902405 
L 432.44597 588.665255 
" style="fill:none;stroke:#666666;"/>
    <path clip-path="url(#pc8fef98924)" d="M 581.294372 238.902405 
L 542.337615 526.912289 
" style="fill:none;stroke:#666666;"/>
    <path clip-path="url(#pc8fef98924)" d="M 581.294372 238.902405 
L 581.294378 477.497621 
" style="fill:none;stroke:#666666;"/>
    <path clip-path="url(#pc8fef98924)" d="M 581.294372 238.902405 
L 605.78361 419.952966 
" style="fill:none;stroke:#666666;"/>
    <path clip-path="url(#pc8fef98924)" d="M 542.337627 189.487726 
L 491.568216 151.570491 
" style="fill:none;stroke:#666666;"/>
    <path clip-path="url(#pc8fef98924)" d="M 542.337627 189.487726 
L 246.431778 151.570498 
" style="fill:none;stroke:#666666;"/>
    <path clip-path="url(#pc8fef98924)" d="M 542.337627 189.487726 
L 156.705623 238.902397 
" style="fill:none;stroke:#666666;"/>
    <path clip-path="url(#pc8fef98924)" d="M 542.337627 189.487726 
L 132.216391 296.447013 
" style="fill:none;stroke:#666666;"/>
    <path clip-path="url(#pc8fef98924)" d="M 542.337627 189.487726 
L 123.86357 358.200009 
" style="fill:none;stroke:#666666;"/>
    <path clip-path="url(#pc8fef98924)" d="M 542.337627 189.487726 
L 246.431792 564.829504 
" style="fill:none;stroke:#666666;"/>
    <path clip-path="url(#pc8fef98924)" d="M 542.337627 189.487726 
L 305.554025 588.665274 
" style="fill:none;stroke:#666666;"/>
    <path clip-path="url(#pc8fef98924)" d="M 542.337627 189.487726 
L 432.44597 588.665255 
" style="fill:none;stroke:#666666;"/>
    <path clip-path="url(#pc8fef98924)" d="M 542.337627 189.487726 
L 542.337615 526.912289 
" style="fill:none;stroke:#666666;"/>
    <path clip-path="url(#pc8fef98924)" d="M 542.337627 189.487726 
L 581.294378 477.497621 
" style="fill:none;stroke:#666666;"/>
    <path clip-path="url(#pc8fef98924)" d="M 542.337627 189.487726 
L 605.78361 419.952966 
" style="fill:none;stroke:#666666;"/>
    <path clip-path="url(#pc8fef98924)" d="M 491.568216 151.570491 
L 246.431778 151.570498 
" style="fill:none;stroke:#666666;"/>
    <path clip-path="url(#pc8fef98924)" d="M 491.568216 151.570491 
L 156.705623 238.902397 
" style="fill:none;stroke:#666666;"/>
    <path clip-path="url(#pc8fef98924)" d="M 491.568216 151.570491 
L 132.216391 296.447013 
" style="fill:none;stroke:#666666;"/>
    <path clip-path="url(#pc8fef98924)" d="M 491.568216 151.570491 
L 123.86357 358.200009 
" style="fill:none;stroke:#666666;"/>
    <path clip-path="url(#pc8fef98924)" d="M 491.568216 151.570491 
L 246.431792 564.829504 
" style="fill:none;stroke:#666666;"/>
    <path clip-path="url(#pc8fef98924)" d="M 491.568216 151.570491 
L 305.554025 588.665274 
" style="fill:none;stroke:#666666;"/>
    <path clip-path="url(#pc8fef98924)" d="M 491.568216 151.570491 
L 432.44597 588.665255 
" style="fill:none;stroke:#666666;"/>
    <path clip-path="url(#pc8fef98924)" d="M 491.568216 151.570491 
L 542.337615 526.912289 
" style="fill:none;stroke:#666666;"/>
    <path clip-path="url(#pc8fef98924)" d="M 491.568216 151.570491 
L 581.294378 477.497621 
" style="fill:none;stroke:#666666;"/>
    <path clip-path="url(#pc8fef98924)" d="M 491.568216 151.570491 
L 605.78361 419.952966 
" style="fill:none;stroke:#666666;"/>
    <path clip-path="url(#pc8fef98924)" d="M 432.445978 127.734744 
L 195.662376 189.487728 
" style="fill:none;stroke:#666666;"/>
    <path clip-path="url(#pc8fef98924)" d="M 432.445978 127.734744 
L 305.554025 127.734746 
" style="fill:none;stroke:#666666;"/>
    <path clip-path="url(#pc8fef98924)" d="M 432.445978 127.734744 
L 491.568205 564.829505 
" style="fill:none;stroke:#666666;"/>
    <path clip-path="url(#pc8fef98924)" d="M 432.445978 127.734744 
L 195.662365 526.912275 
" style="fill:none;stroke:#666666;"/>
    <path clip-path="url(#pc8fef98924)" d="M 368.999996 119.604805 
L 369 596.795195 
" style="fill:none;stroke:#666666;"/>
    <path clip-path="url(#pc8fef98924)" d="M 368.999996 119.604805 
L 132.216393 419.952985 
" style="fill:none;stroke:#666666;"/>
    <path clip-path="url(#pc8fef98924)" d="M 368.999996 119.604805 
L 156.705631 477.497594 
" style="fill:none;stroke:#666666;"/>
    <path clip-path="url(#pc8fef98924)" d="M 305.554025 127.734746 
L 195.662376 189.487728 
" style="fill:none;stroke:#666666;"/>
    <path clip-path="url(#pc8fef98924)" d="M 305.554025 127.734746 
L 491.568205 564.829505 
" style="fill:none;stroke:#666666;"/>
    <path clip-path="url(#pc8fef98924)" d="M 305.554025 127.734746 
L 195.662365 526.912275 
" style="fill:none;stroke:#666666;"/>
    <path clip-path="url(#pc8fef98924)" d="M 246.431778 151.570498 
L 156.705623 238.902397 
" style="fill:none;stroke:#666666;"/>
    <path clip-path="url(#pc8fef98924)" d="M 246.431778 151.570498 
L 132.216391 296.447013 
" style="fill:none;stroke:#666666;"/>
    <path clip-path="url(#pc8fef98924)" d="M 246.431778 151.570498 
L 123.86357 358.200009 
" style="fill:none;stroke:#666666;"/>
    <path clip-path="url(#pc8fef98924)" d="M 246.431778 151.570498 
L 246.431792 564.829504 
" style="fill:none;stroke:#666666;"/>
    <path clip-path="url(#pc8fef98924)" d="M 246.431778 151.570498 
L 305.554025 588.665274 
" style="fill:none;stroke:#666666;"/>
    <path clip-path="url(#pc8fef98924)" d="M 246.431778 151.570498 
L 432.44597 588.665255 
" style="fill:none;stroke:#666666;"/>
    <path clip-path="url(#pc8fef98924)" d="M 246.431778 151.570498 
L 542.337615 526.912289 
" style="fill:none;stroke:#666666;"/>
    <path clip-path="url(#pc8fef98924)" d="M 246.431778 151.570498 
L 581.294378 477.497621 
" style="fill:none;stroke:#666666;"/>
    <path clip-path="url(#pc8fef98924)" d="M 246.431778 151.570498 
L 605.78361 419.952966 
" style="fill:none;stroke:#666666;"/>
    <path clip-path="url(#pc8fef98924)" d="M 195.662376 189.487728 
L 491.568205 564.829505 
" style="fill:none;stroke:#666666;"/>
    <path clip-path="url(#pc8fef98924)" d="M 195.662376 189.487728 
L 195.662365 526.912275 
" style="fill:none;stroke:#666666;"/>
    <path clip-path="url(#pc8fef98924)" d="M 156.705623 238.902397 
L 132.216391 296.447013 
" style="fill:none;stroke:#666666;"/>
    <path clip-path="url(#pc8fef98924)" d="M 156.705623 238.902397 
L 123.86357 358.200009 
" style="fill:none;stroke:#666666;"/>
    <path clip-path="url(#pc8fef98924)" d="M 156.705623 238.902397 
L 246.431792 564.829504 
" style="fill:none;stroke:#666666;"/>
    <path clip-path="url(#pc8fef98924)" d="M 156.705623 238.902397 
L 305.554025 588.665274 
" style="fill:none;stroke:#666666;"/>
    <path clip-path="url(#pc8fef98924)" d="M 156.705623 238.902397 
L 432.44597 588.665255 
" style="fill:none;stroke:#666666;"/>
    <path clip-path="url(#pc8fef98924)" d="M 156.705623 238.902397 
L 542.337615 526.912289 
" style="fill:none;stroke:#666666;"/>
    <path clip-path="url(#pc8fef98924)" d="M 156.705623 238.902397 
L 581.294378 477.497621 
" style="fill:none;stroke:#666666;"/>
    <path clip-path="url(#pc8fef98924)" d="M 156.705623 238.902397 
L 605.78361 419.952966 
" style="fill:none;stroke:#666666;"/>
    <path clip-path="url(#pc8fef98924)" d="M 132.216391 296.447013 
L 123.86357 358.200009 
" style="fill:none;stroke:#666666;"/>
    <path clip-path="url(#pc8fef98924)" d="M 132.216391 296.447013 
L 246.431792 564.829504 
" style="fill:none;stroke:#666666;"/>
    <path clip-path="url(#pc8fef98924)" d="M 132.216391 296.447013 
L 305.554025 588.665274 
" style="fill:none;stroke:#666666;"/>
    <path clip-path="url(#pc8fef98924)" d="M 132.216391 296.447013 
L 432.44597 588.665255 
" style="fill:none;stroke:#666666;"/>
    <path clip-path="url(#pc8fef98924)" d="M 132.216391 296.447013 
L 542.337615 526.912289 
" style="fill:none;stroke:#666666;"/>
    <path clip-path="url(#pc8fef98924)" d="M 132.216391 296.447013 
L 581.294378 477.497621 
" style="fill:none;stroke:#666666;"/>
    <path clip-path="url(#pc8fef98924)" d="M 132.216391 296.447013 
L 605.78361 419.952966 
" style="fill:none;stroke:#666666;"/>
    <path clip-path="url(#pc8fef98924)" d="M 123.86357 358.200009 
L 246.431792 564.829504 
" style="fill:none;stroke:#666666;"/>
    <path clip-path="url(#pc8fef98924)" d="M 123.86357 358.200009 
L 305.554025 588.665274 
" style="fill:none;stroke:#666666;"/>
    <path clip-path="url(#pc8fef98924)" d="M 123.86357 358.200009 
L 432.44597 588.665255 
" style="fill:none;stroke:#666666;"/>
    <path clip-path="url(#pc8fef98924)" d="M 123.86357 358.200009 
L 542.337615 526.912289 
" style="fill:none;stroke:#666666;"/>
    <path clip-path="url(#pc8fef98924)" d="M 123.86357 358.200009 
L 581.294378 477.497621 
" style="fill:none;stroke:#666666;"/>
    <path clip-path="url(#pc8fef98924)" d="M 123.86357 358.200009 
L 605.78361 419.952966 
" style="fill:none;stroke:#666666;"/>
    <path clip-path="url(#pc8fef98924)" d="M 132.216393 419.952985 
L 369 596.795195 
" style="fill:none;stroke:#666666;"/>
    <path clip-path="url(#pc8fef98924)" d="M 132.216393 419.952985 
L 156.705631 477.497594 
" style="fill:none;stroke:#666666;"/>
    <path clip-path="url(#pc8fef98924)" d="M 156.705631 477.497594 
L 369 596.795195 
" style="fill:none;stroke:#666666;"/>
    <path clip-path="url(#pc8fef98924)" d="M 195.662365 526.912275 
L 491.568205 564.829505 
" style="fill:none;stroke:#666666;"/>
    <path clip-path="url(#pc8fef98924)" d="M 246.431792 564.829504 
L 305.554025 588.665274 
" style="fill:none;stroke:#666666;"/>
    <path clip-path="url(#pc8fef98924)" d="M 246.431792 564.829504 
L 432.44597 588.665255 
" style="fill:none;stroke:#666666;"/>
    <path clip-path="url(#pc8fef98924)" d="M 246.431792 564.829504 
L 542.337615 526.912289 
" style="fill:none;stroke:#666666;"/>
    <path clip-path="url(#pc8fef98924)" d="M 246.431792 564.829504 
L 581.294378 477.497621 
" style="fill:none;stroke:#666666;"/>
    <path clip-path="url(#pc8fef98924)" d="M 246.431792 564.829504 
L 605.78361 419.952966 
" style="fill:none;stroke:#666666;"/>
    <path clip-path="url(#pc8fef98924)" d="M 305.554025 588.665274 
L 432.44597 588.665255 
" style="fill:none;stroke:#666666;"/>
    <path clip-path="url(#pc8fef98924)" d="M 305.554025 588.665274 
L 542.337615 526.912289 
" style="fill:none;stroke:#666666;"/>
    <path clip-path="url(#pc8fef98924)" d="M 305.554025 588.665274 
L 581.294378 477.497621 
" style="fill:none;stroke:#666666;"/>
    <path clip-path="url(#pc8fef98924)" d="M 305.554025 588.665274 
L 605.78361 419.952966 
" style="fill:none;stroke:#666666;"/>
    <path clip-path="url(#pc8fef98924)" d="M 432.44597 588.665255 
L 542.337615 526.912289 
" style="fill:none;stroke:#666666;"/>
    <path clip-path="url(#pc8fef98924)" d="M 432.44597 588.665255 
L 581.294378 477.497621 
" style="fill:none;stroke:#666666;"/>
    <path clip-path="url(#pc8fef98924)" d="M 432.44597 588.665255 
L 605.78361 419.952966 
" style="fill:none;stroke:#666666;"/>
    <path clip-path="url(#pc8fef98924)" d="M 542.337615 526.912289 
L 581.294378 477.497621 
" style="fill:none;stroke:#666666;"/>
    <path clip-path="url(#pc8fef98924)" d="M 542.337615 526.912289 
L 605.78361 419.952966 
" style="fill:none;stroke:#666666;"/>
    <path clip-path="url(#pc8fef98924)" d="M 581.294378 477.497621 
L 605.78361 419.952966 
" style="fill:none;stroke:#666666;"/>
   </g>
   <g id="PathCollection_1">
    <defs>
     <path d="M 0 8.660254 
C 2.296726 8.660254 4.499694 7.747755 6.123724 6.123724 
C 7.747755 4.499694 8.660254 2.296726 8.660254 0 
C 8.660254 -2.296726 7.747755 -4.499694 6.123724 -6.123724 
C 4.499694 -7.747755 2.296726 -8.660254 0 -8.660254 
C -2.296726 -8.660254 -4.499694 -7.747755 -6.123724 -6.123724 
C -7.747755 -4.499694 -8.660254 -2.296726 -8.660254 0 
C -8.660254 2.296726 -7.747755 4.499694 -6.123724 6.123724 
C -4.499694 7.747755 -2.296726 8.660254 0 8.660254 
z
" id="C0_0_e6eb4185d9"/>
    </defs>
    <g clip-path="url(#pc8fef98924)">
     <use style="fill:#a6b784;stroke:#a6b784;" x="614.13643" xlink:href="#C0_0_e6eb4185d9" y="358.200002"/>
    </g>
    <g clip-path="url(#pc8fef98924)">
     <use style="fill:#ebcb74;stroke:#ebcb74;" x="605.783604" xlink:href="#C0_0_e6eb4185d9" y="296.447022"/>
    </g>
    <g clip-path="url(#pc8fef98924)">
     <use style="fill:#eb9074;stroke:#eb9074;" x="581.294372" xlink:href="#C0_0_e6eb4185d9" y="238.902405"/>
    </g>
    <g clip-path="url(#pc8fef98924)">
     <use style="fill:#74d0eb;stroke:#74d0eb;" x="542.337627" xlink:href="#C0_0_e6eb4185d9" y="189.487726"/>
    </g>
    <g clip-path="url(#pc8fef98924)">
     <use style="fill:#eb9074;stroke:#eb9074;" x="491.568216" xlink:href="#C0_0_e6eb4185d9" y="151.570491"/>
    </g>
    <g clip-path="url(#pc8fef98924)">
     <use style="fill:#74d0eb;stroke:#74d0eb;" x="432.445978" xlink:href="#C0_0_e6eb4185d9" y="127.734744"/>
    </g>
    <g clip-path="url(#pc8fef98924)">
     <use style="fill:#74d0eb;stroke:#74d0eb;" x="368.999996" xlink:href="#C0_0_e6eb4185d9" y="119.604805"/>
    </g>
    <g clip-path="url(#pc8fef98924)">
     <use style="fill:#ebcb74;stroke:#ebcb74;" x="305.554025" xlink:href="#C0_0_e6eb4185d9" y="127.734746"/>
    </g>
    <g clip-path="url(#pc8fef98924)">
     <use style="fill:#ebcb74;stroke:#ebcb74;" x="246.431778" xlink:href="#C0_0_e6eb4185d9" y="151.570498"/>
    </g>
    <g clip-path="url(#pc8fef98924)">
     <use style="fill:#ebcb74;stroke:#ebcb74;" x="195.662376" xlink:href="#C0_0_e6eb4185d9" y="189.487728"/>
    </g>
    <g clip-path="url(#pc8fef98924)">
     <use style="fill:#a6b784;stroke:#a6b784;" x="156.705623" xlink:href="#C0_0_e6eb4185d9" y="238.902397"/>
    </g>
    <g clip-path="url(#pc8fef98924)">
     <use style="fill:#a6b784;stroke:#a6b784;" x="132.216391" xlink:href="#C0_0_e6eb4185d9" y="296.447013"/>
    </g>
    <g clip-path="url(#pc8fef98924)">
     <use style="fill:#eb9074;stroke:#eb9074;" x="123.86357" xlink:href="#C0_0_e6eb4185d9" y="358.200009"/>
    </g>
    <g clip-path="url(#pc8fef98924)">
     <use style="fill:#ebcb74;stroke:#ebcb74;" x="132.216393" xlink:href="#C0_0_e6eb4185d9" y="419.952985"/>
    </g>
    <g clip-path="url(#pc8fef98924)">
     <use style="fill:#ebcb74;stroke:#ebcb74;" x="156.705631" xlink:href="#C0_0_e6eb4185d9" y="477.497594"/>
    </g>
    <g clip-path="url(#pc8fef98924)">
     <use style="fill:#eb9074;stroke:#eb9074;" x="195.662365" xlink:href="#C0_0_e6eb4185d9" y="526.912275"/>
    </g>
    <g clip-path="url(#pc8fef98924)">
     <use style="fill:#a6b784;stroke:#a6b784;" x="246.431792" xlink:href="#C0_0_e6eb4185d9" y="564.829504"/>
    </g>
    <g clip-path="url(#pc8fef98924)">
     <use style="fill:#74d0eb;stroke:#74d0eb;" x="305.554025" xlink:href="#C0_0_e6eb4185d9" y="588.665274"/>
    </g>
    <g clip-path="url(#pc8fef98924)">
     <use style="fill:#a6b784;stroke:#a6b784;" x="369" xlink:href="#C0_0_e6eb4185d9" y="596.795195"/>
    </g>
    <g clip-path="url(#pc8fef98924)">
     <use style="fill:#ebcb74;stroke:#ebcb74;" x="432.44597" xlink:href="#C0_0_e6eb4185d9" y="588.665255"/>
    </g>
    <g clip-path="url(#pc8fef98924)">
     <use style="fill:#eb9074;stroke:#eb9074;" x="491.568205" xlink:href="#C0_0_e6eb4185d9" y="564.829505"/>
    </g>
    <g clip-path="url(#pc8fef98924)">
     <use style="fill:#ebcb74;stroke:#ebcb74;" x="542.337615" xlink:href="#C0_0_e6eb4185d9" y="526.912289"/>
    </g>
    <g clip-path="url(#pc8fef98924)">
     <use style="fill:#eb9074;stroke:#eb9074;" x="581.294378" xlink:href="#C0_0_e6eb4185d9" y="477.497621"/>
    </g>
    <g clip-path="url(#pc8fef98924)">
     <use style="fill:#eb9074;stroke:#eb9074;" x="605.78361" xlink:href="#C0_0_e6eb4185d9" y="419.952966"/>
    </g>
   </g>
   <g id="PathCollection_2">
    <defs>
     <path d="M 0 8.660254 
C 2.296726 8.660254 4.499694 7.747755 6.123724 6.123724 
C 7.747755 4.499694 8.660254 2.296726 8.660254 0 
C 8.660254 -2.296726 7.747755 -4.499694 6.123724 -6.123724 
C 4.499694 -7.747755 2.296726 -8.660254 0 -8.660254 
C -2.296726 -8.660254 -4.499694 -7.747755 -6.123724 -6.123724 
C -7.747755 -4.499694 -8.660254 -2.296726 -8.660254 0 
C -8.660254 2.296726 -7.747755 4.499694 -6.123724 6.123724 
C -4.499694 7.747755 -2.296726 8.660254 0 8.660254 
z
" id="C1_0_b1cd32ec70"/>
    </defs>
    <g clip-path="url(#pc8fef98924)">
     <use style="fill:#a6b784;stroke:#a6b784;" x="614.13643" xlink:href="#C1_0_b1cd32ec70" y="358.200002"/>
    </g>
    <g clip-path="url(#pc8fef98924)">
     <use style="fill:#ebcb74;stroke:#ebcb74;" x="605.783604" xlink:href="#C1_0_b1cd32ec70" y="296.447022"/>
    </g>
    <g clip-path="url(#pc8fef98924)">
     <use style="fill:#ebcb74;stroke:#ebcb74;" x="581.294372" xlink:href="#C1_0_b1cd32ec70" y="238.902405"/>
    </g>
    <g clip-path="url(#pc8fef98924)">
     <use style="fill:#ebcb74;stroke:#ebcb74;" x="542.337627" xlink:href="#C1_0_b1cd32ec70" y="189.487726"/>
    </g>
    <g clip-path="url(#pc8fef98924)">
     <use style="fill:#ebcb74;stroke:#ebcb74;" x="491.568216" xlink:href="#C1_0_b1cd32ec70" y="151.570491"/>
    </g>
    <g clip-path="url(#pc8fef98924)">
     <use style="fill:#eb9074;stroke:#eb9074;" x="432.445978" xlink:href="#C1_0_b1cd32ec70" y="127.734744"/>
    </g>
    <g clip-path="url(#pc8fef98924)">
     <use style="fill:#74d0eb;stroke:#74d0eb;" x="368.999996" xlink:href="#C1_0_b1cd32ec70" y="119.604805"/>
    </g>
    <g clip-path="url(#pc8fef98924)">
     <use style="fill:#eb9074;stroke:#eb9074;" x="305.554025" xlink:href="#C1_0_b1cd32ec70" y="127.734746"/>
    </g>
    <g clip-path="url(#pc8fef98924)">
     <use style="fill:#ebcb74;stroke:#ebcb74;" x="246.431778" xlink:href="#C1_0_b1cd32ec70" y="151.570498"/>
    </g>
    <g clip-path="url(#pc8fef98924)">
     <use style="fill:#eb9074;stroke:#eb9074;" x="195.662376" xlink:href="#C1_0_b1cd32ec70" y="189.487728"/>
    </g>
    <g clip-path="url(#pc8fef98924)">
     <use style="fill:#ebcb74;stroke:#ebcb74;" x="156.705623" xlink:href="#C1_0_b1cd32ec70" y="238.902397"/>
    </g>
    <g clip-path="url(#pc8fef98924)">
     <use style="fill:#ebcb74;stroke:#ebcb74;" x="132.216391" xlink:href="#C1_0_b1cd32ec70" y="296.447013"/>
    </g>
    <g clip-path="url(#pc8fef98924)">
     <use style="fill:#ebcb74;stroke:#ebcb74;" x="123.86357" xlink:href="#C1_0_b1cd32ec70" y="358.200009"/>
    </g>
    <g clip-path="url(#pc8fef98924)">
     <use style="fill:#74d0eb;stroke:#74d0eb;" x="132.216393" xlink:href="#C1_0_b1cd32ec70" y="419.952985"/>
    </g>
    <g clip-path="url(#pc8fef98924)">
     <use style="fill:#74d0eb;stroke:#74d0eb;" x="156.705631" xlink:href="#C1_0_b1cd32ec70" y="477.497594"/>
    </g>
    <g clip-path="url(#pc8fef98924)">
     <use style="fill:#eb9074;stroke:#eb9074;" x="195.662365" xlink:href="#C1_0_b1cd32ec70" y="526.912275"/>
    </g>
    <g clip-path="url(#pc8fef98924)">
     <use style="fill:#ebcb74;stroke:#ebcb74;" x="246.431792" xlink:href="#C1_0_b1cd32ec70" y="564.829504"/>
    </g>
    <g clip-path="url(#pc8fef98924)">
     <use style="fill:#ebcb74;stroke:#ebcb74;" x="305.554025" xlink:href="#C1_0_b1cd32ec70" y="588.665274"/>
    </g>
    <g clip-path="url(#pc8fef98924)">
     <use style="fill:#74d0eb;stroke:#74d0eb;" x="369" xlink:href="#C1_0_b1cd32ec70" y="596.795195"/>
    </g>
    <g clip-path="url(#pc8fef98924)">
     <use style="fill:#ebcb74;stroke:#ebcb74;" x="432.44597" xlink:href="#C1_0_b1cd32ec70" y="588.665255"/>
    </g>
    <g clip-path="url(#pc8fef98924)">
     <use style="fill:#eb9074;stroke:#eb9074;" x="491.568205" xlink:href="#C1_0_b1cd32ec70" y="564.829505"/>
    </g>
    <g clip-path="url(#pc8fef98924)">
     <use style="fill:#ebcb74;stroke:#ebcb74;" x="542.337615" xlink:href="#C1_0_b1cd32ec70" y="526.912289"/>
    </g>
    <g clip-path="url(#pc8fef98924)">
     <use style="fill:#ebcb74;stroke:#ebcb74;" x="581.294378" xlink:href="#C1_0_b1cd32ec70" y="477.497621"/>
    </g>
    <g clip-path="url(#pc8fef98924)">
     <use style="fill:#ebcb74;stroke:#ebcb74;" x="605.78361" xlink:href="#C1_0_b1cd32ec70" y="419.952966"/>
    </g>
   </g>
   <g id="text_1">
    <!-- Choose the movie genre you identify with the most -->
    <defs>
     <path d="M 24.796875 49.09375 
Q 25.203125 48.59375 25.25 47.84375 
Q 25.296875 47.09375 25 46.59375 
Q 24.5 45.5 23.296875 45.796875 
Q 21.203125 46.296875 18.890625 46.1875 
Q 16.59375 46.09375 14.296875 44.40625 
Q 12 42.703125 10.703125 39.453125 
Q 9.40625 36.203125 9.40625 32.703125 
Q 9.40625 29.296875 11.046875 26.84375 
Q 12.703125 24.40625 15.296875 23.296875 
Q 16.90625 22.59375 18.90625 22.5 
Q 20.90625 22.40625 22.953125 22.65625 
Q 25 22.90625 27 23.453125 
Q 29 24 30.796875 24.703125 
Q 31.40625 24.90625 31.953125 24.59375 
Q 32.5 24.296875 32.703125 23.796875 
Q 33.203125 22.5 32.203125 21.203125 
Q 31 19.90625 29 18.90625 
Q 27 17.90625 24.59375 17.296875 
Q 22.203125 16.703125 19.703125 16.640625 
Q 17.203125 16.59375 15 17.203125 
Q 11.90625 18 9.75 19.546875 
Q 7.59375 21.09375 6.1875 23.140625 
Q 4.796875 25.203125 4.09375 27.546875 
Q 3.40625 29.90625 3.296875 32.40625 
Q 3.09375 38.40625 5.640625 43.203125 
Q 8.203125 48 12.796875 50.296875 
Q 16.203125 52 19.640625 51.640625 
Q 23.09375 51.296875 24.796875 49.09375 
z
" id="NanumPen-Regular-67"/>
     <path d="M 11.09375 56.796875 
Q 11.09375 54.40625 11.046875 51.40625 
Q 11 48.40625 11.046875 45.203125 
Q 11.09375 42 11.140625 38.59375 
Q 11.203125 35.203125 11.296875 32.09375 
Q 12.296875 34.09375 13.6875 36.046875 
Q 15.09375 38 16.84375 39.5 
Q 18.59375 41 20.546875 41.890625 
Q 22.5 42.796875 24.796875 42.796875 
Q 27.296875 42.796875 29.25 41.1875 
Q 31.203125 39.59375 32.640625 36.9375 
Q 34.09375 34.296875 35.09375 31.046875 
Q 36.09375 27.796875 36.75 24.4375 
Q 37.40625 21.09375 37.703125 18.046875 
Q 38 15 38.203125 12.796875 
Q 38.203125 11.203125 37.390625 10.203125 
Q 36.59375 9.203125 35.5 9.203125 
Q 34.703125 9.203125 33.546875 10.25 
Q 32.40625 11.296875 31.90625 12.796875 
Q 31.59375 14 31.296875 16.296875 
Q 31 18.59375 30.59375 21.25 
Q 30.203125 23.90625 29.59375 26.59375 
Q 29 29.296875 28.140625 31.4375 
Q 27.296875 33.59375 26.09375 34.796875 
Q 24.90625 36 23.296875 35.703125 
Q 20.796875 35.203125 18.9375 32.203125 
Q 17.09375 29.203125 15.75 25.390625 
Q 14.40625 21.59375 13.546875 17.6875 
Q 12.703125 13.796875 12.296875 11.40625 
Q 11.90625 9.59375 11.25 8.9375 
Q 10.59375 8.296875 9.796875 8.296875 
Q 9 8.296875 8.34375 9.09375 
Q 7.703125 9.90625 7.140625 11.046875 
Q 6.59375 12.203125 6.1875 13.453125 
Q 5.796875 14.703125 5.703125 15.59375 
Q 5.203125 21 4.890625 25.953125 
Q 4.59375 30.90625 4.4375 35.90625 
Q 4.296875 40.90625 4.296875 46.15625 
Q 4.296875 51.40625 4.5 57.40625 
Q 4.5 62.40625 8.09375 61.90625 
Q 9.296875 61.703125 10.1875 60.140625 
Q 11.09375 58.59375 11.09375 56.796875 
z
" id="NanumPen-Regular-104"/>
     <path d="M 27.09375 47.40625 
Q 30.09375 46.296875 32.140625 44.09375 
Q 34.203125 41.90625 35.296875 39.15625 
Q 36.40625 36.40625 36.546875 33.5 
Q 36.703125 30.59375 35.90625 28.09375 
Q 34.796875 25.296875 33.09375 22.59375 
Q 31.40625 19.90625 29.203125 17.796875 
Q 27 15.703125 24.203125 14.390625 
Q 21.40625 13.09375 18 13.09375 
Q 13.90625 13.09375 11.09375 15 
Q 8.296875 16.90625 6.6875 19.90625 
Q 5.09375 22.90625 4.640625 26.703125 
Q 4.203125 30.5 4.796875 34.296875 
Q 5.203125 37.09375 6.140625 39.75 
Q 7.09375 42.40625 8.59375 44.453125 
Q 10.09375 46.5 12.046875 47.796875 
Q 14 49.09375 16.5 49.09375 
Q 17.90625 49.09375 20 48.546875 
Q 22.09375 48 23.90625 47 
Q 25.203125 48.203125 27.09375 47.40625 
z
M 23.296875 40.09375 
Q 22.203125 40.796875 20.75 41.9375 
Q 19.296875 43.09375 18.203125 43.09375 
Q 17 43.09375 15.84375 42 
Q 14.703125 40.90625 13.84375 39.453125 
Q 13 38 12.390625 36.5 
Q 11.796875 35 11.59375 34.09375 
Q 11.296875 32.59375 11.1875 30.5 
Q 11.09375 28.40625 11.5 26.34375 
Q 11.90625 24.296875 13.046875 22.640625 
Q 14.203125 21 16.5 20.296875 
Q 17.90625 19.90625 19.796875 20.34375 
Q 21.703125 20.796875 23.546875 22 
Q 25.40625 23.203125 27.046875 25.203125 
Q 28.703125 27.203125 29.59375 29.796875 
Q 30.59375 32.703125 29.640625 35.84375 
Q 28.703125 39 25.796875 40.40625 
Q 25.09375 39.90625 24.390625 39.90625 
Q 23.703125 39.90625 23.296875 40.09375 
z
" id="NanumPen-Regular-111"/>
     <path d="M 22.796875 42.40625 
Q 22.59375 43.5 22.390625 44.5 
Q 22.203125 45.5 21.40625 45.796875 
Q 19.703125 46.296875 17.796875 45.890625 
Q 15.90625 45.5 14.296875 44.640625 
Q 12.703125 43.796875 11.59375 42.75 
Q 10.5 41.703125 10.40625 40.90625 
Q 10.09375 39.40625 11.1875 38 
Q 12.296875 36.59375 14.40625 35.203125 
Q 17.90625 33.09375 21.703125 30.890625 
Q 25.5 28.703125 28.09375 26.40625 
Q 30.703125 24.09375 31.640625 21.34375 
Q 32.59375 18.59375 31.203125 15.09375 
Q 30.09375 12.40625 27.09375 10.703125 
Q 24.09375 9 20.5 8.046875 
Q 16.90625 7.09375 13.296875 6.75 
Q 9.703125 6.40625 7.203125 6.40625 
Q 6.59375 6.40625 5.75 6.84375 
Q 4.90625 7.296875 4.15625 7.890625 
Q 3.40625 8.5 2.84375 9.140625 
Q 2.296875 9.796875 2.296875 10.296875 
Q 2.296875 12.09375 3.890625 12.796875 
Q 5.5 13.5 7.203125 13.5 
Q 9.59375 13.5 12.34375 13.75 
Q 15.09375 14 17.59375 14.546875 
Q 20.09375 15.09375 22.09375 16 
Q 24.09375 16.90625 24.90625 18.296875 
Q 25.59375 19.5 24.046875 21.140625 
Q 22.5 22.796875 19.953125 24.59375 
Q 17.40625 26.40625 14.453125 28.09375 
Q 11.5 29.796875 9.40625 31.203125 
Q 7.296875 32.59375 5.796875 34.546875 
Q 4.296875 36.5 3.90625 39.40625 
Q 3.796875 42 5 44.390625 
Q 6.203125 46.796875 8.140625 48.640625 
Q 10.09375 50.5 12.59375 51.59375 
Q 15.09375 52.703125 17.59375 52.703125 
Q 21.90625 52.5 24.703125 50.34375 
Q 27.5 48.203125 28 44 
Q 28 42.59375 27.546875 41.6875 
Q 27.09375 40.796875 26 40.59375 
Q 24.59375 40.40625 23.75 40.953125 
Q 22.90625 41.5 22.796875 42.40625 
z
" id="NanumPen-Regular-115"/>
     <path d="M 28.296875 36 
Q 24.40625 33.703125 19.90625 32.453125 
Q 15.40625 31.203125 10.203125 31.203125 
Q 10.40625 27.703125 12.203125 25.640625 
Q 14 23.59375 16.703125 23.203125 
Q 18.296875 23 19.9375 23.296875 
Q 21.59375 23.59375 23.046875 24.25 
Q 24.5 24.90625 25.703125 25.703125 
Q 26.90625 26.5 27.796875 27.296875 
Q 28.703125 28.09375 29.703125 28.34375 
Q 30.703125 28.59375 31.203125 28.40625 
Q 32.59375 27.90625 32.203125 25.40625 
Q 30.59375 22.203125 27.59375 19.953125 
Q 24.59375 17.703125 20.90625 17.09375 
Q 17.703125 16.5 14.296875 17.390625 
Q 10.90625 18.296875 8.203125 20.90625 
Q 5.90625 23.203125 4.703125 26.296875 
Q 3.5 29.40625 3.203125 32.703125 
Q 2.90625 35.796875 3.75 38.59375 
Q 4.59375 41.40625 6.390625 43.546875 
Q 8.203125 45.703125 10.890625 47.09375 
Q 13.59375 48.5 17.203125 48.703125 
Q 21.5 49 25 47.09375 
Q 28.5 45.203125 29.90625 41.796875 
Q 30.703125 39.90625 30.34375 38.5 
Q 30 37.09375 28.296875 36 
z
M 16.796875 42.796875 
Q 15.796875 42.59375 14.640625 42.09375 
Q 13.5 41.59375 12.546875 40.84375 
Q 11.59375 40.09375 10.84375 39.140625 
Q 10.09375 38.203125 10 37 
Q 11.703125 37 13.75 37.296875 
Q 15.796875 37.59375 17.75 38.046875 
Q 19.703125 38.5 21.34375 39.09375 
Q 23 39.703125 24.09375 40.40625 
Q 23.296875 42.296875 21.140625 42.75 
Q 19 43.203125 16.796875 42.796875 
z
" id="NanumPen-Regular-101"/>
     <path id="NanumPen-Regular-32"/>
     <path d="M 26.796875 39.296875 
Q 28.703125 39.40625 30.59375 38.40625 
Q 32.5 37.40625 32.5 35.296875 
Q 32.296875 33.59375 30.640625 33.140625 
Q 29 32.703125 28 32.703125 
Q 26 32.703125 23.703125 32.59375 
Q 21.40625 32.5 19 32.296875 
Q 18.796875 29 18.640625 26.09375 
Q 18.5 23.203125 18.390625 20.953125 
Q 18.296875 18.703125 18.296875 17.296875 
Q 18.296875 15.90625 18.40625 15.796875 
Q 20.59375 16.203125 23.140625 17.140625 
Q 25.703125 18.09375 28.25 19.25 
Q 30.796875 20.40625 33.25 21.65625 
Q 35.703125 22.90625 37.90625 24 
Q 38.90625 24.5 39.75 24.296875 
Q 40.59375 24.09375 40.796875 23.40625 
Q 41 22.296875 40.5 20.6875 
Q 40 19.09375 38.703125 17.796875 
Q 37.203125 16.59375 34.75 15.046875 
Q 32.296875 13.5 29.5 12.09375 
Q 26.703125 10.703125 23.84375 9.640625 
Q 21 8.59375 18.796875 8.40625 
Q 15.5 8.09375 13.796875 10.1875 
Q 12.09375 12.296875 11.90625 15.5 
Q 11.703125 18.703125 11.84375 22.890625 
Q 12 27.09375 12.203125 31.796875 
Q 10.296875 31.59375 8.546875 31.4375 
Q 6.796875 31.296875 5.203125 31.09375 
Q 3.90625 31.09375 2.34375 31.6875 
Q 0.796875 32.296875 0.796875 34 
Q 0.796875 34.59375 1.296875 35.59375 
Q 1.796875 36.59375 3.5 37.09375 
Q 7.59375 37.796875 12.59375 38.296875 
Q 12.90625 43 13.296875 47.390625 
Q 13.703125 51.796875 14 55.40625 
Q 14.09375 56.59375 14.6875 57.5 
Q 15.296875 58.40625 16 58.40625 
Q 17.703125 58.5 19.25 57.546875 
Q 20.796875 56.59375 20.796875 55.40625 
Q 20.40625 52 20.046875 47.703125 
Q 19.703125 43.40625 19.40625 38.90625 
Q 21.40625 39.09375 23.25 39.140625 
Q 25.09375 39.203125 26.796875 39.296875 
z
" id="NanumPen-Regular-116"/>
     <path d="M 10.09375 44.796875 
Q 10.203125 43.203125 10.453125 40.84375 
Q 10.703125 38.5 11 35.953125 
Q 11.296875 33.40625 11.640625 30.90625 
Q 12 28.40625 12.296875 26.296875 
Q 13.40625 28.5 15 31.703125 
Q 16.59375 34.90625 18.34375 37.84375 
Q 20.09375 40.796875 21.9375 42.84375 
Q 23.796875 44.90625 25.296875 44.90625 
Q 26.90625 44.90625 28.25 43.34375 
Q 29.59375 41.796875 30.59375 39.59375 
Q 31.59375 37.40625 32.34375 34.90625 
Q 33.09375 32.40625 33.59375 30.5 
Q 34 31.796875 34.640625 33.4375 
Q 35.296875 35.09375 36.046875 36.84375 
Q 36.796875 38.59375 37.75 40.296875 
Q 38.703125 42 39.796875 43.296875 
Q 41.09375 44.703125 42.59375 45.34375 
Q 44.09375 46 44.796875 46 
Q 45.703125 46 46.953125 45.453125 
Q 48.203125 44.90625 49.5 44 
Q 50.796875 43.09375 51.9375 41.84375 
Q 53.09375 40.59375 53.796875 39.296875 
Q 55.203125 36.59375 56.046875 33.390625 
Q 56.90625 30.203125 57.296875 27.296875 
Q 57.703125 24.40625 57.84375 22.15625 
Q 58 19.90625 58.09375 19 
Q 58.09375 17.703125 57.796875 17.046875 
Q 57.5 16.40625 56.703125 16 
Q 55.59375 15.5 54.796875 15.640625 
Q 54 15.796875 53.5 16.296875 
Q 53 16.796875 52.703125 17.4375 
Q 52.40625 18.09375 52.296875 18.59375 
Q 52 20.90625 51.640625 23.296875 
Q 51.296875 25.703125 50.890625 27.953125 
Q 50.5 30.203125 49.953125 32.140625 
Q 49.40625 34.09375 48.796875 35.59375 
Q 48.59375 36 48.140625 36.640625 
Q 47.703125 37.296875 47.140625 37.890625 
Q 46.59375 38.5 46.09375 38.890625 
Q 45.59375 39.296875 45.40625 39.40625 
Q 44.40625 39.40625 43.296875 37.546875 
Q 42.203125 35.703125 41.203125 33.09375 
Q 40.203125 30.5 39.34375 27.640625 
Q 38.5 24.796875 38.09375 22.796875 
Q 38.09375 20.203125 37.09375 18.953125 
Q 36.09375 17.703125 35 17.703125 
Q 33.90625 17.703125 32.65625 18.546875 
Q 31.40625 19.40625 31 20.5 
Q 30.40625 22.09375 29.703125 24.09375 
Q 29 26.09375 28.25 28.1875 
Q 27.5 30.296875 26.75 32.296875 
Q 26 34.296875 25.296875 35.90625 
Q 23.90625 34 22.546875 31.703125 
Q 21.203125 29.40625 19.953125 27 
Q 18.703125 24.59375 17.546875 22.25 
Q 16.40625 19.90625 15.40625 18.09375 
Q 14.703125 17 13.890625 16.140625 
Q 13.09375 15.296875 12 15.296875 
Q 11.203125 15.296875 10.296875 16.046875 
Q 9.40625 16.796875 8.59375 17.890625 
Q 7.796875 19 7.140625 20.390625 
Q 6.5 21.796875 6.203125 23.203125 
Q 5.40625 27.5 4.84375 32.640625 
Q 4.296875 37.796875 3.796875 42.703125 
Q 3.703125 44.40625 4.25 45.84375 
Q 4.796875 47.296875 6.40625 47.796875 
Q 8.09375 48.09375 9 47.296875 
Q 9.90625 46.5 10.09375 44.796875 
z
" id="NanumPen-Regular-109"/>
     <path d="M 37.796875 48.796875 
Q 36.203125 46.09375 34.59375 43.5 
Q 33 40.90625 31.140625 37.546875 
Q 29.296875 34.203125 26.890625 29.796875 
Q 24.5 25.40625 21.296875 19.09375 
Q 20.5 17.59375 19.703125 16.6875 
Q 18.90625 15.796875 17.796875 15.796875 
Q 16.296875 15.796875 15.4375 16.640625 
Q 14.59375 17.5 14 18.5 
Q 10.703125 24 7.5 30.703125 
Q 4.296875 37.40625 2.296875 43.796875 
Q 2.09375 44.296875 2.34375 44.9375 
Q 2.59375 45.59375 3.09375 45.796875 
Q 4.09375 46.296875 5.703125 45.90625 
Q 6.90625 45.40625 8.09375 44.09375 
Q 9.296875 42.796875 10 41.40625 
Q 10.59375 40 11.390625 38.203125 
Q 12.203125 36.40625 13.140625 34.34375 
Q 14.09375 32.296875 15.09375 30.296875 
Q 16.09375 28.296875 17.09375 26.703125 
Q 18.796875 29.703125 20.75 33.140625 
Q 22.703125 36.59375 24.703125 40.140625 
Q 26.703125 43.703125 28.75 47 
Q 30.796875 50.296875 32.796875 52.90625 
Q 33.296875 53.59375 34.1875 53.6875 
Q 35.09375 53.796875 36.203125 53 
Q 38.703125 51.09375 37.796875 48.796875 
z
" id="NanumPen-Regular-118"/>
     <path d="M 20.90625 53.296875 
Q 20.703125 52.296875 19.5 52.1875 
Q 18.296875 52.09375 17.5 52.09375 
Q 15 52 12.34375 51.59375 
Q 9.703125 51.203125 6.796875 50.40625 
Q 5.59375 50 4.1875 50.703125 
Q 2.796875 51.40625 2.5 53.5 
Q 2.5 54.296875 3.09375 54.796875 
Q 3.703125 55.296875 4.5 55.703125 
Q 5.796875 56.296875 7.59375 56.75 
Q 9.40625 57.203125 11.25 57.390625 
Q 13.09375 57.59375 14.796875 57.546875 
Q 16.5 57.5 17.59375 57.203125 
Q 19.203125 56.703125 20.140625 55.703125 
Q 21.09375 54.703125 20.90625 53.296875 
z
M 18.59375 20 
Q 19.296875 18.40625 19.34375 16.546875 
Q 19.40625 14.703125 18.296875 14 
Q 16.90625 13.09375 15.296875 14.09375 
Q 13.703125 15.09375 12.90625 16.796875 
Q 11.796875 18.90625 11.1875 21.953125 
Q 10.59375 25 10.296875 28 
Q 10 31 9.953125 33.59375 
Q 9.90625 36.203125 9.90625 37.5 
Q 10 38.90625 10.703125 40.09375 
Q 11.40625 41.296875 12.5 41.5 
Q 14.296875 41.40625 15.390625 39.84375 
Q 16.5 38.296875 16.40625 36 
Q 16.40625 34.203125 16.5 32 
Q 16.59375 29.796875 16.890625 27.59375 
Q 17.203125 25.40625 17.59375 23.34375 
Q 18 21.296875 18.59375 20 
z
" id="NanumPen-Regular-105"/>
     <path d="M 22.296875 40.09375 
Q 23.09375 39 23.84375 37.34375 
Q 24.59375 35.703125 25 34 
Q 25.59375 31.296875 26.34375 28.140625 
Q 27.09375 25 27.84375 21.59375 
Q 28.59375 18.203125 29.25 14.703125 
Q 29.90625 11.203125 30.40625 8 
Q 31 3.59375 29.75 -0.453125 
Q 28.5 -4.5 25.59375 -7.703125 
Q 22.703125 -10.90625 18.390625 -12.796875 
Q 14.09375 -14.703125 8.703125 -14.90625 
Q 7.5 -14.796875 6.203125 -13.75 
Q 4.90625 -12.703125 4.90625 -11.59375 
Q 4.796875 -10.5 5.9375 -9.84375 
Q 7.09375 -9.203125 8.296875 -9 
Q 10.40625 -8.796875 12.65625 -8.140625 
Q 14.90625 -7.5 16.90625 -6.296875 
Q 18.90625 -5.09375 20.546875 -3.390625 
Q 22.203125 -1.703125 23.09375 0.59375 
Q 23.796875 2.40625 23.796875 5.046875 
Q 23.796875 7.703125 23.4375 10.296875 
Q 23.09375 12.90625 22.546875 15.25 
Q 22 17.59375 21.59375 18.796875 
Q 20.90625 18.09375 19.84375 17.296875 
Q 18.796875 16.5 17.5 15.796875 
Q 16.203125 15.09375 14.640625 14.6875 
Q 13.09375 14.296875 11.5 14.40625 
Q 9.796875 14.5 8.34375 15.59375 
Q 6.90625 16.703125 5.796875 18.453125 
Q 4.703125 20.203125 4.046875 22.5 
Q 3.40625 24.796875 3.40625 27.296875 
Q 3.59375 33.296875 6.4375 37.9375 
Q 9.296875 42.59375 15.59375 45.203125 
Q 16.09375 45.296875 16.9375 45.390625 
Q 17.796875 45.5 18.6875 45.453125 
Q 19.59375 45.40625 20.4375 45.203125 
Q 21.296875 45 21.90625 44.59375 
Q 23 43.796875 23 42.296875 
Q 23 40.796875 22.296875 40.09375 
z
M 9.703125 26.40625 
Q 9.703125 25.296875 9.890625 23.9375 
Q 10.09375 22.59375 11.203125 22 
Q 12.40625 21.296875 14.15625 21.796875 
Q 15.90625 22.296875 17.40625 23.5 
Q 18.796875 24.59375 19.25 25.9375 
Q 19.703125 27.296875 19.203125 29.59375 
Q 18.703125 31.90625 18.09375 34.40625 
Q 17.5 36.90625 17.296875 38.90625 
Q 16.09375 38.296875 14.75 37.1875 
Q 13.40625 36.09375 12.296875 34.4375 
Q 11.203125 32.796875 10.453125 30.796875 
Q 9.703125 28.796875 9.703125 26.40625 
z
" id="NanumPen-Regular-103"/>
     <path d="M 10.5 45.5 
Q 10.796875 44 11.140625 42.140625 
Q 11.5 40.296875 11.890625 38.34375 
Q 12.296875 36.40625 12.59375 34.40625 
Q 12.90625 32.40625 13.09375 30.59375 
Q 14.296875 33.203125 15.6875 36.09375 
Q 17.09375 39 18.75 41.453125 
Q 20.40625 43.90625 22.25 45.5 
Q 24.09375 47.09375 26.296875 47.09375 
Q 29.59375 47.09375 31.84375 44.6875 
Q 34.09375 42.296875 35.640625 38.75 
Q 37.203125 35.203125 38.09375 31.296875 
Q 39 27.40625 39.59375 24.40625 
Q 40.203125 21.703125 37.203125 20.40625 
Q 35.796875 19.703125 35.09375 20.203125 
Q 34.40625 20.703125 34.296875 21.203125 
Q 33.796875 22.40625 33.046875 25.40625 
Q 32.296875 28.40625 31.34375 31.5 
Q 30.40625 34.59375 29.203125 36.890625 
Q 28 39.203125 26.5 39 
Q 24.703125 38.90625 23.296875 36.296875 
Q 22.09375 34.203125 20.84375 31.640625 
Q 19.59375 29.09375 18.390625 26.4375 
Q 17.203125 23.796875 16.046875 21.140625 
Q 14.90625 18.5 13.90625 16.296875 
Q 13.203125 15.59375 12.140625 15.34375 
Q 11.09375 15.09375 10 15.5 
Q 9 15.796875 8.390625 16.5 
Q 7.796875 17.203125 7.796875 17.90625 
Q 6.90625 25.703125 5.953125 32.09375 
Q 5 38.5 3.5 45.203125 
Q 2.796875 47.5 3.25 48.84375 
Q 3.703125 50.203125 6.203125 49.90625 
Q 9.703125 49.296875 10.5 45.5 
z
" id="NanumPen-Regular-110"/>
     <path d="M 34 47 
Q 32.203125 46 30.25 44.890625 
Q 28.296875 43.796875 26.34375 42.34375 
Q 24.40625 40.90625 22.65625 38.953125 
Q 20.90625 37 19.5 34.296875 
Q 17.5 30.5 16.796875 26.546875 
Q 16.09375 22.59375 15.90625 18.796875 
Q 15.90625 17 15.046875 15.140625 
Q 14.203125 13.296875 12.703125 13.296875 
Q 10.796875 13.296875 9.640625 15.25 
Q 8.5 17.203125 8.09375 19 
Q 6.40625 26.09375 5.296875 33.046875 
Q 4.203125 40 3.40625 46.90625 
Q 3.40625 48.296875 4.25 48.6875 
Q 5.09375 49.09375 6.203125 49 
Q 7.40625 48.90625 8.5 48.40625 
Q 9.59375 47.90625 9.796875 46.796875 
Q 10.203125 43.09375 10.796875 39.046875 
Q 11.40625 35 12 32.09375 
Q 12.40625 35.5 14.203125 38.703125 
Q 16 41.90625 18.640625 44.5 
Q 21.296875 47.09375 24.640625 48.890625 
Q 28 50.703125 31.5 51.296875 
Q 33 51.5 34 51.296875 
Q 35 51.09375 35.40625 50.59375 
Q 35.796875 50.09375 35.546875 49 
Q 35.296875 47.90625 34 47 
z
" id="NanumPen-Regular-114"/>
     <path d="M 35.09375 44 
Q 35.40625 38.59375 35.75 33.09375 
Q 36.09375 27.59375 35.890625 22.25 
Q 35.703125 16.90625 34.84375 11.796875 
Q 34 6.703125 32 2.046875 
Q 30 -2.59375 26.640625 -6.59375 
Q 23.296875 -10.59375 18.203125 -13.796875 
Q 17.40625 -14.296875 16.453125 -14.390625 
Q 15.5 -14.5 14.59375 -14.34375 
Q 13.703125 -14.203125 13 -13.84375 
Q 12.296875 -13.5 12.09375 -12.90625 
Q 11.796875 -12 12.390625 -10.890625 
Q 13 -9.796875 14.40625 -8.59375 
Q 18.796875 -5.296875 21.796875 -1.59375 
Q 24.796875 2.09375 26.59375 6.390625 
Q 28.40625 10.703125 28.953125 15.75 
Q 29.5 20.796875 28.90625 26.796875 
Q 27.703125 25.296875 26.09375 23.6875 
Q 24.5 22.09375 22.703125 20.84375 
Q 20.90625 19.59375 19 18.75 
Q 17.09375 17.90625 15.40625 17.90625 
Q 14 17.90625 12.59375 18.5 
Q 11.203125 19.09375 9.796875 20.796875 
Q 8.203125 22.90625 6.953125 25.546875 
Q 5.703125 28.203125 4.796875 30.703125 
Q 3.90625 33.203125 3.34375 35.203125 
Q 2.796875 37.203125 2.703125 38 
Q 2.5 39 2.703125 39.890625 
Q 2.90625 40.796875 4 41 
Q 5.5 41.296875 6.796875 40.796875 
Q 8.09375 40.296875 8.59375 39.203125 
Q 9 38.09375 9.703125 35.796875 
Q 10.40625 33.5 11.40625 31.25 
Q 12.40625 29 13.546875 27.296875 
Q 14.703125 25.59375 16 25.59375 
Q 17.5 25.59375 19.546875 27.09375 
Q 21.59375 28.59375 23.5 31 
Q 25.40625 33.40625 26.75 36.34375 
Q 28.09375 39.296875 28.09375 42.09375 
Q 28.09375 42.703125 28.296875 43.5 
Q 28.5 44.296875 28.890625 45.046875 
Q 29.296875 45.796875 29.84375 46.34375 
Q 30.40625 46.90625 31 47 
Q 32.59375 47.203125 33.84375 46.140625 
Q 35.09375 45.09375 35.09375 44 
z
" id="NanumPen-Regular-121"/>
     <path d="M 12.703125 42.09375 
Q 12.09375 39.40625 11.5 36.15625 
Q 10.90625 32.90625 10.65625 29.90625 
Q 10.40625 26.90625 10.65625 24.5 
Q 10.90625 22.09375 11.90625 21.09375 
Q 13.59375 20.796875 15.796875 22.546875 
Q 18 24.296875 20.09375 27 
Q 22.203125 29.703125 23.890625 32.84375 
Q 25.59375 36 26.296875 38.40625 
Q 26.703125 39.59375 27 40.890625 
Q 27.296875 42.203125 27.296875 43.59375 
Q 27.296875 44.40625 28.34375 45.15625 
Q 29.40625 45.90625 30.09375 46 
Q 30.59375 46.09375 31.25 45.796875 
Q 31.90625 45.5 32.453125 44.953125 
Q 33 44.40625 33.453125 43.65625 
Q 33.90625 42.90625 33.90625 42.09375 
Q 34.09375 39.09375 34.5 35.5 
Q 34.90625 31.90625 35.453125 28.296875 
Q 36 24.703125 36.59375 21.296875 
Q 37.203125 17.90625 37.796875 15.203125 
Q 38.09375 14.09375 37.1875 12.6875 
Q 36.296875 11.296875 35.203125 11 
Q 34.296875 10.796875 33.34375 11.1875 
Q 32.40625 11.59375 31.90625 12.796875 
Q 31.40625 14.203125 30.953125 16.25 
Q 30.5 18.296875 30.140625 20.546875 
Q 29.796875 22.796875 29.5 24.84375 
Q 29.203125 26.90625 29.09375 28.296875 
Q 27.59375 25.59375 25.546875 22.84375 
Q 23.5 20.09375 21.140625 17.84375 
Q 18.796875 15.59375 16.25 14.34375 
Q 13.703125 13.09375 11 13.40625 
Q 7 13.90625 4.90625 20.90625 
Q 4.09375 23.703125 4.140625 27.09375 
Q 4.203125 30.5 4.640625 33.84375 
Q 5.09375 37.203125 5.75 40.203125 
Q 6.40625 43.203125 6.90625 45.09375 
Q 7.09375 45.90625 7.6875 46.546875 
Q 8.296875 47.203125 9.09375 47 
Q 10.59375 46.703125 11.84375 45.203125 
Q 13.09375 43.703125 12.703125 42.09375 
z
" id="NanumPen-Regular-117"/>
     <path d="M 21 63.203125 
Q 20.703125 65 21.25 66.5 
Q 21.796875 68 23.5 68.203125 
Q 25 68.40625 26.140625 67.40625 
Q 27.296875 66.40625 27.59375 64.796875 
Q 29.59375 53.296875 31.34375 41.9375 
Q 33.09375 30.59375 34.5 19.703125 
Q 34.90625 16.796875 34.09375 15.75 
Q 33.296875 14.703125 32.203125 14.203125 
Q 31 13.703125 29.953125 14.203125 
Q 28.90625 14.703125 28.59375 16 
L 28.5 16.59375 
L 28.09375 16.5 
Q 24.796875 15.296875 21.1875 15.140625 
Q 17.59375 15 14.296875 16 
Q 11 17 8.453125 19.25 
Q 5.90625 21.5 4.796875 25 
Q 2.40625 32.703125 7.796875 39 
Q 10.09375 41.59375 13.5 43.6875 
Q 16.90625 45.796875 21.703125 47 
L 23.5 47.40625 
z
M 10.90625 27.5 
Q 11.5 25.09375 13.09375 23.796875 
Q 14.703125 22.5 16.890625 22.046875 
Q 19.09375 21.59375 21.59375 21.890625 
Q 24.09375 22.203125 26.5 23 
L 27.40625 23.296875 
L 24.59375 40.90625 
L 22.59375 40.40625 
Q 20.5 39.796875 18.140625 38.546875 
Q 15.796875 37.296875 14 35.59375 
Q 12.203125 33.90625 11.25 31.796875 
Q 10.296875 29.703125 10.90625 27.5 
z
" id="NanumPen-Regular-100"/>
     <path d="M 7.59375 30.703125 
Q 6.203125 30.5 4.34375 31 
Q 2.5 31.5 1.796875 33.5 
Q 1.5 34.5 1.703125 35.453125 
Q 1.90625 36.40625 3.796875 36.796875 
Q 5.59375 37.203125 7.640625 37.546875 
Q 9.703125 37.90625 11.796875 38.203125 
L 8.09375 49.40625 
Q 6.40625 55.796875 7.703125 60.390625 
Q 9 65 15.09375 67 
Q 17.59375 67.796875 20.046875 67.59375 
Q 22.5 67.40625 24.703125 66.296875 
Q 26.90625 65.203125 28.703125 63.390625 
Q 30.5 61.59375 31.59375 59.203125 
Q 32 58.09375 32.046875 57.25 
Q 32.09375 56.40625 31.40625 55.703125 
Q 30.40625 54.703125 29.203125 54.84375 
Q 28 55 27.59375 55.5 
Q 26.703125 56.59375 25.640625 57.75 
Q 24.59375 58.90625 23.4375 59.75 
Q 22.296875 60.59375 21 61.046875 
Q 19.703125 61.5 18.203125 61.296875 
Q 17.5 61.203125 16.546875 60.59375 
Q 15.59375 60 14.890625 58.75 
Q 14.203125 57.5 14.046875 55.5 
Q 13.90625 53.5 14.703125 50.5 
Q 15.40625 48 16.296875 45.09375 
Q 17.203125 42.203125 18.296875 39 
Q 23.09375 39.5 27.09375 39.296875 
Q 29.296875 39.09375 31.1875 38.5 
Q 33.09375 37.90625 34.296875 36.703125 
Q 34.59375 35.703125 34.1875 35.046875 
Q 33.796875 34.40625 33.046875 33.953125 
Q 32.296875 33.5 31.34375 33.296875 
Q 30.40625 33.09375 29.5 33 
Q 27.5 32.796875 25.296875 32.546875 
Q 23.09375 32.296875 20.703125 32.09375 
Q 22.296875 27.59375 23.640625 23.546875 
Q 25 19.5 25.796875 16.796875 
Q 26.203125 15.296875 25.890625 13.59375 
Q 25.59375 11.90625 25.09375 10.296875 
Q 24.296875 8 23.09375 6.59375 
Q 21.90625 5.203125 20.5 5.703125 
Q 19.40625 6.203125 19.09375 7 
Q 18.796875 7.796875 19 9.203125 
Q 19.203125 10.796875 19.203125 12.390625 
Q 19.203125 14 19.046875 15.34375 
Q 18.90625 16.703125 18.65625 17.75 
Q 18.40625 18.796875 18.296875 19.203125 
L 14.09375 31.40625 
Q 12.5 31.203125 10.890625 31.046875 
Q 9.296875 30.90625 7.59375 30.703125 
z
" id="NanumPen-Regular-102"/>
     <path d="M 39.703125 14.796875 
Q 38.90625 13.703125 37.90625 13.34375 
Q 36.90625 13 36.09375 13 
Q 34.703125 13.09375 33.5 13.9375 
Q 32.296875 14.796875 32 15.703125 
Q 31.40625 17.40625 30.703125 19.5 
Q 30 21.59375 29.34375 23.75 
Q 28.703125 25.90625 28 27.953125 
Q 27.296875 30 26.703125 31.703125 
Q 24.703125 28.203125 22.890625 24.640625 
Q 21.09375 21.09375 18.90625 17.296875 
Q 17.90625 15.796875 16.59375 15.25 
Q 15.296875 14.703125 14.40625 14.796875 
Q 13.09375 14.90625 12.046875 15.796875 
Q 11 16.703125 10.40625 17.5 
Q 9.296875 19.296875 8.1875 22.140625 
Q 7.09375 25 6.140625 28.140625 
Q 5.203125 31.296875 4.390625 34.4375 
Q 3.59375 37.59375 3.09375 40.09375 
Q 2.796875 41.796875 3.140625 43.296875 
Q 3.5 44.796875 4.90625 45 
Q 6.59375 45.09375 8 43.84375 
Q 9.40625 42.59375 9.59375 41.40625 
Q 10 39.40625 10.546875 37.046875 
Q 11.09375 34.703125 11.75 32.296875 
Q 12.40625 29.90625 13.046875 27.59375 
Q 13.703125 25.296875 14.40625 23.5 
Q 15.90625 25.90625 17.75 29.046875 
Q 19.59375 32.203125 21.296875 35.140625 
Q 23 38.09375 24.390625 40.296875 
Q 25.796875 42.5 26.59375 43 
Q 27.203125 43.40625 28.296875 42.953125 
Q 29.40625 42.5 29.90625 41.703125 
Q 32.09375 37.296875 33.546875 32.046875 
Q 35 26.796875 36.40625 22.296875 
Q 37.796875 24.09375 39.390625 27.046875 
Q 41 30 42.5 33.296875 
Q 44 36.59375 45.296875 39.890625 
Q 46.59375 43.203125 47.40625 45.796875 
Q 48.203125 48.5 49.59375 48.40625 
Q 51.40625 48.203125 52.703125 47.203125 
Q 54 46.203125 53.703125 45.09375 
Q 51.5 36.296875 48 28.9375 
Q 44.5 21.59375 39.703125 14.796875 
z
" id="NanumPen-Regular-119"/>
    </defs>
    <g transform="translate(79.2575 80.4)scale(0.32 -0.32)">
     <use xlink:href="#NanumPen-Regular-67"/>
     <use x="34.399994" xlink:href="#NanumPen-Regular-104"/>
     <use x="75.699982" xlink:href="#NanumPen-Regular-111"/>
     <use x="116.099976" xlink:href="#NanumPen-Regular-111"/>
     <use x="156.499969" xlink:href="#NanumPen-Regular-115"/>
     <use x="190.399963" xlink:href="#NanumPen-Regular-101"/>
     <use x="225.499954" xlink:href="#NanumPen-Regular-32"/>
     <use x="253.499939" xlink:href="#NanumPen-Regular-116"/>
     <use x="294.299927" xlink:href="#NanumPen-Regular-104"/>
     <use x="335.599915" xlink:href="#NanumPen-Regular-101"/>
     <use x="370.699905" xlink:href="#NanumPen-Regular-32"/>
     <use x="398.69989" xlink:href="#NanumPen-Regular-109"/>
     <use x="460.799881" xlink:href="#NanumPen-Regular-111"/>
     <use x="501.199875" xlink:href="#NanumPen-Regular-118"/>
     <use x="541.599869" xlink:href="#NanumPen-Regular-105"/>
     <use x="565.799866" xlink:href="#NanumPen-Regular-101"/>
     <use x="600.899857" xlink:href="#NanumPen-Regular-32"/>
     <use x="628.899841" xlink:href="#NanumPen-Regular-103"/>
     <use x="662.799835" xlink:href="#NanumPen-Regular-101"/>
     <use x="697.899826" xlink:href="#NanumPen-Regular-110"/>
     <use x="740.29982" xlink:href="#NanumPen-Regular-114"/>
     <use x="776.199814" xlink:href="#NanumPen-Regular-101"/>
     <use x="811.299805" xlink:href="#NanumPen-Regular-32"/>
     <use x="839.299789" xlink:href="#NanumPen-Regular-121"/>
     <use x="879.89978" xlink:href="#NanumPen-Regular-111"/>
     <use x="920.299774" xlink:href="#NanumPen-Regular-117"/>
     <use x="961.299759" xlink:href="#NanumPen-Regular-32"/>
     <use x="989.299744" xlink:href="#NanumPen-Regular-105"/>
     <use x="1013.499741" xlink:href="#NanumPen-Regular-100"/>
     <use x="1049.199738" xlink:href="#NanumPen-Regular-101"/>
     <use x="1084.299728" xlink:href="#NanumPen-Regular-110"/>
     <use x="1126.699722" xlink:href="#NanumPen-Regular-116"/>
     <use x="1167.49971" xlink:href="#NanumPen-Regular-105"/>
     <use x="1191.699707" xlink:href="#NanumPen-Regular-102"/>
     <use x="1228.799698" xlink:href="#NanumPen-Regular-121"/>
     <use x="1269.399689" xlink:href="#NanumPen-Regular-32"/>
     <use x="1297.399673" xlink:href="#NanumPen-Regular-119"/>
     <use x="1354.199661" xlink:href="#NanumPen-Regular-105"/>
     <use x="1378.399658" xlink:href="#NanumPen-Regular-116"/>
     <use x="1419.199646" xlink:href="#NanumPen-Regular-104"/>
     <use x="1460.499634" xlink:href="#NanumPen-Regular-32"/>
     <use x="1488.499619" xlink:href="#NanumPen-Regular-116"/>
     <use x="1529.299606" xlink:href="#NanumPen-Regular-104"/>
     <use x="1570.599594" xlink:href="#NanumPen-Regular-101"/>
     <use x="1605.699585" xlink:href="#NanumPen-Regular-32"/>
     <use x="1633.69957" xlink:href="#NanumPen-Regular-109"/>
     <use x="1695.799561" xlink:href="#NanumPen-Regular-111"/>
     <use x="1736.199554" xlink:href="#NanumPen-Regular-115"/>
     <use x="1770.099548" xlink:href="#NanumPen-Regular-116"/>
    </g>
   </g>
  </g>
 </g>
 <defs>
  <clipPath id="pc8fef98924">
   <rect height="543.6" width="558" x="90" y="86.4"/>
  </clipPath>
 </defs>
</svg>
