<?xml version="1.0" encoding="utf-8" standalone="no"?>
<!DOCTYPE svg PUBLIC "-//W3C//DTD SVG 1.1//EN"
  "http://www.w3.org/Graphics/SVG/1.1/DTD/svg11.dtd">
<!-- Created with matplotlib (https://matplotlib.org/) -->
<svg height="576pt" version="1.1" viewBox="0 0 864 576" width="864pt" xmlns="http://www.w3.org/2000/svg" xmlns:xlink="http://www.w3.org/1999/xlink">
 <defs>
  <style type="text/css">
*{stroke-linecap:butt;stroke-linejoin:round;}
  </style>
 </defs>
 <g id="figure_1">
  <g id="patch_1">
   <path d="M 0 576 
L 864 576 
L 864 0 
L 0 0 
z
" style="fill:none;"/>
  </g>
  <g id="axes_1">
   <g id="patch_2">
    <path d="M 108 504 
L 777.6 504 
L 777.6 69.12 
L 108 69.12 
z
" style="fill:none;"/>
   </g>
   <g id="matplotlib.axis_1">
    <g id="xtick_1">
     <g id="text_1">
      <!-- 1 -->
      <defs>
       <path d="M 10.5 13.40625 
Q 8.703125 14.90625 7.890625 17.046875 
Q 7.09375 19.203125 7.09375 19.90625 
Q 5.703125 36 8.40625 51.40625 
Q 8.90625 53.5 9.5 55.203125 
Q 10.09375 56.90625 10.703125 56.90625 
Q 11.40625 56.90625 12.203125 56.5 
Q 13 56.09375 13.59375 55.5 
Q 14.203125 54.90625 14.546875 54.203125 
Q 14.90625 53.5 14.90625 52.90625 
Q 12.90625 43.09375 12.75 33.34375 
Q 12.59375 23.59375 13.203125 13.90625 
Q 13.203125 12.90625 12.296875 12.703125 
Q 11.796875 12.59375 11.34375 12.84375 
Q 10.90625 13.09375 10.5 13.40625 
z
" id="NanumPen-Regular-49"/>
      </defs>
      <g transform="translate(133.974983 531.415)scale(0.32 -0.32)">
       <use xlink:href="#NanumPen-Regular-49"/>
      </g>
     </g>
    </g>
    <g id="xtick_2">
     <g id="text_2">
      <!-- 10 -->
      <defs>
       <path d="M 32.40625 41.90625 
Q 32.40625 39.59375 31.65625 36.25 
Q 30.90625 32.90625 29.203125 29.5 
Q 27.5 26.09375 24.75 23.09375 
Q 22 20.09375 18 18.5 
Q 15.5 17.40625 13.046875 17.34375 
Q 10.59375 17.296875 8.640625 18.296875 
Q 6.703125 19.296875 5.390625 21.34375 
Q 4.09375 23.40625 3.796875 26.703125 
Q 3.5 30.59375 4.453125 34.546875 
Q 5.40625 38.5 7.453125 41.953125 
Q 9.5 45.40625 12.390625 48.09375 
Q 15.296875 50.796875 18.90625 52.40625 
Q 19.703125 52.796875 20.453125 52.34375 
Q 21.203125 51.90625 21.40625 50.5 
Q 26.59375 50 29.5 47.75 
Q 32.40625 45.5 32.40625 41.90625 
z
M 10.59375 26.90625 
Q 10.796875 25.5 11.390625 24.890625 
Q 12 24.296875 12.796875 24.09375 
Q 13.59375 24 14.59375 24.296875 
Q 15.59375 24.59375 16.546875 25.046875 
Q 17.5 25.5 18.296875 26.046875 
Q 19.09375 26.59375 19.59375 27.09375 
Q 22.40625 29.703125 24.09375 33.453125 
Q 25.796875 37.203125 26.203125 41.703125 
Q 26.203125 42.296875 25.390625 42.890625 
Q 24.59375 43.5 23.34375 43.84375 
Q 22.09375 44.203125 20.59375 44.390625 
Q 19.09375 44.59375 17.703125 44.5 
Q 16.203125 42.796875 14.796875 40.796875 
Q 13.40625 38.796875 12.40625 36.546875 
Q 11.40625 34.296875 10.90625 31.84375 
Q 10.40625 29.40625 10.59375 26.90625 
z
" id="NanumPen-Regular-48"/>
      </defs>
      <g transform="translate(341.775822 531.415)scale(0.32 -0.32)">
       <use xlink:href="#NanumPen-Regular-49"/>
       <use x="18.999985" xlink:href="#NanumPen-Regular-48"/>
      </g>
     </g>
    </g>
    <g id="xtick_3">
     <g id="text_3">
      <!-- 100 -->
      <g transform="translate(549.576661 531.415)scale(0.32 -0.32)">
       <use xlink:href="#NanumPen-Regular-49"/>
       <use x="18.999985" xlink:href="#NanumPen-Regular-48"/>
       <use x="54.799973" xlink:href="#NanumPen-Regular-48"/>
      </g>
     </g>
    </g>
    <g id="xtick_4">
     <g id="text_4">
      <!-- 1000 -->
      <g transform="translate(757.3775 531.415)scale(0.32 -0.32)">
       <use xlink:href="#NanumPen-Regular-49"/>
       <use x="18.999985" xlink:href="#NanumPen-Regular-48"/>
       <use x="54.799973" xlink:href="#NanumPen-Regular-48"/>
       <use x="90.59996" xlink:href="#NanumPen-Regular-48"/>
      </g>
     </g>
    </g>
    <g id="xtick_5"/>
    <g id="xtick_6"/>
    <g id="xtick_7"/>
    <g id="xtick_8"/>
    <g id="xtick_9"/>
    <g id="xtick_10"/>
    <g id="xtick_11"/>
    <g id="xtick_12"/>
    <g id="xtick_13"/>
    <g id="xtick_14"/>
    <g id="xtick_15"/>
    <g id="xtick_16"/>
    <g id="xtick_17"/>
    <g id="xtick_18"/>
    <g id="xtick_19"/>
    <g id="xtick_20"/>
    <g id="xtick_21"/>
    <g id="xtick_22"/>
    <g id="xtick_23"/>
    <g id="xtick_24"/>
    <g id="xtick_25"/>
    <g id="xtick_26"/>
    <g id="xtick_27"/>
    <g id="xtick_28"/>
    <g id="xtick_29"/>
    <g id="xtick_30"/>
    <g id="text_5">
     <!-- Node degree (log scale) -->
     <defs>
      <path d="M 42.5 53.40625 
Q 41.796875 44.90625 40.84375 36.046875 
Q 39.90625 27.203125 38.296875 19.40625 
Q 37.90625 17.5 37.203125 16.703125 
Q 36.5 15.90625 35.203125 15.59375 
Q 34.09375 15.40625 32.140625 16.296875 
Q 30.203125 17.203125 28.90625 18.90625 
Q 27.203125 21.203125 25.25 23.953125 
Q 23.296875 26.703125 21.046875 29.546875 
Q 18.796875 32.40625 16.34375 35.203125 
Q 13.90625 38 11.203125 40.40625 
Q 10.90625 33.796875 10.703125 27.34375 
Q 10.5 20.90625 10.703125 14.40625 
Q 10.703125 13.5 9.09375 13.5 
Q 7.203125 13.5 6 15.453125 
Q 4.796875 17.40625 4.59375 19.40625 
Q 4.296875 21.40625 4.296875 25.15625 
Q 4.296875 28.90625 4.4375 33 
Q 4.59375 37.09375 4.796875 40.890625 
Q 5 44.703125 5.203125 46.90625 
Q 5.40625 49.296875 6.34375 50.390625 
Q 7.296875 51.5 8.203125 51.40625 
Q 10.203125 51.203125 10.84375 50.25 
Q 11.5 49.296875 11.59375 47.90625 
Q 15.203125 45.296875 18.25 42.296875 
Q 21.296875 39.296875 23.84375 36.1875 
Q 26.40625 33.09375 28.546875 30.046875 
Q 30.703125 27 32.59375 24.5 
Q 33.796875 30.5 34.546875 37.890625 
Q 35.296875 45.296875 36.09375 53.40625 
Q 36 54.40625 37.296875 55.34375 
Q 38.59375 56.296875 39.703125 56.203125 
Q 42.5 56 42.5 53.40625 
z
" id="NanumPen-Regular-78"/>
      <path d="M 27.09375 47.40625 
Q 30.09375 46.296875 32.140625 44.09375 
Q 34.203125 41.90625 35.296875 39.15625 
Q 36.40625 36.40625 36.546875 33.5 
Q 36.703125 30.59375 35.90625 28.09375 
Q 34.796875 25.296875 33.09375 22.59375 
Q 31.40625 19.90625 29.203125 17.796875 
Q 27 15.703125 24.203125 14.390625 
Q 21.40625 13.09375 18 13.09375 
Q 13.90625 13.09375 11.09375 15 
Q 8.296875 16.90625 6.6875 19.90625 
Q 5.09375 22.90625 4.640625 26.703125 
Q 4.203125 30.5 4.796875 34.296875 
Q 5.203125 37.09375 6.140625 39.75 
Q 7.09375 42.40625 8.59375 44.453125 
Q 10.09375 46.5 12.046875 47.796875 
Q 14 49.09375 16.5 49.09375 
Q 17.90625 49.09375 20 48.546875 
Q 22.09375 48 23.90625 47 
Q 25.203125 48.203125 27.09375 47.40625 
z
M 23.296875 40.09375 
Q 22.203125 40.796875 20.75 41.9375 
Q 19.296875 43.09375 18.203125 43.09375 
Q 17 43.09375 15.84375 42 
Q 14.703125 40.90625 13.84375 39.453125 
Q 13 38 12.390625 36.5 
Q 11.796875 35 11.59375 34.09375 
Q 11.296875 32.59375 11.1875 30.5 
Q 11.09375 28.40625 11.5 26.34375 
Q 11.90625 24.296875 13.046875 22.640625 
Q 14.203125 21 16.5 20.296875 
Q 17.90625 19.90625 19.796875 20.34375 
Q 21.703125 20.796875 23.546875 22 
Q 25.40625 23.203125 27.046875 25.203125 
Q 28.703125 27.203125 29.59375 29.796875 
Q 30.59375 32.703125 29.640625 35.84375 
Q 28.703125 39 25.796875 40.40625 
Q 25.09375 39.90625 24.390625 39.90625 
Q 23.703125 39.90625 23.296875 40.09375 
z
" id="NanumPen-Regular-111"/>
      <path d="M 21 63.203125 
Q 20.703125 65 21.25 66.5 
Q 21.796875 68 23.5 68.203125 
Q 25 68.40625 26.140625 67.40625 
Q 27.296875 66.40625 27.59375 64.796875 
Q 29.59375 53.296875 31.34375 41.9375 
Q 33.09375 30.59375 34.5 19.703125 
Q 34.90625 16.796875 34.09375 15.75 
Q 33.296875 14.703125 32.203125 14.203125 
Q 31 13.703125 29.953125 14.203125 
Q 28.90625 14.703125 28.59375 16 
L 28.5 16.59375 
L 28.09375 16.5 
Q 24.796875 15.296875 21.1875 15.140625 
Q 17.59375 15 14.296875 16 
Q 11 17 8.453125 19.25 
Q 5.90625 21.5 4.796875 25 
Q 2.40625 32.703125 7.796875 39 
Q 10.09375 41.59375 13.5 43.6875 
Q 16.90625 45.796875 21.703125 47 
L 23.5 47.40625 
z
M 10.90625 27.5 
Q 11.5 25.09375 13.09375 23.796875 
Q 14.703125 22.5 16.890625 22.046875 
Q 19.09375 21.59375 21.59375 21.890625 
Q 24.09375 22.203125 26.5 23 
L 27.40625 23.296875 
L 24.59375 40.90625 
L 22.59375 40.40625 
Q 20.5 39.796875 18.140625 38.546875 
Q 15.796875 37.296875 14 35.59375 
Q 12.203125 33.90625 11.25 31.796875 
Q 10.296875 29.703125 10.90625 27.5 
z
" id="NanumPen-Regular-100"/>
      <path d="M 28.296875 36 
Q 24.40625 33.703125 19.90625 32.453125 
Q 15.40625 31.203125 10.203125 31.203125 
Q 10.40625 27.703125 12.203125 25.640625 
Q 14 23.59375 16.703125 23.203125 
Q 18.296875 23 19.9375 23.296875 
Q 21.59375 23.59375 23.046875 24.25 
Q 24.5 24.90625 25.703125 25.703125 
Q 26.90625 26.5 27.796875 27.296875 
Q 28.703125 28.09375 29.703125 28.34375 
Q 30.703125 28.59375 31.203125 28.40625 
Q 32.59375 27.90625 32.203125 25.40625 
Q 30.59375 22.203125 27.59375 19.953125 
Q 24.59375 17.703125 20.90625 17.09375 
Q 17.703125 16.5 14.296875 17.390625 
Q 10.90625 18.296875 8.203125 20.90625 
Q 5.90625 23.203125 4.703125 26.296875 
Q 3.5 29.40625 3.203125 32.703125 
Q 2.90625 35.796875 3.75 38.59375 
Q 4.59375 41.40625 6.390625 43.546875 
Q 8.203125 45.703125 10.890625 47.09375 
Q 13.59375 48.5 17.203125 48.703125 
Q 21.5 49 25 47.09375 
Q 28.5 45.203125 29.90625 41.796875 
Q 30.703125 39.90625 30.34375 38.5 
Q 30 37.09375 28.296875 36 
z
M 16.796875 42.796875 
Q 15.796875 42.59375 14.640625 42.09375 
Q 13.5 41.59375 12.546875 40.84375 
Q 11.59375 40.09375 10.84375 39.140625 
Q 10.09375 38.203125 10 37 
Q 11.703125 37 13.75 37.296875 
Q 15.796875 37.59375 17.75 38.046875 
Q 19.703125 38.5 21.34375 39.09375 
Q 23 39.703125 24.09375 40.40625 
Q 23.296875 42.296875 21.140625 42.75 
Q 19 43.203125 16.796875 42.796875 
z
" id="NanumPen-Regular-101"/>
      <path id="NanumPen-Regular-32"/>
      <path d="M 22.296875 40.09375 
Q 23.09375 39 23.84375 37.34375 
Q 24.59375 35.703125 25 34 
Q 25.59375 31.296875 26.34375 28.140625 
Q 27.09375 25 27.84375 21.59375 
Q 28.59375 18.203125 29.25 14.703125 
Q 29.90625 11.203125 30.40625 8 
Q 31 3.59375 29.75 -0.453125 
Q 28.5 -4.5 25.59375 -7.703125 
Q 22.703125 -10.90625 18.390625 -12.796875 
Q 14.09375 -14.703125 8.703125 -14.90625 
Q 7.5 -14.796875 6.203125 -13.75 
Q 4.90625 -12.703125 4.90625 -11.59375 
Q 4.796875 -10.5 5.9375 -9.84375 
Q 7.09375 -9.203125 8.296875 -9 
Q 10.40625 -8.796875 12.65625 -8.140625 
Q 14.90625 -7.5 16.90625 -6.296875 
Q 18.90625 -5.09375 20.546875 -3.390625 
Q 22.203125 -1.703125 23.09375 0.59375 
Q 23.796875 2.40625 23.796875 5.046875 
Q 23.796875 7.703125 23.4375 10.296875 
Q 23.09375 12.90625 22.546875 15.25 
Q 22 17.59375 21.59375 18.796875 
Q 20.90625 18.09375 19.84375 17.296875 
Q 18.796875 16.5 17.5 15.796875 
Q 16.203125 15.09375 14.640625 14.6875 
Q 13.09375 14.296875 11.5 14.40625 
Q 9.796875 14.5 8.34375 15.59375 
Q 6.90625 16.703125 5.796875 18.453125 
Q 4.703125 20.203125 4.046875 22.5 
Q 3.40625 24.796875 3.40625 27.296875 
Q 3.59375 33.296875 6.4375 37.9375 
Q 9.296875 42.59375 15.59375 45.203125 
Q 16.09375 45.296875 16.9375 45.390625 
Q 17.796875 45.5 18.6875 45.453125 
Q 19.59375 45.40625 20.4375 45.203125 
Q 21.296875 45 21.90625 44.59375 
Q 23 43.796875 23 42.296875 
Q 23 40.796875 22.296875 40.09375 
z
M 9.703125 26.40625 
Q 9.703125 25.296875 9.890625 23.9375 
Q 10.09375 22.59375 11.203125 22 
Q 12.40625 21.296875 14.15625 21.796875 
Q 15.90625 22.296875 17.40625 23.5 
Q 18.796875 24.59375 19.25 25.9375 
Q 19.703125 27.296875 19.203125 29.59375 
Q 18.703125 31.90625 18.09375 34.40625 
Q 17.5 36.90625 17.296875 38.90625 
Q 16.09375 38.296875 14.75 37.1875 
Q 13.40625 36.09375 12.296875 34.4375 
Q 11.203125 32.796875 10.453125 30.796875 
Q 9.703125 28.796875 9.703125 26.40625 
z
" id="NanumPen-Regular-103"/>
      <path d="M 34 47 
Q 32.203125 46 30.25 44.890625 
Q 28.296875 43.796875 26.34375 42.34375 
Q 24.40625 40.90625 22.65625 38.953125 
Q 20.90625 37 19.5 34.296875 
Q 17.5 30.5 16.796875 26.546875 
Q 16.09375 22.59375 15.90625 18.796875 
Q 15.90625 17 15.046875 15.140625 
Q 14.203125 13.296875 12.703125 13.296875 
Q 10.796875 13.296875 9.640625 15.25 
Q 8.5 17.203125 8.09375 19 
Q 6.40625 26.09375 5.296875 33.046875 
Q 4.203125 40 3.40625 46.90625 
Q 3.40625 48.296875 4.25 48.6875 
Q 5.09375 49.09375 6.203125 49 
Q 7.40625 48.90625 8.5 48.40625 
Q 9.59375 47.90625 9.796875 46.796875 
Q 10.203125 43.09375 10.796875 39.046875 
Q 11.40625 35 12 32.09375 
Q 12.40625 35.5 14.203125 38.703125 
Q 16 41.90625 18.640625 44.5 
Q 21.296875 47.09375 24.640625 48.890625 
Q 28 50.703125 31.5 51.296875 
Q 33 51.5 34 51.296875 
Q 35 51.09375 35.40625 50.59375 
Q 35.796875 50.09375 35.546875 49 
Q 35.296875 47.90625 34 47 
z
" id="NanumPen-Regular-114"/>
      <path d="M 26.796875 61.40625 
Q 22.40625 56.796875 19.40625 50 
Q 16.40625 43.203125 15.5 35.90625 
Q 14.703125 29.296875 16 22.9375 
Q 17.296875 16.59375 21.5 11.703125 
Q 22.59375 10.296875 23.640625 9.25 
Q 24.703125 8.203125 25.34375 7.203125 
Q 26 6.203125 26.09375 5.140625 
Q 26.203125 4.09375 25.5 2.90625 
Q 25.09375 2.203125 24.4375 2.046875 
Q 23.796875 1.90625 23.09375 2 
Q 22.40625 2.09375 21.75 2.390625 
Q 21.09375 2.703125 20.796875 2.90625 
Q 17.59375 5.09375 15.140625 8.4375 
Q 12.703125 11.796875 11.09375 15.890625 
Q 9.5 20 8.75 24.546875 
Q 8 29.09375 8.296875 33.796875 
Q 8.59375 38.59375 9.6875 43.25 
Q 10.796875 47.90625 12.59375 52 
Q 14.40625 56.09375 16.84375 59.4375 
Q 19.296875 62.796875 22.203125 64.90625 
Q 22.796875 65.40625 24.09375 65.296875 
Q 25.40625 65.203125 26.203125 64.59375 
Q 27.09375 63.90625 27.1875 62.84375 
Q 27.296875 61.796875 26.796875 61.40625 
z
" id="NanumPen-Regular-40"/>
      <path d="M 12.5 59.296875 
Q 13 48.40625 14.203125 36.75 
Q 15.40625 25.09375 16.796875 14.5 
Q 17.09375 10.09375 14.40625 10 
Q 13.796875 10 13.1875 10.453125 
Q 12.59375 10.90625 12.09375 11.59375 
Q 11.59375 12.296875 11.140625 13.09375 
Q 10.703125 13.90625 10.59375 14.5 
Q 9.796875 19.59375 9.09375 25.296875 
Q 8.40625 31 7.84375 36.75 
Q 7.296875 42.5 6.890625 48 
Q 6.5 53.5 6.40625 58.09375 
Q 6.59375 60.5 7.09375 62.140625 
Q 7.59375 63.796875 9.203125 63.703125 
Q 10.90625 63.59375 11.65625 62.34375 
Q 12.40625 61.09375 12.5 59.296875 
z
" id="NanumPen-Regular-108"/>
      <path d="M 22.796875 42.40625 
Q 22.59375 43.5 22.390625 44.5 
Q 22.203125 45.5 21.40625 45.796875 
Q 19.703125 46.296875 17.796875 45.890625 
Q 15.90625 45.5 14.296875 44.640625 
Q 12.703125 43.796875 11.59375 42.75 
Q 10.5 41.703125 10.40625 40.90625 
Q 10.09375 39.40625 11.1875 38 
Q 12.296875 36.59375 14.40625 35.203125 
Q 17.90625 33.09375 21.703125 30.890625 
Q 25.5 28.703125 28.09375 26.40625 
Q 30.703125 24.09375 31.640625 21.34375 
Q 32.59375 18.59375 31.203125 15.09375 
Q 30.09375 12.40625 27.09375 10.703125 
Q 24.09375 9 20.5 8.046875 
Q 16.90625 7.09375 13.296875 6.75 
Q 9.703125 6.40625 7.203125 6.40625 
Q 6.59375 6.40625 5.75 6.84375 
Q 4.90625 7.296875 4.15625 7.890625 
Q 3.40625 8.5 2.84375 9.140625 
Q 2.296875 9.796875 2.296875 10.296875 
Q 2.296875 12.09375 3.890625 12.796875 
Q 5.5 13.5 7.203125 13.5 
Q 9.59375 13.5 12.34375 13.75 
Q 15.09375 14 17.59375 14.546875 
Q 20.09375 15.09375 22.09375 16 
Q 24.09375 16.90625 24.90625 18.296875 
Q 25.59375 19.5 24.046875 21.140625 
Q 22.5 22.796875 19.953125 24.59375 
Q 17.40625 26.40625 14.453125 28.09375 
Q 11.5 29.796875 9.40625 31.203125 
Q 7.296875 32.59375 5.796875 34.546875 
Q 4.296875 36.5 3.90625 39.40625 
Q 3.796875 42 5 44.390625 
Q 6.203125 46.796875 8.140625 48.640625 
Q 10.09375 50.5 12.59375 51.59375 
Q 15.09375 52.703125 17.59375 52.703125 
Q 21.90625 52.5 24.703125 50.34375 
Q 27.5 48.203125 28 44 
Q 28 42.59375 27.546875 41.6875 
Q 27.09375 40.796875 26 40.59375 
Q 24.59375 40.40625 23.75 40.953125 
Q 22.90625 41.5 22.796875 42.40625 
z
" id="NanumPen-Regular-115"/>
      <path d="M 27.09375 38.203125 
Q 26.40625 37.796875 25.40625 37.9375 
Q 24.40625 38.09375 23.703125 39.203125 
Q 22.09375 41.296875 19.796875 41.296875 
Q 17.703125 41.296875 16.046875 40.34375 
Q 14.40625 39.40625 13.15625 37.84375 
Q 11.90625 36.296875 11.09375 34.390625 
Q 10.296875 32.5 10 30.59375 
Q 9.5 27.09375 11.203125 24.6875 
Q 12.90625 22.296875 16.5 22.296875 
Q 19.40625 22.203125 23.046875 23.453125 
Q 26.703125 24.703125 29.90625 26.703125 
Q 31.296875 27.296875 32.5 27.390625 
Q 33.703125 27.5 34.5 26.203125 
Q 35.5 24.59375 34 22.9375 
Q 32.5 21.296875 30 20 
Q 27.5 18.59375 24.75 17.546875 
Q 22 16.5 19.203125 16.046875 
Q 16.40625 15.59375 13.65625 16 
Q 10.90625 16.40625 8.5 17.90625 
Q 4.703125 20.5 3.890625 25.296875 
Q 3.09375 30.09375 4.59375 35.203125 
Q 5.203125 37.09375 6.296875 39.046875 
Q 7.40625 41 8.953125 42.59375 
Q 10.5 44.203125 12.390625 45.34375 
Q 14.296875 46.5 16.59375 46.90625 
Q 20.296875 47.5 23.6875 46.140625 
Q 27.09375 44.796875 28.203125 41.203125 
Q 28.40625 40.40625 28.203125 39.546875 
Q 28 38.703125 27.09375 38.203125 
z
" id="NanumPen-Regular-99"/>
      <path d="M 29.09375 49.5 
Q 29.5 46.703125 29.75 43.546875 
Q 30 40.40625 30.140625 37.203125 
Q 30.296875 34 30.296875 31 
Q 30.296875 28 30.203125 25.59375 
Q 33.40625 23.40625 34.046875 21.703125 
Q 34.703125 20 34.203125 18.703125 
Q 33.59375 16.90625 32.046875 16.84375 
Q 30.5 16.796875 28.5 17.90625 
Q 27.09375 16.90625 25.296875 15.75 
Q 23.5 14.59375 21.5 13.546875 
Q 19.5 12.5 17.5 11.703125 
Q 15.5 10.90625 13.796875 10.59375 
Q 10.59375 10.09375 8.046875 11.796875 
Q 5.5 13.5 4.59375 16.90625 
Q 4 19.203125 4.296875 21.640625 
Q 4.59375 24.09375 5.796875 26.34375 
Q 7 28.59375 9.046875 30.390625 
Q 11.09375 32.203125 13.90625 33.203125 
Q 14.59375 33.5 15.84375 33.703125 
Q 17.09375 33.90625 18.4375 33.84375 
Q 19.796875 33.796875 21.1875 33.296875 
Q 22.59375 32.796875 23.796875 31.59375 
Q 23.796875 33.296875 23.75 35.34375 
Q 23.703125 37.40625 23.59375 39.5 
Q 23.5 41.59375 23.34375 43.4375 
Q 23.203125 45.296875 23 46.59375 
Q 22.796875 48.09375 21.84375 48.4375 
Q 20.90625 48.796875 19.5 48.296875 
Q 17.09375 47.5 13.890625 45.203125 
Q 10.703125 42.90625 7.796875 40.296875 
Q 6.90625 39.40625 5.75 39.5 
Q 4.59375 39.59375 3.796875 40.40625 
Q 3 41.203125 2.890625 42.25 
Q 2.796875 43.296875 3.703125 44.5 
Q 5.40625 46.296875 7.5 48.1875 
Q 9.59375 50.09375 11.890625 51.640625 
Q 14.203125 53.203125 16.59375 54.203125 
Q 19 55.203125 21.40625 55.296875 
Q 24.90625 55.40625 26.796875 53.75 
Q 28.703125 52.09375 29.09375 49.5 
z
M 17.5 28 
Q 16.203125 27.703125 14.75 26.75 
Q 13.296875 25.796875 12.140625 24.4375 
Q 11 23.09375 10.453125 21.4375 
Q 9.90625 19.796875 10.40625 18.203125 
Q 10.59375 17.59375 11.25 17.296875 
Q 11.90625 17 12.703125 17.203125 
Q 15.09375 17.703125 18.140625 19.140625 
Q 21.203125 20.59375 23 22.296875 
Q 23 22.90625 22.390625 23.84375 
Q 21.796875 24.796875 21 25.75 
Q 20.203125 26.703125 19.25 27.390625 
Q 18.296875 28.09375 17.5 28 
z
" id="NanumPen-Regular-97"/>
      <path d="M 23.09375 48.703125 
Q 23.703125 42.296875 22.953125 35.84375 
Q 22.203125 29.40625 20.890625 23.65625 
Q 19.59375 17.90625 18 13.25 
Q 16.40625 8.59375 15.40625 5.796875 
Q 15.203125 5.296875 14.703125 4.1875 
Q 14.203125 3.09375 13.453125 2.046875 
Q 12.703125 1 11.703125 0.34375 
Q 10.703125 -0.296875 9.5 0.09375 
Q 8.5 0.40625 8.140625 1.203125 
Q 7.796875 2 7.796875 2.890625 
Q 7.796875 3.796875 8.046875 4.75 
Q 8.296875 5.703125 8.59375 6.40625 
Q 11.203125 13.296875 13 19.890625 
Q 14.796875 26.5 16.203125 34.296875 
Q 17.59375 42.296875 16.5 47.796875 
Q 15.703125 52 13.5 54.25 
Q 11.296875 56.5 7.59375 58.203125 
Q 6.09375 58.90625 5.140625 60.453125 
Q 4.203125 62 4.90625 63.59375 
Q 5.703125 64.796875 6.890625 65.046875 
Q 8.09375 65.296875 9.390625 65.046875 
Q 10.703125 64.796875 11.890625 64.1875 
Q 13.09375 63.59375 13.90625 63.203125 
Q 15.5 62.203125 17 60.890625 
Q 18.5 59.59375 19.796875 57.796875 
Q 21.09375 56 21.9375 53.75 
Q 22.796875 51.5 23.09375 48.703125 
z
" id="NanumPen-Regular-41"/>
     </defs>
     <g transform="translate(319.8675 557.755)scale(0.32 -0.32)">
      <use xlink:href="#NanumPen-Regular-78"/>
      <use x="46.099991" xlink:href="#NanumPen-Regular-111"/>
      <use x="86.499985" xlink:href="#NanumPen-Regular-100"/>
      <use x="122.199982" xlink:href="#NanumPen-Regular-101"/>
      <use x="157.299973" xlink:href="#NanumPen-Regular-32"/>
      <use x="185.299957" xlink:href="#NanumPen-Regular-100"/>
      <use x="220.999954" xlink:href="#NanumPen-Regular-101"/>
      <use x="256.099945" xlink:href="#NanumPen-Regular-103"/>
      <use x="289.999939" xlink:href="#NanumPen-Regular-114"/>
      <use x="325.899933" xlink:href="#NanumPen-Regular-101"/>
      <use x="360.999924" xlink:href="#NanumPen-Regular-101"/>
      <use x="396.099915" xlink:href="#NanumPen-Regular-32"/>
      <use x="424.099899" xlink:href="#NanumPen-Regular-40"/>
      <use x="455.099884" xlink:href="#NanumPen-Regular-108"/>
      <use x="475.999878" xlink:href="#NanumPen-Regular-111"/>
      <use x="516.399872" xlink:href="#NanumPen-Regular-103"/>
      <use x="550.299866" xlink:href="#NanumPen-Regular-32"/>
      <use x="578.29985" xlink:href="#NanumPen-Regular-115"/>
      <use x="612.199844" xlink:href="#NanumPen-Regular-99"/>
      <use x="648.399841" xlink:href="#NanumPen-Regular-97"/>
      <use x="684.299835" xlink:href="#NanumPen-Regular-108"/>
      <use x="705.199829" xlink:href="#NanumPen-Regular-101"/>
      <use x="740.29982" xlink:href="#NanumPen-Regular-41"/>
     </g>
    </g>
   </g>
   <g id="matplotlib.axis_2">
    <g id="ytick_1">
     <g id="text_6">
      <!-- 1 -->
      <g transform="translate(94.92 494.450951)scale(0.32 -0.32)">
       <use xlink:href="#NanumPen-Regular-49"/>
      </g>
     </g>
    </g>
    <g id="ytick_2">
     <g id="text_7">
      <!-- 10 -->
      <g transform="translate(83.465 356.076467)scale(0.32 -0.32)">
       <use xlink:href="#NanumPen-Regular-49"/>
       <use x="18.999985" xlink:href="#NanumPen-Regular-48"/>
      </g>
     </g>
    </g>
    <g id="ytick_3">
     <g id="text_8">
      <!-- 100 -->
      <g transform="translate(72.01 217.701984)scale(0.32 -0.32)">
       <use xlink:href="#NanumPen-Regular-49"/>
       <use x="18.999985" xlink:href="#NanumPen-Regular-48"/>
       <use x="54.799973" xlink:href="#NanumPen-Regular-48"/>
      </g>
     </g>
    </g>
    <g id="ytick_4">
     <g id="text_9">
      <!-- 1000 -->
      <g transform="translate(60.555 79.3275)scale(0.32 -0.32)">
       <use xlink:href="#NanumPen-Regular-49"/>
       <use x="18.999985" xlink:href="#NanumPen-Regular-48"/>
       <use x="54.799973" xlink:href="#NanumPen-Regular-48"/>
       <use x="90.59996" xlink:href="#NanumPen-Regular-48"/>
      </g>
     </g>
    </g>
    <g id="ytick_5"/>
    <g id="ytick_6"/>
    <g id="ytick_7"/>
    <g id="ytick_8"/>
    <g id="ytick_9"/>
    <g id="ytick_10"/>
    <g id="ytick_11"/>
    <g id="ytick_12"/>
    <g id="ytick_13"/>
    <g id="ytick_14"/>
    <g id="ytick_15"/>
    <g id="ytick_16"/>
    <g id="ytick_17"/>
    <g id="ytick_18"/>
    <g id="ytick_19"/>
    <g id="ytick_20"/>
    <g id="ytick_21"/>
    <g id="ytick_22"/>
    <g id="ytick_23"/>
    <g id="ytick_24"/>
    <g id="ytick_25"/>
    <g id="ytick_26"/>
    <g id="ytick_27"/>
    <g id="ytick_28"/>
    <g id="ytick_29"/>
    <g id="ytick_30"/>
    <g id="text_10">
     <!-- Frequency (log scale) -->
     <defs>
      <path d="M 35.203125 55.59375 
Q 35 55 33.796875 54.203125 
Q 32.59375 53.40625 31.796875 53.40625 
Q 27.5 53.796875 23.25 54.09375 
Q 19 54.40625 14.59375 54.5 
Q 15.203125 51 15.75 47.5 
Q 16.296875 44 16.796875 40.5 
Q 25.296875 40.796875 33.59375 41.40625 
Q 35 41.40625 36.390625 40.5 
Q 37.796875 39.59375 37.796875 38.796875 
Q 37.796875 37.703125 36.890625 36.84375 
Q 36 36 34.703125 35.796875 
Q 30.5 35.09375 26.25 34.75 
Q 22 34.40625 17.59375 34.203125 
Q 18.09375 30.703125 18.4375 27.25 
Q 18.796875 23.796875 19.09375 20.40625 
Q 19.296875 19 18.84375 17.453125 
Q 18.40625 15.90625 17.40625 15.90625 
Q 16.5 15.90625 15.703125 16.40625 
Q 14.90625 16.90625 14.25 17.546875 
Q 13.59375 18.203125 13.1875 19 
Q 12.796875 19.796875 12.703125 20.40625 
Q 11.703125 29 10.546875 37.5 
Q 9.40625 46 8 54.59375 
L 4.703125 54.59375 
Q 3.296875 54.59375 2.09375 54.890625 
Q 0.90625 55.203125 0.296875 56.40625 
Q 0.09375 56.703125 0.046875 57.390625 
Q 0 58.09375 0.140625 58.796875 
Q 0.296875 59.5 0.6875 60.09375 
Q 1.09375 60.703125 1.796875 60.90625 
Q 5.703125 61.5 10.140625 61.390625 
Q 14.59375 61.296875 18.84375 60.84375 
Q 23.09375 60.40625 26.84375 59.59375 
Q 30.59375 58.796875 33.296875 57.90625 
Q 35 56.90625 35.203125 55.59375 
z
" id="NanumPen-Regular-70"/>
      <path d="M 6 20.5 
Q 4.5 21.59375 3.640625 23.5 
Q 2.796875 25.40625 2.6875 27.65625 
Q 2.59375 29.90625 3.25 32.34375 
Q 3.90625 34.796875 5.5 37.203125 
Q 8.09375 41.09375 11.796875 44.59375 
Q 15.5 48.09375 19.90625 49.5 
Q 21.90625 50 23.5 49.40625 
Q 23.796875 51 25.90625 51.09375 
Q 27.203125 51.203125 28.296875 50.25 
Q 29.40625 49.296875 30.203125 47.90625 
Q 31 43.703125 31.84375 37.25 
Q 32.703125 30.796875 33.546875 23.84375 
Q 34.40625 16.90625 35.046875 10.25 
Q 35.703125 3.59375 36 -1.09375 
Q 35.90625 -2.203125 35.25 -3.25 
Q 34.59375 -4.296875 33.296875 -4.09375 
Q 31.203125 -4 30.5 -2.59375 
Q 29.796875 -1.203125 29.296875 1 
Q 28.796875 6.59375 28.1875 12.09375 
Q 27.59375 17.59375 26.796875 23.09375 
Q 24.40625 22 21.59375 20.84375 
Q 18.796875 19.703125 16 19.09375 
Q 13.203125 18.5 10.59375 18.75 
Q 8 19 6 20.5 
z
M 8.703125 27.796875 
Q 8.5 26.703125 9 25.84375 
Q 9.5 25 11.09375 25.296875 
Q 14.90625 25.796875 18.546875 27.140625 
Q 22.203125 28.5 25.796875 30.796875 
Q 25.296875 34 24.890625 37.203125 
Q 24.5 40.40625 24 43.59375 
Q 21.296875 43.09375 18.6875 41.390625 
Q 16.09375 39.703125 14 37.453125 
Q 11.90625 35.203125 10.5 32.59375 
Q 9.09375 30 8.703125 27.796875 
z
" id="NanumPen-Regular-113"/>
      <path d="M 12.703125 42.09375 
Q 12.09375 39.40625 11.5 36.15625 
Q 10.90625 32.90625 10.65625 29.90625 
Q 10.40625 26.90625 10.65625 24.5 
Q 10.90625 22.09375 11.90625 21.09375 
Q 13.59375 20.796875 15.796875 22.546875 
Q 18 24.296875 20.09375 27 
Q 22.203125 29.703125 23.890625 32.84375 
Q 25.59375 36 26.296875 38.40625 
Q 26.703125 39.59375 27 40.890625 
Q 27.296875 42.203125 27.296875 43.59375 
Q 27.296875 44.40625 28.34375 45.15625 
Q 29.40625 45.90625 30.09375 46 
Q 30.59375 46.09375 31.25 45.796875 
Q 31.90625 45.5 32.453125 44.953125 
Q 33 44.40625 33.453125 43.65625 
Q 33.90625 42.90625 33.90625 42.09375 
Q 34.09375 39.09375 34.5 35.5 
Q 34.90625 31.90625 35.453125 28.296875 
Q 36 24.703125 36.59375 21.296875 
Q 37.203125 17.90625 37.796875 15.203125 
Q 38.09375 14.09375 37.1875 12.6875 
Q 36.296875 11.296875 35.203125 11 
Q 34.296875 10.796875 33.34375 11.1875 
Q 32.40625 11.59375 31.90625 12.796875 
Q 31.40625 14.203125 30.953125 16.25 
Q 30.5 18.296875 30.140625 20.546875 
Q 29.796875 22.796875 29.5 24.84375 
Q 29.203125 26.90625 29.09375 28.296875 
Q 27.59375 25.59375 25.546875 22.84375 
Q 23.5 20.09375 21.140625 17.84375 
Q 18.796875 15.59375 16.25 14.34375 
Q 13.703125 13.09375 11 13.40625 
Q 7 13.90625 4.90625 20.90625 
Q 4.09375 23.703125 4.140625 27.09375 
Q 4.203125 30.5 4.640625 33.84375 
Q 5.09375 37.203125 5.75 40.203125 
Q 6.40625 43.203125 6.90625 45.09375 
Q 7.09375 45.90625 7.6875 46.546875 
Q 8.296875 47.203125 9.09375 47 
Q 10.59375 46.703125 11.84375 45.203125 
Q 13.09375 43.703125 12.703125 42.09375 
z
" id="NanumPen-Regular-117"/>
      <path d="M 10.5 45.5 
Q 10.796875 44 11.140625 42.140625 
Q 11.5 40.296875 11.890625 38.34375 
Q 12.296875 36.40625 12.59375 34.40625 
Q 12.90625 32.40625 13.09375 30.59375 
Q 14.296875 33.203125 15.6875 36.09375 
Q 17.09375 39 18.75 41.453125 
Q 20.40625 43.90625 22.25 45.5 
Q 24.09375 47.09375 26.296875 47.09375 
Q 29.59375 47.09375 31.84375 44.6875 
Q 34.09375 42.296875 35.640625 38.75 
Q 37.203125 35.203125 38.09375 31.296875 
Q 39 27.40625 39.59375 24.40625 
Q 40.203125 21.703125 37.203125 20.40625 
Q 35.796875 19.703125 35.09375 20.203125 
Q 34.40625 20.703125 34.296875 21.203125 
Q 33.796875 22.40625 33.046875 25.40625 
Q 32.296875 28.40625 31.34375 31.5 
Q 30.40625 34.59375 29.203125 36.890625 
Q 28 39.203125 26.5 39 
Q 24.703125 38.90625 23.296875 36.296875 
Q 22.09375 34.203125 20.84375 31.640625 
Q 19.59375 29.09375 18.390625 26.4375 
Q 17.203125 23.796875 16.046875 21.140625 
Q 14.90625 18.5 13.90625 16.296875 
Q 13.203125 15.59375 12.140625 15.34375 
Q 11.09375 15.09375 10 15.5 
Q 9 15.796875 8.390625 16.5 
Q 7.796875 17.203125 7.796875 17.90625 
Q 6.90625 25.703125 5.953125 32.09375 
Q 5 38.5 3.5 45.203125 
Q 2.796875 47.5 3.25 48.84375 
Q 3.703125 50.203125 6.203125 49.90625 
Q 9.703125 49.296875 10.5 45.5 
z
" id="NanumPen-Regular-110"/>
      <path d="M 35.09375 44 
Q 35.40625 38.59375 35.75 33.09375 
Q 36.09375 27.59375 35.890625 22.25 
Q 35.703125 16.90625 34.84375 11.796875 
Q 34 6.703125 32 2.046875 
Q 30 -2.59375 26.640625 -6.59375 
Q 23.296875 -10.59375 18.203125 -13.796875 
Q 17.40625 -14.296875 16.453125 -14.390625 
Q 15.5 -14.5 14.59375 -14.34375 
Q 13.703125 -14.203125 13 -13.84375 
Q 12.296875 -13.5 12.09375 -12.90625 
Q 11.796875 -12 12.390625 -10.890625 
Q 13 -9.796875 14.40625 -8.59375 
Q 18.796875 -5.296875 21.796875 -1.59375 
Q 24.796875 2.09375 26.59375 6.390625 
Q 28.40625 10.703125 28.953125 15.75 
Q 29.5 20.796875 28.90625 26.796875 
Q 27.703125 25.296875 26.09375 23.6875 
Q 24.5 22.09375 22.703125 20.84375 
Q 20.90625 19.59375 19 18.75 
Q 17.09375 17.90625 15.40625 17.90625 
Q 14 17.90625 12.59375 18.5 
Q 11.203125 19.09375 9.796875 20.796875 
Q 8.203125 22.90625 6.953125 25.546875 
Q 5.703125 28.203125 4.796875 30.703125 
Q 3.90625 33.203125 3.34375 35.203125 
Q 2.796875 37.203125 2.703125 38 
Q 2.5 39 2.703125 39.890625 
Q 2.90625 40.796875 4 41 
Q 5.5 41.296875 6.796875 40.796875 
Q 8.09375 40.296875 8.59375 39.203125 
Q 9 38.09375 9.703125 35.796875 
Q 10.40625 33.5 11.40625 31.25 
Q 12.40625 29 13.546875 27.296875 
Q 14.703125 25.59375 16 25.59375 
Q 17.5 25.59375 19.546875 27.09375 
Q 21.59375 28.59375 23.5 31 
Q 25.40625 33.40625 26.75 36.34375 
Q 28.09375 39.296875 28.09375 42.09375 
Q 28.09375 42.703125 28.296875 43.5 
Q 28.5 44.296875 28.890625 45.046875 
Q 29.296875 45.796875 29.84375 46.34375 
Q 30.40625 46.90625 31 47 
Q 32.59375 47.203125 33.84375 46.140625 
Q 35.09375 45.09375 35.09375 44 
z
" id="NanumPen-Regular-121"/>
     </defs>
     <g transform="translate(51.785 401.43)rotate(-90)scale(0.32 -0.32)">
      <use xlink:href="#NanumPen-Regular-70"/>
      <use x="38.999985" xlink:href="#NanumPen-Regular-114"/>
      <use x="74.899979" xlink:href="#NanumPen-Regular-101"/>
      <use x="109.999969" xlink:href="#NanumPen-Regular-113"/>
      <use x="150.399963" xlink:href="#NanumPen-Regular-117"/>
      <use x="191.399948" xlink:href="#NanumPen-Regular-101"/>
      <use x="226.499939" xlink:href="#NanumPen-Regular-110"/>
      <use x="268.899933" xlink:href="#NanumPen-Regular-99"/>
      <use x="305.09993" xlink:href="#NanumPen-Regular-121"/>
      <use x="345.699921" xlink:href="#NanumPen-Regular-32"/>
      <use x="373.699905" xlink:href="#NanumPen-Regular-40"/>
      <use x="404.69989" xlink:href="#NanumPen-Regular-108"/>
      <use x="425.599884" xlink:href="#NanumPen-Regular-111"/>
      <use x="465.999878" xlink:href="#NanumPen-Regular-103"/>
      <use x="499.899872" xlink:href="#NanumPen-Regular-32"/>
      <use x="527.899857" xlink:href="#NanumPen-Regular-115"/>
      <use x="561.79985" xlink:href="#NanumPen-Regular-99"/>
      <use x="597.999847" xlink:href="#NanumPen-Regular-97"/>
      <use x="633.899841" xlink:href="#NanumPen-Regular-108"/>
      <use x="654.799835" xlink:href="#NanumPen-Regular-101"/>
      <use x="689.899826" xlink:href="#NanumPen-Regular-41"/>
     </g>
    </g>
   </g>
   <g id="line2d_1">
    <defs>
     <path d="M 0 3 
C 0.795609 3 1.55874 2.683901 2.12132 2.12132 
C 2.683901 1.55874 3 0.795609 3 0 
C 3 -0.795609 2.683901 -1.55874 2.12132 -2.12132 
C 1.55874 -2.683901 0.795609 -3 0 -3 
C -0.795609 -3 -1.55874 -2.683901 -2.12132 -2.12132 
C -2.683901 -1.55874 -3 -0.795609 -3 0 
C -3 0.795609 -2.683901 1.55874 -2.12132 2.12132 
C -1.55874 2.683901 -0.795609 3 0 3 
z
" id="m3451397db6" style="stroke:#708090;"/>
    </defs>
    <g clip-path="url(#pbd1ff10b18)">
     <use style="fill:#708090;stroke:#708090;" x="137.014983" xlink:href="#m3451397db6" y="89.112462"/>
     <use style="fill:#708090;stroke:#708090;" x="201.293418" xlink:href="#m3451397db6" y="127.425582"/>
     <use style="fill:#708090;stroke:#708090;" x="238.893892" xlink:href="#m3451397db6" y="144.345069"/>
     <use style="fill:#708090;stroke:#708090;" x="265.571853" xlink:href="#m3451397db6" y="187.274092"/>
     <use style="fill:#708090;stroke:#708090;" x="286.264887" xlink:href="#m3451397db6" y="195.544487"/>
     <use style="fill:#708090;stroke:#708090;" x="303.172327" xlink:href="#m3451397db6" y="251.602563"/>
     <use style="fill:#708090;stroke:#708090;" x="317.467364" xlink:href="#m3451397db6" y="275.9691"/>
     <use style="fill:#708090;stroke:#708090;" x="329.850288" xlink:href="#m3451397db6" y="313.980717"/>
     <use style="fill:#708090;stroke:#708090;" x="340.772801" xlink:href="#m3451397db6" y="317.62397"/>
     <use style="fill:#708090;stroke:#708090;" x="350.543322" xlink:href="#m3451397db6" y="307.296581"/>
     <use style="fill:#708090;stroke:#708090;" x="359.381834" xlink:href="#m3451397db6" y="334.912303"/>
     <use style="fill:#708090;stroke:#708090;" x="367.450762" xlink:href="#m3451397db6" y="334.912303"/>
     <use style="fill:#708090;stroke:#708090;" x="374.873457" xlink:href="#m3451397db6" y="334.912303"/>
     <use style="fill:#708090;stroke:#708090;" x="381.745799" xlink:href="#m3451397db6" y="418.222043"/>
     <use style="fill:#708090;stroke:#708090;" x="388.143796" xlink:href="#m3451397db6" y="418.222043"/>
     <use style="fill:#708090;stroke:#708090;" x="394.128723" xlink:href="#m3451397db6" y="387.523837"/>
     <use style="fill:#708090;stroke:#708090;" x="399.750698" xlink:href="#m3451397db6" y="442.58858"/>
     <use style="fill:#708090;stroke:#708090;" x="405.051236" xlink:href="#m3451397db6" y="484.243451"/>
     <use style="fill:#708090;stroke:#708090;" x="410.065116" xlink:href="#m3451397db6" y="484.243451"/>
     <use style="fill:#708090;stroke:#708090;" x="419.346273" xlink:href="#m3451397db6" y="484.243451"/>
     <use style="fill:#708090;stroke:#708090;" x="427.782466" xlink:href="#m3451397db6" y="484.243451"/>
     <use style="fill:#708090;stroke:#708090;" x="431.729197" xlink:href="#m3451397db6" y="442.58858"/>
     <use style="fill:#708090;stroke:#708090;" x="435.514791" xlink:href="#m3451397db6" y="442.58858"/>
     <use style="fill:#708090;stroke:#708090;" x="439.151892" xlink:href="#m3451397db6" y="442.58858"/>
     <use style="fill:#708090;stroke:#708090;" x="442.65171" xlink:href="#m3451397db6" y="484.243451"/>
     <use style="fill:#708090;stroke:#708090;" x="449.278399" xlink:href="#m3451397db6" y="484.243451"/>
     <use style="fill:#708090;stroke:#708090;" x="461.260743" xlink:href="#m3451397db6" y="442.58858"/>
     <use style="fill:#708090;stroke:#708090;" x="464.029133" xlink:href="#m3451397db6" y="442.58858"/>
     <use style="fill:#708090;stroke:#708090;" x="469.329671" xlink:href="#m3451397db6" y="484.243451"/>
     <use style="fill:#708090;stroke:#708090;" x="591.212138" xlink:href="#m3451397db6" y="484.243451"/>
     <use style="fill:#708090;stroke:#708090;" x="476.752366" xlink:href="#m3451397db6" y="418.222043"/>
     <use style="fill:#708090;stroke:#708090;" x="481.390041" xlink:href="#m3451397db6" y="484.243451"/>
     <use style="fill:#708090;stroke:#708090;" x="485.806789" xlink:href="#m3451397db6" y="484.243451"/>
     <use style="fill:#708090;stroke:#708090;" x="665.95057" xlink:href="#m3451397db6" y="484.243451"/>
     <use style="fill:#708090;stroke:#708090;" x="490.022705" xlink:href="#m3451397db6" y="442.58858"/>
     <use style="fill:#708090;stroke:#708090;" x="492.060901" xlink:href="#m3451397db6" y="484.243451"/>
     <use style="fill:#708090;stroke:#708090;" x="494.055261" xlink:href="#m3451397db6" y="484.243451"/>
     <use style="fill:#708090;stroke:#708090;" x="616.495573" xlink:href="#m3451397db6" y="484.243451"/>
     <use style="fill:#708090;stroke:#708090;" x="497.919745" xlink:href="#m3451397db6" y="484.243451"/>
     <use style="fill:#708090;stroke:#708090;" x="499.793226" xlink:href="#m3451397db6" y="484.243451"/>
     <use style="fill:#708090;stroke:#708090;" x="511.944025" xlink:href="#m3451397db6" y="484.243451"/>
     <use style="fill:#708090;stroke:#708090;" x="516.700666" xlink:href="#m3451397db6" y="484.243451"/>
     <use style="fill:#708090;stroke:#708090;" x="518.233497" xlink:href="#m3451397db6" y="484.243451"/>
     <use style="fill:#708090;stroke:#708090;" x="717.314651" xlink:href="#m3451397db6" y="484.243451"/>
     <use style="fill:#708090;stroke:#708090;" x="532.311103" xlink:href="#m3451397db6" y="484.243451"/>
     <use style="fill:#708090;stroke:#708090;" x="543.378627" xlink:href="#m3451397db6" y="484.243451"/>
     <use style="fill:#708090;stroke:#708090;" x="545.668476" xlink:href="#m3451397db6" y="484.243451"/>
     <use style="fill:#708090;stroke:#708090;" x="546.792541" xlink:href="#m3451397db6" y="484.243451"/>
     <use style="fill:#708090;stroke:#708090;" x="639.683848" xlink:href="#m3451397db6" y="484.243451"/>
     <use style="fill:#708090;stroke:#708090;" x="622.612131" xlink:href="#m3451397db6" y="484.243451"/>
     <use style="fill:#708090;stroke:#708090;" x="643.698942" xlink:href="#m3451397db6" y="484.243451"/>
     <use style="fill:#708090;stroke:#708090;" x="572.063279" xlink:href="#m3451397db6" y="484.243451"/>
     <use style="fill:#708090;stroke:#708090;" x="584.764695" xlink:href="#m3451397db6" y="484.243451"/>
    </g>
   </g>
   <g id="patch_3">
    <path d="M 108 504 
L 108 69.12 
" style="fill:none;stroke:#000000;stroke-linecap:square;stroke-linejoin:miter;stroke-width:0.8;"/>
   </g>
   <g id="patch_4">
    <path d="M 108 504 
L 777.6 504 
" style="fill:none;stroke:#000000;stroke-linecap:square;stroke-linejoin:miter;stroke-width:0.8;"/>
   </g>
  </g>
 </g>
 <defs>
  <clipPath id="pbd1ff10b18">
   <rect height="434.88" width="669.6" x="108" y="69.12"/>
  </clipPath>
 </defs>
</svg>
