<?xml version="1.0" encoding="utf-8" standalone="no"?>
<!DOCTYPE svg PUBLIC "-//W3C//DTD SVG 1.1//EN"
  "http://www.w3.org/Graphics/SVG/1.1/DTD/svg11.dtd">
<!-- Created with matplotlib (https://matplotlib.org/) -->
<svg height="576pt" version="1.1" viewBox="0 0 864 576" width="864pt" xmlns="http://www.w3.org/2000/svg" xmlns:xlink="http://www.w3.org/1999/xlink">
 <defs>
  <style type="text/css">
*{stroke-linecap:butt;stroke-linejoin:round;}
  </style>
 </defs>
 <g id="figure_1">
  <g id="patch_1">
   <path d="M 0 576 
L 864 576 
L 864 0 
L 0 0 
z
" style="fill:#ffffff;"/>
  </g>
  <g id="axes_1">
   <g id="patch_2">
    <path d="M 108 504 
L 777.6 504 
L 777.6 69.12 
L 108 69.12 
z
" style="fill:#ffffff;"/>
   </g>
   <g id="matplotlib.axis_1">
    <g id="xtick_1">
     <g id="text_1">
      <!-- 0.0 -->
      <defs>
       <path d="M 32.40625 41.90625 
Q 32.40625 39.59375 31.65625 36.25 
Q 30.90625 32.90625 29.203125 29.5 
Q 27.5 26.09375 24.75 23.09375 
Q 22 20.09375 18 18.5 
Q 15.5 17.40625 13.046875 17.34375 
Q 10.59375 17.296875 8.640625 18.296875 
Q 6.703125 19.296875 5.390625 21.34375 
Q 4.09375 23.40625 3.796875 26.703125 
Q 3.5 30.59375 4.453125 34.546875 
Q 5.40625 38.5 7.453125 41.953125 
Q 9.5 45.40625 12.390625 48.09375 
Q 15.296875 50.796875 18.90625 52.40625 
Q 19.703125 52.796875 20.453125 52.34375 
Q 21.203125 51.90625 21.40625 50.5 
Q 26.59375 50 29.5 47.75 
Q 32.40625 45.5 32.40625 41.90625 
z
M 10.59375 26.90625 
Q 10.796875 25.5 11.390625 24.890625 
Q 12 24.296875 12.796875 24.09375 
Q 13.59375 24 14.59375 24.296875 
Q 15.59375 24.59375 16.546875 25.046875 
Q 17.5 25.5 18.296875 26.046875 
Q 19.09375 26.59375 19.59375 27.09375 
Q 22.40625 29.703125 24.09375 33.453125 
Q 25.796875 37.203125 26.203125 41.703125 
Q 26.203125 42.296875 25.390625 42.890625 
Q 24.59375 43.5 23.34375 43.84375 
Q 22.09375 44.203125 20.59375 44.390625 
Q 19.09375 44.59375 17.703125 44.5 
Q 16.203125 42.796875 14.796875 40.796875 
Q 13.40625 38.796875 12.40625 36.546875 
Q 11.40625 34.296875 10.90625 31.84375 
Q 10.40625 29.40625 10.59375 26.90625 
z
" id="NanumPen-Regular-48"/>
       <path d="M 11.90625 14.09375 
Q 12.40625 10.5 8.90625 10 
Q 7.09375 9.796875 5.9375 11 
Q 4.796875 12.203125 4.5 13.90625 
Q 4.203125 15.703125 4.75 17.390625 
Q 5.296875 19.09375 6.90625 19.296875 
Q 8.90625 19.59375 10.296875 17.84375 
Q 11.703125 16.09375 11.90625 14.09375 
z
" id="NanumPen-Regular-46"/>
      </defs>
      <g style="fill:#262626;" transform="translate(123.796364 533.915)scale(0.32 -0.32)">
       <use xlink:href="#NanumPen-Regular-48"/>
       <use x="35.799988" xlink:href="#NanumPen-Regular-46"/>
       <use x="55.699982" xlink:href="#NanumPen-Regular-48"/>
      </g>
     </g>
    </g>
    <g id="xtick_2">
     <g id="text_2">
      <!-- 2.5 -->
      <defs>
       <path d="M 25.90625 50.90625 
Q 27.203125 46.703125 25.796875 43 
Q 25 41 23.703125 38.59375 
Q 22.40625 36.203125 20.796875 33.75 
Q 19.203125 31.296875 17.5 29.046875 
Q 15.796875 26.796875 14.40625 25 
Q 16.203125 25.203125 18.84375 25.546875 
Q 21.5 25.90625 24.34375 26.296875 
Q 27.203125 26.703125 29.953125 27.046875 
Q 32.703125 27.40625 34.90625 27.59375 
Q 36 27.703125 37.453125 27.390625 
Q 38.90625 27.09375 39.40625 26.90625 
Q 40 26.59375 39.84375 25.84375 
Q 39.703125 25.09375 39.203125 24.296875 
Q 38.703125 23.5 38.046875 22.84375 
Q 37.40625 22.203125 37 22.203125 
Q 33.796875 21.703125 29.9375 21.09375 
Q 26.09375 20.5 22.1875 19.890625 
Q 18.296875 19.296875 14.546875 18.75 
Q 10.796875 18.203125 7.796875 17.90625 
Q 6.40625 17.703125 5.453125 19 
Q 4.5 20.296875 4.296875 21.703125 
Q 4.296875 21.90625 4.390625 22.40625 
Q 4.5 22.90625 5.59375 24 
Q 9.796875 28.703125 13.84375 34.34375 
Q 17.90625 40 20.203125 45.59375 
Q 20.5 46.40625 20.390625 47.15625 
Q 20.296875 47.90625 20 48.09375 
Q 19.5 48.5 18.75 48.546875 
Q 18 48.59375 17 48.5 
Q 15.59375 48.40625 14.09375 48 
Q 12.59375 47.59375 11.140625 47.09375 
Q 9.703125 46.59375 8.5 46.046875 
Q 7.296875 45.5 6.40625 45.09375 
Q 5.203125 44.5 4.390625 44.59375 
Q 3.59375 44.703125 3.046875 45.046875 
Q 2.5 45.40625 2.203125 45.796875 
Q 1.90625 46.203125 1.90625 46.40625 
Q 1.796875 46.90625 2 47.703125 
Q 2.203125 48.5 2.40625 49 
Q 3.296875 50.09375 5.25 51.296875 
Q 7.203125 52.5 9.75 53.34375 
Q 12.296875 54.203125 15.140625 54.59375 
Q 18 55 20.90625 54.59375 
Q 22.796875 54.09375 24.046875 53.09375 
Q 25.296875 52.09375 25.90625 50.90625 
z
" id="NanumPen-Regular-50"/>
       <path d="M 10.09375 36.90625 
Q 12.90625 36.90625 15.90625 37.09375 
Q 18.90625 37.296875 21.59375 36.703125 
Q 25.09375 35.90625 26.796875 33.203125 
Q 28.5 30.5 27.296875 27 
Q 26.40625 24.5 24.796875 22.203125 
Q 23.203125 19.90625 21.140625 17.90625 
Q 19.09375 15.90625 16.84375 14.09375 
Q 14.59375 12.296875 12.5 10.703125 
Q 11.09375 9.796875 9.59375 10.34375 
Q 8.09375 10.90625 7.296875 11.90625 
Q 5.296875 14.203125 7.90625 14.796875 
Q 13 18.59375 16.703125 22.34375 
Q 20.40625 26.09375 22.203125 30 
Q 22.40625 30.703125 21.09375 30.890625 
Q 19.796875 31.09375 17.84375 31 
Q 15.90625 30.90625 13.59375 30.703125 
Q 11.296875 30.5 9.5 30.296875 
Q 8.90625 30.203125 8 30.296875 
Q 7.09375 30.40625 6.1875 30.796875 
Q 5.296875 31.203125 4.6875 31.953125 
Q 4.09375 32.703125 4.09375 33.90625 
Q 4.40625 41.796875 5.34375 49.59375 
Q 6.296875 57.40625 7.40625 63.90625 
Q 7.59375 64.90625 8.34375 65.09375 
Q 9.09375 65.296875 9.90625 65 
Q 11.59375 64.203125 12.4375 62.953125 
Q 13.296875 61.703125 13.09375 60.59375 
Q 12.703125 58.59375 12.34375 56.390625 
Q 12 54.203125 11.703125 51.90625 
Q 17.09375 52.40625 21.84375 52.453125 
Q 26.59375 52.5 30.5 52 
Q 31.796875 51.796875 33.140625 51.546875 
Q 34.5 51.296875 36 50.796875 
Q 37.09375 50.59375 37.6875 49.546875 
Q 38.296875 48.5 37.5 47.796875 
Q 35.796875 47 34.640625 46.640625 
Q 33.5 46.296875 33.296875 46.296875 
Q 21.203125 46.90625 10.90625 45.296875 
Q 10.703125 43 10.5 40.84375 
Q 10.296875 38.703125 10.09375 36.90625 
z
" id="NanumPen-Regular-53"/>
      </defs>
      <g style="fill:#262626;" transform="translate(198.974773 533.915)scale(0.32 -0.32)">
       <use xlink:href="#NanumPen-Regular-50"/>
       <use x="38.999985" xlink:href="#NanumPen-Regular-46"/>
       <use x="58.899979" xlink:href="#NanumPen-Regular-53"/>
      </g>
     </g>
    </g>
    <g id="xtick_3">
     <g id="text_3">
      <!-- 5.0 -->
      <g style="fill:#262626;" transform="translate(275.578182 533.915)scale(0.32 -0.32)">
       <use xlink:href="#NanumPen-Regular-53"/>
       <use x="38.299988" xlink:href="#NanumPen-Regular-46"/>
       <use x="58.199982" xlink:href="#NanumPen-Regular-48"/>
      </g>
     </g>
    </g>
    <g id="xtick_4">
     <g id="text_4">
      <!-- 7.5 -->
      <defs>
       <path d="M 30.796875 44.59375 
Q 28.296875 36 26.09375 27.453125 
Q 23.90625 18.90625 21.796875 11.40625 
Q 21.40625 9.796875 20.09375 8.9375 
Q 18.796875 8.09375 17.796875 8.5 
Q 17.296875 8.703125 16.890625 9.390625 
Q 16.5 10.09375 16.25 11.046875 
Q 16 12 15.953125 13.046875 
Q 15.90625 14.09375 16 15 
Q 17.703125 21.296875 19.953125 29.546875 
Q 22.203125 37.796875 24.796875 46.203125 
Q 22.40625 46 19.796875 45.75 
Q 17.203125 45.5 14.703125 45.296875 
Q 12.203125 45.09375 10 44.890625 
Q 7.796875 44.703125 6.203125 44.5 
Q 4.5 44.5 3.046875 46.09375 
Q 1.59375 47.703125 1.59375 49.40625 
Q 1.59375 49.90625 2.09375 50.25 
Q 2.59375 50.59375 3.09375 50.703125 
Q 5.703125 51.09375 9 51.390625 
Q 12.296875 51.703125 15.6875 51.953125 
Q 19.09375 52.203125 22.34375 52.390625 
Q 25.59375 52.59375 28.09375 52.59375 
Q 28.703125 52.59375 29.453125 52.140625 
Q 30.203125 51.703125 30.796875 51 
Q 31.40625 50.296875 31.796875 49.5 
Q 32.203125 48.703125 32.203125 48.09375 
z
" id="NanumPen-Regular-55"/>
      </defs>
      <g style="fill:#262626;" transform="translate(351.956591 533.915)scale(0.32 -0.32)">
       <use xlink:href="#NanumPen-Regular-55"/>
       <use x="33.999985" xlink:href="#NanumPen-Regular-46"/>
       <use x="53.899979" xlink:href="#NanumPen-Regular-53"/>
      </g>
     </g>
    </g>
    <g id="xtick_5">
     <g id="text_5">
      <!-- 10.0 -->
      <defs>
       <path d="M 10.5 13.40625 
Q 8.703125 14.90625 7.890625 17.046875 
Q 7.09375 19.203125 7.09375 19.90625 
Q 5.703125 36 8.40625 51.40625 
Q 8.90625 53.5 9.5 55.203125 
Q 10.09375 56.90625 10.703125 56.90625 
Q 11.40625 56.90625 12.203125 56.5 
Q 13 56.09375 13.59375 55.5 
Q 14.203125 54.90625 14.546875 54.203125 
Q 14.90625 53.5 14.90625 52.90625 
Q 12.90625 43.09375 12.75 33.34375 
Q 12.59375 23.59375 13.203125 13.90625 
Q 13.203125 12.90625 12.296875 12.703125 
Q 11.796875 12.59375 11.34375 12.84375 
Q 10.90625 13.09375 10.5 13.40625 
z
" id="NanumPen-Regular-49"/>
      </defs>
      <g style="fill:#262626;" transform="translate(425.12 533.915)scale(0.32 -0.32)">
       <use xlink:href="#NanumPen-Regular-49"/>
       <use x="18.999985" xlink:href="#NanumPen-Regular-48"/>
       <use x="54.799973" xlink:href="#NanumPen-Regular-46"/>
       <use x="74.699966" xlink:href="#NanumPen-Regular-48"/>
      </g>
     </g>
    </g>
    <g id="xtick_6">
     <g id="text_6">
      <!-- 12.5 -->
      <g style="fill:#262626;" transform="translate(500.298409 533.915)scale(0.32 -0.32)">
       <use xlink:href="#NanumPen-Regular-49"/>
       <use x="18.999985" xlink:href="#NanumPen-Regular-50"/>
       <use x="57.999969" xlink:href="#NanumPen-Regular-46"/>
       <use x="77.899963" xlink:href="#NanumPen-Regular-53"/>
      </g>
     </g>
    </g>
    <g id="xtick_7">
     <g id="text_7">
      <!-- 15.0 -->
      <g style="fill:#262626;" transform="translate(576.901818 533.915)scale(0.32 -0.32)">
       <use xlink:href="#NanumPen-Regular-49"/>
       <use x="18.999985" xlink:href="#NanumPen-Regular-53"/>
       <use x="57.299973" xlink:href="#NanumPen-Regular-46"/>
       <use x="77.199966" xlink:href="#NanumPen-Regular-48"/>
      </g>
     </g>
    </g>
    <g id="xtick_8">
     <g id="text_8">
      <!-- 17.5 -->
      <g style="fill:#262626;" transform="translate(653.280227 533.915)scale(0.32 -0.32)">
       <use xlink:href="#NanumPen-Regular-49"/>
       <use x="18.999985" xlink:href="#NanumPen-Regular-55"/>
       <use x="52.999969" xlink:href="#NanumPen-Regular-46"/>
       <use x="72.899963" xlink:href="#NanumPen-Regular-53"/>
      </g>
     </g>
    </g>
    <g id="xtick_9">
     <g id="text_9">
      <!-- 20.0 -->
      <g style="fill:#262626;" transform="translate(726.283636 533.915)scale(0.32 -0.32)">
       <use xlink:href="#NanumPen-Regular-50"/>
       <use x="38.999985" xlink:href="#NanumPen-Regular-48"/>
       <use x="74.799973" xlink:href="#NanumPen-Regular-46"/>
       <use x="94.699966" xlink:href="#NanumPen-Regular-48"/>
      </g>
     </g>
    </g>
    <g id="text_10">
     <!-- Weigthed degree -->
     <defs>
      <path d="M 61.703125 51.09375 
Q 58.796875 43.59375 54.9375 35.4375 
Q 51.09375 27.296875 45.796875 19.296875 
Q 44.296875 17 42.40625 17 
Q 41.203125 17 40.390625 17.546875 
Q 39.59375 18.09375 39 19 
Q 36.40625 23 34.296875 27.5 
Q 32.203125 32 30.203125 37.703125 
Q 27.296875 32.59375 23.75 27.390625 
Q 20.203125 22.203125 16 17.703125 
Q 15.203125 16.796875 14.34375 16.5 
Q 13.5 16.203125 13 16.296875 
Q 10.90625 16.59375 9.703125 18.90625 
Q 6 25.796875 4.703125 34.09375 
Q 3.40625 42.40625 3.296875 51.09375 
Q 3.296875 51.90625 3.890625 52.703125 
Q 4.5 53.5 5.703125 53.40625 
Q 7.5 53.296875 8.5 52.046875 
Q 9.5 50.796875 9.703125 49 
Q 9.90625 46.5 10.203125 43.34375 
Q 10.5 40.203125 11 36.890625 
Q 11.5 33.59375 12.296875 30.5 
Q 13.09375 27.40625 14.296875 25.09375 
Q 15.796875 27 17.5 29.296875 
Q 19.203125 31.59375 20.84375 34.09375 
Q 22.5 36.59375 24 39.140625 
Q 25.5 41.703125 26.703125 44.203125 
Q 27.5 45.90625 28.703125 46.40625 
Q 29.90625 46.90625 30.59375 46.90625 
Q 33.59375 46.90625 34.703125 44 
Q 36.40625 39.796875 38.15625 35.09375 
Q 39.90625 30.40625 42 26.203125 
Q 43.796875 29 45.6875 32.5 
Q 47.59375 36 49.390625 39.640625 
Q 51.203125 43.296875 52.84375 47 
Q 54.5 50.703125 55.796875 54 
Q 56.296875 55.203125 57.5 56 
Q 58.703125 56.796875 60.09375 55.90625 
Q 61.203125 55.203125 61.640625 53.640625 
Q 62.09375 52.09375 61.703125 51.09375 
z
" id="NanumPen-Regular-87"/>
      <path d="M 28.296875 36 
Q 24.40625 33.703125 19.90625 32.453125 
Q 15.40625 31.203125 10.203125 31.203125 
Q 10.40625 27.703125 12.203125 25.640625 
Q 14 23.59375 16.703125 23.203125 
Q 18.296875 23 19.9375 23.296875 
Q 21.59375 23.59375 23.046875 24.25 
Q 24.5 24.90625 25.703125 25.703125 
Q 26.90625 26.5 27.796875 27.296875 
Q 28.703125 28.09375 29.703125 28.34375 
Q 30.703125 28.59375 31.203125 28.40625 
Q 32.59375 27.90625 32.203125 25.40625 
Q 30.59375 22.203125 27.59375 19.953125 
Q 24.59375 17.703125 20.90625 17.09375 
Q 17.703125 16.5 14.296875 17.390625 
Q 10.90625 18.296875 8.203125 20.90625 
Q 5.90625 23.203125 4.703125 26.296875 
Q 3.5 29.40625 3.203125 32.703125 
Q 2.90625 35.796875 3.75 38.59375 
Q 4.59375 41.40625 6.390625 43.546875 
Q 8.203125 45.703125 10.890625 47.09375 
Q 13.59375 48.5 17.203125 48.703125 
Q 21.5 49 25 47.09375 
Q 28.5 45.203125 29.90625 41.796875 
Q 30.703125 39.90625 30.34375 38.5 
Q 30 37.09375 28.296875 36 
z
M 16.796875 42.796875 
Q 15.796875 42.59375 14.640625 42.09375 
Q 13.5 41.59375 12.546875 40.84375 
Q 11.59375 40.09375 10.84375 39.140625 
Q 10.09375 38.203125 10 37 
Q 11.703125 37 13.75 37.296875 
Q 15.796875 37.59375 17.75 38.046875 
Q 19.703125 38.5 21.34375 39.09375 
Q 23 39.703125 24.09375 40.40625 
Q 23.296875 42.296875 21.140625 42.75 
Q 19 43.203125 16.796875 42.796875 
z
" id="NanumPen-Regular-101"/>
      <path d="M 20.90625 53.296875 
Q 20.703125 52.296875 19.5 52.1875 
Q 18.296875 52.09375 17.5 52.09375 
Q 15 52 12.34375 51.59375 
Q 9.703125 51.203125 6.796875 50.40625 
Q 5.59375 50 4.1875 50.703125 
Q 2.796875 51.40625 2.5 53.5 
Q 2.5 54.296875 3.09375 54.796875 
Q 3.703125 55.296875 4.5 55.703125 
Q 5.796875 56.296875 7.59375 56.75 
Q 9.40625 57.203125 11.25 57.390625 
Q 13.09375 57.59375 14.796875 57.546875 
Q 16.5 57.5 17.59375 57.203125 
Q 19.203125 56.703125 20.140625 55.703125 
Q 21.09375 54.703125 20.90625 53.296875 
z
M 18.59375 20 
Q 19.296875 18.40625 19.34375 16.546875 
Q 19.40625 14.703125 18.296875 14 
Q 16.90625 13.09375 15.296875 14.09375 
Q 13.703125 15.09375 12.90625 16.796875 
Q 11.796875 18.90625 11.1875 21.953125 
Q 10.59375 25 10.296875 28 
Q 10 31 9.953125 33.59375 
Q 9.90625 36.203125 9.90625 37.5 
Q 10 38.90625 10.703125 40.09375 
Q 11.40625 41.296875 12.5 41.5 
Q 14.296875 41.40625 15.390625 39.84375 
Q 16.5 38.296875 16.40625 36 
Q 16.40625 34.203125 16.5 32 
Q 16.59375 29.796875 16.890625 27.59375 
Q 17.203125 25.40625 17.59375 23.34375 
Q 18 21.296875 18.59375 20 
z
" id="NanumPen-Regular-105"/>
      <path d="M 22.296875 40.09375 
Q 23.09375 39 23.84375 37.34375 
Q 24.59375 35.703125 25 34 
Q 25.59375 31.296875 26.34375 28.140625 
Q 27.09375 25 27.84375 21.59375 
Q 28.59375 18.203125 29.25 14.703125 
Q 29.90625 11.203125 30.40625 8 
Q 31 3.59375 29.75 -0.453125 
Q 28.5 -4.5 25.59375 -7.703125 
Q 22.703125 -10.90625 18.390625 -12.796875 
Q 14.09375 -14.703125 8.703125 -14.90625 
Q 7.5 -14.796875 6.203125 -13.75 
Q 4.90625 -12.703125 4.90625 -11.59375 
Q 4.796875 -10.5 5.9375 -9.84375 
Q 7.09375 -9.203125 8.296875 -9 
Q 10.40625 -8.796875 12.65625 -8.140625 
Q 14.90625 -7.5 16.90625 -6.296875 
Q 18.90625 -5.09375 20.546875 -3.390625 
Q 22.203125 -1.703125 23.09375 0.59375 
Q 23.796875 2.40625 23.796875 5.046875 
Q 23.796875 7.703125 23.4375 10.296875 
Q 23.09375 12.90625 22.546875 15.25 
Q 22 17.59375 21.59375 18.796875 
Q 20.90625 18.09375 19.84375 17.296875 
Q 18.796875 16.5 17.5 15.796875 
Q 16.203125 15.09375 14.640625 14.6875 
Q 13.09375 14.296875 11.5 14.40625 
Q 9.796875 14.5 8.34375 15.59375 
Q 6.90625 16.703125 5.796875 18.453125 
Q 4.703125 20.203125 4.046875 22.5 
Q 3.40625 24.796875 3.40625 27.296875 
Q 3.59375 33.296875 6.4375 37.9375 
Q 9.296875 42.59375 15.59375 45.203125 
Q 16.09375 45.296875 16.9375 45.390625 
Q 17.796875 45.5 18.6875 45.453125 
Q 19.59375 45.40625 20.4375 45.203125 
Q 21.296875 45 21.90625 44.59375 
Q 23 43.796875 23 42.296875 
Q 23 40.796875 22.296875 40.09375 
z
M 9.703125 26.40625 
Q 9.703125 25.296875 9.890625 23.9375 
Q 10.09375 22.59375 11.203125 22 
Q 12.40625 21.296875 14.15625 21.796875 
Q 15.90625 22.296875 17.40625 23.5 
Q 18.796875 24.59375 19.25 25.9375 
Q 19.703125 27.296875 19.203125 29.59375 
Q 18.703125 31.90625 18.09375 34.40625 
Q 17.5 36.90625 17.296875 38.90625 
Q 16.09375 38.296875 14.75 37.1875 
Q 13.40625 36.09375 12.296875 34.4375 
Q 11.203125 32.796875 10.453125 30.796875 
Q 9.703125 28.796875 9.703125 26.40625 
z
" id="NanumPen-Regular-103"/>
      <path d="M 26.796875 39.296875 
Q 28.703125 39.40625 30.59375 38.40625 
Q 32.5 37.40625 32.5 35.296875 
Q 32.296875 33.59375 30.640625 33.140625 
Q 29 32.703125 28 32.703125 
Q 26 32.703125 23.703125 32.59375 
Q 21.40625 32.5 19 32.296875 
Q 18.796875 29 18.640625 26.09375 
Q 18.5 23.203125 18.390625 20.953125 
Q 18.296875 18.703125 18.296875 17.296875 
Q 18.296875 15.90625 18.40625 15.796875 
Q 20.59375 16.203125 23.140625 17.140625 
Q 25.703125 18.09375 28.25 19.25 
Q 30.796875 20.40625 33.25 21.65625 
Q 35.703125 22.90625 37.90625 24 
Q 38.90625 24.5 39.75 24.296875 
Q 40.59375 24.09375 40.796875 23.40625 
Q 41 22.296875 40.5 20.6875 
Q 40 19.09375 38.703125 17.796875 
Q 37.203125 16.59375 34.75 15.046875 
Q 32.296875 13.5 29.5 12.09375 
Q 26.703125 10.703125 23.84375 9.640625 
Q 21 8.59375 18.796875 8.40625 
Q 15.5 8.09375 13.796875 10.1875 
Q 12.09375 12.296875 11.90625 15.5 
Q 11.703125 18.703125 11.84375 22.890625 
Q 12 27.09375 12.203125 31.796875 
Q 10.296875 31.59375 8.546875 31.4375 
Q 6.796875 31.296875 5.203125 31.09375 
Q 3.90625 31.09375 2.34375 31.6875 
Q 0.796875 32.296875 0.796875 34 
Q 0.796875 34.59375 1.296875 35.59375 
Q 1.796875 36.59375 3.5 37.09375 
Q 7.59375 37.796875 12.59375 38.296875 
Q 12.90625 43 13.296875 47.390625 
Q 13.703125 51.796875 14 55.40625 
Q 14.09375 56.59375 14.6875 57.5 
Q 15.296875 58.40625 16 58.40625 
Q 17.703125 58.5 19.25 57.546875 
Q 20.796875 56.59375 20.796875 55.40625 
Q 20.40625 52 20.046875 47.703125 
Q 19.703125 43.40625 19.40625 38.90625 
Q 21.40625 39.09375 23.25 39.140625 
Q 25.09375 39.203125 26.796875 39.296875 
z
" id="NanumPen-Regular-116"/>
      <path d="M 11.09375 56.796875 
Q 11.09375 54.40625 11.046875 51.40625 
Q 11 48.40625 11.046875 45.203125 
Q 11.09375 42 11.140625 38.59375 
Q 11.203125 35.203125 11.296875 32.09375 
Q 12.296875 34.09375 13.6875 36.046875 
Q 15.09375 38 16.84375 39.5 
Q 18.59375 41 20.546875 41.890625 
Q 22.5 42.796875 24.796875 42.796875 
Q 27.296875 42.796875 29.25 41.1875 
Q 31.203125 39.59375 32.640625 36.9375 
Q 34.09375 34.296875 35.09375 31.046875 
Q 36.09375 27.796875 36.75 24.4375 
Q 37.40625 21.09375 37.703125 18.046875 
Q 38 15 38.203125 12.796875 
Q 38.203125 11.203125 37.390625 10.203125 
Q 36.59375 9.203125 35.5 9.203125 
Q 34.703125 9.203125 33.546875 10.25 
Q 32.40625 11.296875 31.90625 12.796875 
Q 31.59375 14 31.296875 16.296875 
Q 31 18.59375 30.59375 21.25 
Q 30.203125 23.90625 29.59375 26.59375 
Q 29 29.296875 28.140625 31.4375 
Q 27.296875 33.59375 26.09375 34.796875 
Q 24.90625 36 23.296875 35.703125 
Q 20.796875 35.203125 18.9375 32.203125 
Q 17.09375 29.203125 15.75 25.390625 
Q 14.40625 21.59375 13.546875 17.6875 
Q 12.703125 13.796875 12.296875 11.40625 
Q 11.90625 9.59375 11.25 8.9375 
Q 10.59375 8.296875 9.796875 8.296875 
Q 9 8.296875 8.34375 9.09375 
Q 7.703125 9.90625 7.140625 11.046875 
Q 6.59375 12.203125 6.1875 13.453125 
Q 5.796875 14.703125 5.703125 15.59375 
Q 5.203125 21 4.890625 25.953125 
Q 4.59375 30.90625 4.4375 35.90625 
Q 4.296875 40.90625 4.296875 46.15625 
Q 4.296875 51.40625 4.5 57.40625 
Q 4.5 62.40625 8.09375 61.90625 
Q 9.296875 61.703125 10.1875 60.140625 
Q 11.09375 58.59375 11.09375 56.796875 
z
" id="NanumPen-Regular-104"/>
      <path d="M 21 63.203125 
Q 20.703125 65 21.25 66.5 
Q 21.796875 68 23.5 68.203125 
Q 25 68.40625 26.140625 67.40625 
Q 27.296875 66.40625 27.59375 64.796875 
Q 29.59375 53.296875 31.34375 41.9375 
Q 33.09375 30.59375 34.5 19.703125 
Q 34.90625 16.796875 34.09375 15.75 
Q 33.296875 14.703125 32.203125 14.203125 
Q 31 13.703125 29.953125 14.203125 
Q 28.90625 14.703125 28.59375 16 
L 28.5 16.59375 
L 28.09375 16.5 
Q 24.796875 15.296875 21.1875 15.140625 
Q 17.59375 15 14.296875 16 
Q 11 17 8.453125 19.25 
Q 5.90625 21.5 4.796875 25 
Q 2.40625 32.703125 7.796875 39 
Q 10.09375 41.59375 13.5 43.6875 
Q 16.90625 45.796875 21.703125 47 
L 23.5 47.40625 
z
M 10.90625 27.5 
Q 11.5 25.09375 13.09375 23.796875 
Q 14.703125 22.5 16.890625 22.046875 
Q 19.09375 21.59375 21.59375 21.890625 
Q 24.09375 22.203125 26.5 23 
L 27.40625 23.296875 
L 24.59375 40.90625 
L 22.59375 40.40625 
Q 20.5 39.796875 18.140625 38.546875 
Q 15.796875 37.296875 14 35.59375 
Q 12.203125 33.90625 11.25 31.796875 
Q 10.296875 29.703125 10.90625 27.5 
z
" id="NanumPen-Regular-100"/>
      <path id="NanumPen-Regular-32"/>
      <path d="M 34 47 
Q 32.203125 46 30.25 44.890625 
Q 28.296875 43.796875 26.34375 42.34375 
Q 24.40625 40.90625 22.65625 38.953125 
Q 20.90625 37 19.5 34.296875 
Q 17.5 30.5 16.796875 26.546875 
Q 16.09375 22.59375 15.90625 18.796875 
Q 15.90625 17 15.046875 15.140625 
Q 14.203125 13.296875 12.703125 13.296875 
Q 10.796875 13.296875 9.640625 15.25 
Q 8.5 17.203125 8.09375 19 
Q 6.40625 26.09375 5.296875 33.046875 
Q 4.203125 40 3.40625 46.90625 
Q 3.40625 48.296875 4.25 48.6875 
Q 5.09375 49.09375 6.203125 49 
Q 7.40625 48.90625 8.5 48.40625 
Q 9.59375 47.90625 9.796875 46.796875 
Q 10.203125 43.09375 10.796875 39.046875 
Q 11.40625 35 12 32.09375 
Q 12.40625 35.5 14.203125 38.703125 
Q 16 41.90625 18.640625 44.5 
Q 21.296875 47.09375 24.640625 48.890625 
Q 28 50.703125 31.5 51.296875 
Q 33 51.5 34 51.296875 
Q 35 51.09375 35.40625 50.59375 
Q 35.796875 50.09375 35.546875 49 
Q 35.296875 47.90625 34 47 
z
" id="NanumPen-Regular-114"/>
     </defs>
     <g style="fill:#262626;" transform="translate(354.8825 560.255)scale(0.32 -0.32)">
      <use xlink:href="#NanumPen-Regular-87"/>
      <use x="64.599991" xlink:href="#NanumPen-Regular-101"/>
      <use x="99.699982" xlink:href="#NanumPen-Regular-105"/>
      <use x="123.899979" xlink:href="#NanumPen-Regular-103"/>
      <use x="157.799973" xlink:href="#NanumPen-Regular-116"/>
      <use x="198.59996" xlink:href="#NanumPen-Regular-104"/>
      <use x="239.899948" xlink:href="#NanumPen-Regular-101"/>
      <use x="274.999939" xlink:href="#NanumPen-Regular-100"/>
      <use x="310.699936" xlink:href="#NanumPen-Regular-32"/>
      <use x="338.699921" xlink:href="#NanumPen-Regular-100"/>
      <use x="374.399918" xlink:href="#NanumPen-Regular-101"/>
      <use x="409.499908" xlink:href="#NanumPen-Regular-103"/>
      <use x="443.399902" xlink:href="#NanumPen-Regular-114"/>
      <use x="479.299896" xlink:href="#NanumPen-Regular-101"/>
      <use x="514.399887" xlink:href="#NanumPen-Regular-101"/>
     </g>
    </g>
   </g>
   <g id="matplotlib.axis_2">
    <g id="ytick_1">
     <g id="text_11">
      <!-- 0 -->
      <g style="fill:#262626;" transform="translate(87.045 514.2075)scale(0.32 -0.32)">
       <use xlink:href="#NanumPen-Regular-48"/>
      </g>
     </g>
    </g>
    <g id="ytick_2">
     <g id="text_12">
      <!-- 1 -->
      <g style="fill:#262626;" transform="translate(92.42 445.178929)scale(0.32 -0.32)">
       <use xlink:href="#NanumPen-Regular-49"/>
      </g>
     </g>
    </g>
    <g id="ytick_3">
     <g id="text_13">
      <!-- 2 -->
      <g style="fill:#262626;" transform="translate(86.02 376.150357)scale(0.32 -0.32)">
       <use xlink:href="#NanumPen-Regular-50"/>
      </g>
     </g>
    </g>
    <g id="ytick_4">
     <g id="text_14">
      <!-- 3 -->
      <defs>
       <path d="M 26.59375 27.796875 
Q 25.59375 25.796875 23.796875 23.546875 
Q 22 21.296875 19.640625 19.140625 
Q 17.296875 17 14.640625 15.140625 
Q 12 13.296875 9.40625 12.09375 
Q 8.59375 11.703125 7.5 11.640625 
Q 6.40625 11.59375 5.703125 12.09375 
Q 4.296875 13.203125 4.34375 15 
Q 4.40625 16.796875 6 17.796875 
Q 8.90625 19.203125 11.84375 21.203125 
Q 14.796875 23.203125 17.046875 25.34375 
Q 19.296875 27.5 20.640625 29.640625 
Q 22 31.796875 21.796875 33.59375 
Q 21.5 35.5 20.203125 36.59375 
Q 18.90625 37.703125 16.953125 38 
Q 15 38.296875 12.5 37.9375 
Q 10 37.59375 7.5 36.703125 
Q 6.703125 36.5 6 36.546875 
Q 5.296875 36.59375 4.796875 37.203125 
Q 4 38.296875 3.640625 39.59375 
Q 3.296875 40.90625 4.203125 41.796875 
Q 5.90625 42.90625 7.90625 44.203125 
Q 9.90625 45.5 11.59375 47 
Q 13.296875 48.5 14.34375 50.25 
Q 15.40625 52 15.09375 54 
Q 15 54.796875 14.140625 55.296875 
Q 13.296875 55.796875 12.09375 56.046875 
Q 10.90625 56.296875 9.59375 56.140625 
Q 8.296875 56 7.203125 55.59375 
Q 6.59375 55.09375 5.890625 54.890625 
Q 5.203125 54.703125 4.5 54.703125 
Q 3.796875 54.703125 3.296875 54.953125 
Q 2.796875 55.203125 2.59375 55.59375 
Q 2.296875 56.09375 2.25 57.046875 
Q 2.203125 58 2.703125 58.59375 
Q 3.796875 60.203125 6.890625 61.140625 
Q 10 62.09375 14.296875 61.59375 
Q 17.703125 61 19.390625 58.796875 
Q 21.09375 56.59375 21.09375 53.59375 
Q 21.09375 51.296875 19.9375 48.640625 
Q 18.796875 46 16.5 43.59375 
Q 19.296875 43.90625 21.5 42.90625 
Q 23.703125 41.90625 25.09375 40.09375 
Q 27.09375 37.59375 27.59375 34.1875 
Q 28.09375 30.796875 26.59375 27.796875 
z
" id="NanumPen-Regular-51"/>
      </defs>
      <g style="fill:#262626;" transform="translate(88.9 307.121786)scale(0.32 -0.32)">
       <use xlink:href="#NanumPen-Regular-51"/>
      </g>
     </g>
    </g>
    <g id="ytick_5">
     <g id="text_15">
      <!-- 4 -->
      <defs>
       <path d="M 2.40625 29.59375 
Q 5.296875 36.703125 9.34375 43.390625 
Q 13.40625 50.09375 18.796875 56.90625 
Q 19.703125 57.703125 21.546875 58.25 
Q 23.40625 58.796875 24.703125 58.09375 
Q 24.90625 57.90625 25 57.84375 
Q 25.09375 57.796875 25.203125 57.59375 
Q 25.296875 57.90625 25.5 58.703125 
Q 26 59.90625 26.890625 60.65625 
Q 27.796875 61.40625 28.90625 61.09375 
Q 30.59375 60.59375 31.25 59.546875 
Q 31.90625 58.5 31.796875 57 
Q 30.59375 51.296875 29.75 45.34375 
Q 28.90625 39.40625 28.40625 32.59375 
Q 31.40625 33.296875 34.59375 33.84375 
Q 37.796875 34.40625 41.296875 34.90625 
Q 41.90625 35 42.65625 34.890625 
Q 43.40625 34.796875 44.15625 34.59375 
Q 44.90625 34.40625 45.34375 34 
Q 45.796875 33.59375 45.796875 33 
Q 45.796875 31.59375 44.1875 30.390625 
Q 42.59375 29.203125 40.703125 28.796875 
Q 37.5 28.203125 34.390625 27.5 
Q 31.296875 26.796875 28.203125 26 
Q 28.09375 22.203125 28.140625 18.203125 
Q 28.203125 14.203125 28.5 9.796875 
Q 28.59375 8.59375 27.75 7.890625 
Q 26.90625 7.203125 25.90625 7.296875 
Q 24.5 7.40625 23.59375 8.90625 
Q 22.703125 10.40625 22.5 12.09375 
Q 22 15.203125 21.796875 18.203125 
Q 21.59375 21.203125 21.5 24.296875 
Q 18.59375 23.5 15.59375 22.75 
Q 12.59375 22 9.703125 21.296875 
Q 7.5 20.796875 5.953125 21.5 
Q 4.40625 22.203125 3.5 23.546875 
Q 2.59375 24.90625 2.34375 26.546875 
Q 2.09375 28.203125 2.40625 29.59375 
z
M 24.5 54.5 
Q 24.296875 54.09375 24 53.75 
Q 23.703125 53.40625 23.5 53.09375 
Q 18.703125 47.09375 14.84375 40.640625 
Q 11 34.203125 8.40625 27.203125 
Q 11.5 28.09375 14.75 29.046875 
Q 18 30 21.5 30.90625 
Q 21.90625 42.5 24.5 54.5 
z
" id="NanumPen-Regular-52"/>
      </defs>
      <g style="fill:#262626;" transform="translate(83.65 238.093214)scale(0.32 -0.32)">
       <use xlink:href="#NanumPen-Regular-52"/>
      </g>
     </g>
    </g>
    <g id="ytick_6">
     <g id="text_16">
      <!-- 5 -->
      <g style="fill:#262626;" transform="translate(86.245 169.064643)scale(0.32 -0.32)">
       <use xlink:href="#NanumPen-Regular-53"/>
      </g>
     </g>
    </g>
    <g id="ytick_7">
     <g id="text_17">
      <!-- 6 -->
      <defs>
       <path d="M 23.703125 64.296875 
Q 22.203125 62.296875 20.34375 59.09375 
Q 18.5 55.90625 16.75 51.90625 
Q 15 47.90625 13.5 43.40625 
Q 12 38.90625 11.25 34.453125 
Q 10.5 30 10.640625 25.84375 
Q 10.796875 21.703125 12.296875 18.40625 
Q 12.40625 18 12.796875 18 
Q 14.40625 18.59375 16.046875 20.4375 
Q 17.703125 22.296875 18.890625 24.640625 
Q 20.09375 27 20.6875 29.453125 
Q 21.296875 31.90625 20.90625 33.59375 
Q 20.703125 34.5 19.546875 34.84375 
Q 18.40625 35.203125 17.203125 35.546875 
Q 16 35.90625 15.203125 36.40625 
Q 14.40625 36.90625 15 38.09375 
Q 15.203125 38.296875 15.703125 38.640625 
Q 16.203125 39 17 39.296875 
Q 17.796875 39.59375 18.796875 39.6875 
Q 19.796875 39.796875 21 39.59375 
Q 22.40625 39.40625 23.703125 38.40625 
Q 25 37.40625 25.5 35.09375 
Q 26.296875 31.90625 25.796875 28.59375 
Q 25.296875 25.296875 23.796875 22.296875 
Q 22.296875 19.296875 20 16.75 
Q 17.703125 14.203125 15 12.59375 
Q 13.796875 11.90625 12.5 11.90625 
Q 9.5 12.5 7.75 14.703125 
Q 6 16.90625 5.203125 19.75 
Q 4.40625 22.59375 4.34375 25.75 
Q 4.296875 28.90625 4.5 31.40625 
Q 5.296875 41.296875 9.25 50.640625 
Q 13.203125 60 19.5 68.09375 
Q 20.296875 69.203125 21.296875 69.34375 
Q 22.296875 69.5 23.09375 68.90625 
Q 23.796875 68.40625 24.1875 67.15625 
Q 24.59375 65.90625 23.703125 64.296875 
z
" id="NanumPen-Regular-54"/>
      </defs>
      <g style="fill:#262626;" transform="translate(89.06 100.036071)scale(0.32 -0.32)">
       <use xlink:href="#NanumPen-Regular-54"/>
      </g>
     </g>
    </g>
    <g id="text_18">
     <!-- Frequency -->
     <defs>
      <path d="M 35.203125 55.59375 
Q 35 55 33.796875 54.203125 
Q 32.59375 53.40625 31.796875 53.40625 
Q 27.5 53.796875 23.25 54.09375 
Q 19 54.40625 14.59375 54.5 
Q 15.203125 51 15.75 47.5 
Q 16.296875 44 16.796875 40.5 
Q 25.296875 40.796875 33.59375 41.40625 
Q 35 41.40625 36.390625 40.5 
Q 37.796875 39.59375 37.796875 38.796875 
Q 37.796875 37.703125 36.890625 36.84375 
Q 36 36 34.703125 35.796875 
Q 30.5 35.09375 26.25 34.75 
Q 22 34.40625 17.59375 34.203125 
Q 18.09375 30.703125 18.4375 27.25 
Q 18.796875 23.796875 19.09375 20.40625 
Q 19.296875 19 18.84375 17.453125 
Q 18.40625 15.90625 17.40625 15.90625 
Q 16.5 15.90625 15.703125 16.40625 
Q 14.90625 16.90625 14.25 17.546875 
Q 13.59375 18.203125 13.1875 19 
Q 12.796875 19.796875 12.703125 20.40625 
Q 11.703125 29 10.546875 37.5 
Q 9.40625 46 8 54.59375 
L 4.703125 54.59375 
Q 3.296875 54.59375 2.09375 54.890625 
Q 0.90625 55.203125 0.296875 56.40625 
Q 0.09375 56.703125 0.046875 57.390625 
Q 0 58.09375 0.140625 58.796875 
Q 0.296875 59.5 0.6875 60.09375 
Q 1.09375 60.703125 1.796875 60.90625 
Q 5.703125 61.5 10.140625 61.390625 
Q 14.59375 61.296875 18.84375 60.84375 
Q 23.09375 60.40625 26.84375 59.59375 
Q 30.59375 58.796875 33.296875 57.90625 
Q 35 56.90625 35.203125 55.59375 
z
" id="NanumPen-Regular-70"/>
      <path d="M 6 20.5 
Q 4.5 21.59375 3.640625 23.5 
Q 2.796875 25.40625 2.6875 27.65625 
Q 2.59375 29.90625 3.25 32.34375 
Q 3.90625 34.796875 5.5 37.203125 
Q 8.09375 41.09375 11.796875 44.59375 
Q 15.5 48.09375 19.90625 49.5 
Q 21.90625 50 23.5 49.40625 
Q 23.796875 51 25.90625 51.09375 
Q 27.203125 51.203125 28.296875 50.25 
Q 29.40625 49.296875 30.203125 47.90625 
Q 31 43.703125 31.84375 37.25 
Q 32.703125 30.796875 33.546875 23.84375 
Q 34.40625 16.90625 35.046875 10.25 
Q 35.703125 3.59375 36 -1.09375 
Q 35.90625 -2.203125 35.25 -3.25 
Q 34.59375 -4.296875 33.296875 -4.09375 
Q 31.203125 -4 30.5 -2.59375 
Q 29.796875 -1.203125 29.296875 1 
Q 28.796875 6.59375 28.1875 12.09375 
Q 27.59375 17.59375 26.796875 23.09375 
Q 24.40625 22 21.59375 20.84375 
Q 18.796875 19.703125 16 19.09375 
Q 13.203125 18.5 10.59375 18.75 
Q 8 19 6 20.5 
z
M 8.703125 27.796875 
Q 8.5 26.703125 9 25.84375 
Q 9.5 25 11.09375 25.296875 
Q 14.90625 25.796875 18.546875 27.140625 
Q 22.203125 28.5 25.796875 30.796875 
Q 25.296875 34 24.890625 37.203125 
Q 24.5 40.40625 24 43.59375 
Q 21.296875 43.09375 18.6875 41.390625 
Q 16.09375 39.703125 14 37.453125 
Q 11.90625 35.203125 10.5 32.59375 
Q 9.09375 30 8.703125 27.796875 
z
" id="NanumPen-Regular-113"/>
      <path d="M 12.703125 42.09375 
Q 12.09375 39.40625 11.5 36.15625 
Q 10.90625 32.90625 10.65625 29.90625 
Q 10.40625 26.90625 10.65625 24.5 
Q 10.90625 22.09375 11.90625 21.09375 
Q 13.59375 20.796875 15.796875 22.546875 
Q 18 24.296875 20.09375 27 
Q 22.203125 29.703125 23.890625 32.84375 
Q 25.59375 36 26.296875 38.40625 
Q 26.703125 39.59375 27 40.890625 
Q 27.296875 42.203125 27.296875 43.59375 
Q 27.296875 44.40625 28.34375 45.15625 
Q 29.40625 45.90625 30.09375 46 
Q 30.59375 46.09375 31.25 45.796875 
Q 31.90625 45.5 32.453125 44.953125 
Q 33 44.40625 33.453125 43.65625 
Q 33.90625 42.90625 33.90625 42.09375 
Q 34.09375 39.09375 34.5 35.5 
Q 34.90625 31.90625 35.453125 28.296875 
Q 36 24.703125 36.59375 21.296875 
Q 37.203125 17.90625 37.796875 15.203125 
Q 38.09375 14.09375 37.1875 12.6875 
Q 36.296875 11.296875 35.203125 11 
Q 34.296875 10.796875 33.34375 11.1875 
Q 32.40625 11.59375 31.90625 12.796875 
Q 31.40625 14.203125 30.953125 16.25 
Q 30.5 18.296875 30.140625 20.546875 
Q 29.796875 22.796875 29.5 24.84375 
Q 29.203125 26.90625 29.09375 28.296875 
Q 27.59375 25.59375 25.546875 22.84375 
Q 23.5 20.09375 21.140625 17.84375 
Q 18.796875 15.59375 16.25 14.34375 
Q 13.703125 13.09375 11 13.40625 
Q 7 13.90625 4.90625 20.90625 
Q 4.09375 23.703125 4.140625 27.09375 
Q 4.203125 30.5 4.640625 33.84375 
Q 5.09375 37.203125 5.75 40.203125 
Q 6.40625 43.203125 6.90625 45.09375 
Q 7.09375 45.90625 7.6875 46.546875 
Q 8.296875 47.203125 9.09375 47 
Q 10.59375 46.703125 11.84375 45.203125 
Q 13.09375 43.703125 12.703125 42.09375 
z
" id="NanumPen-Regular-117"/>
      <path d="M 10.5 45.5 
Q 10.796875 44 11.140625 42.140625 
Q 11.5 40.296875 11.890625 38.34375 
Q 12.296875 36.40625 12.59375 34.40625 
Q 12.90625 32.40625 13.09375 30.59375 
Q 14.296875 33.203125 15.6875 36.09375 
Q 17.09375 39 18.75 41.453125 
Q 20.40625 43.90625 22.25 45.5 
Q 24.09375 47.09375 26.296875 47.09375 
Q 29.59375 47.09375 31.84375 44.6875 
Q 34.09375 42.296875 35.640625 38.75 
Q 37.203125 35.203125 38.09375 31.296875 
Q 39 27.40625 39.59375 24.40625 
Q 40.203125 21.703125 37.203125 20.40625 
Q 35.796875 19.703125 35.09375 20.203125 
Q 34.40625 20.703125 34.296875 21.203125 
Q 33.796875 22.40625 33.046875 25.40625 
Q 32.296875 28.40625 31.34375 31.5 
Q 30.40625 34.59375 29.203125 36.890625 
Q 28 39.203125 26.5 39 
Q 24.703125 38.90625 23.296875 36.296875 
Q 22.09375 34.203125 20.84375 31.640625 
Q 19.59375 29.09375 18.390625 26.4375 
Q 17.203125 23.796875 16.046875 21.140625 
Q 14.90625 18.5 13.90625 16.296875 
Q 13.203125 15.59375 12.140625 15.34375 
Q 11.09375 15.09375 10 15.5 
Q 9 15.796875 8.390625 16.5 
Q 7.796875 17.203125 7.796875 17.90625 
Q 6.90625 25.703125 5.953125 32.09375 
Q 5 38.5 3.5 45.203125 
Q 2.796875 47.5 3.25 48.84375 
Q 3.703125 50.203125 6.203125 49.90625 
Q 9.703125 49.296875 10.5 45.5 
z
" id="NanumPen-Regular-110"/>
      <path d="M 27.09375 38.203125 
Q 26.40625 37.796875 25.40625 37.9375 
Q 24.40625 38.09375 23.703125 39.203125 
Q 22.09375 41.296875 19.796875 41.296875 
Q 17.703125 41.296875 16.046875 40.34375 
Q 14.40625 39.40625 13.15625 37.84375 
Q 11.90625 36.296875 11.09375 34.390625 
Q 10.296875 32.5 10 30.59375 
Q 9.5 27.09375 11.203125 24.6875 
Q 12.90625 22.296875 16.5 22.296875 
Q 19.40625 22.203125 23.046875 23.453125 
Q 26.703125 24.703125 29.90625 26.703125 
Q 31.296875 27.296875 32.5 27.390625 
Q 33.703125 27.5 34.5 26.203125 
Q 35.5 24.59375 34 22.9375 
Q 32.5 21.296875 30 20 
Q 27.5 18.59375 24.75 17.546875 
Q 22 16.5 19.203125 16.046875 
Q 16.40625 15.59375 13.65625 16 
Q 10.90625 16.40625 8.5 17.90625 
Q 4.703125 20.5 3.890625 25.296875 
Q 3.09375 30.09375 4.59375 35.203125 
Q 5.203125 37.09375 6.296875 39.046875 
Q 7.40625 41 8.953125 42.59375 
Q 10.5 44.203125 12.390625 45.34375 
Q 14.296875 46.5 16.59375 46.90625 
Q 20.296875 47.5 23.6875 46.140625 
Q 27.09375 44.796875 28.203125 41.203125 
Q 28.40625 40.40625 28.203125 39.546875 
Q 28 38.703125 27.09375 38.203125 
z
" id="NanumPen-Regular-99"/>
      <path d="M 35.09375 44 
Q 35.40625 38.59375 35.75 33.09375 
Q 36.09375 27.59375 35.890625 22.25 
Q 35.703125 16.90625 34.84375 11.796875 
Q 34 6.703125 32 2.046875 
Q 30 -2.59375 26.640625 -6.59375 
Q 23.296875 -10.59375 18.203125 -13.796875 
Q 17.40625 -14.296875 16.453125 -14.390625 
Q 15.5 -14.5 14.59375 -14.34375 
Q 13.703125 -14.203125 13 -13.84375 
Q 12.296875 -13.5 12.09375 -12.90625 
Q 11.796875 -12 12.390625 -10.890625 
Q 13 -9.796875 14.40625 -8.59375 
Q 18.796875 -5.296875 21.796875 -1.59375 
Q 24.796875 2.09375 26.59375 6.390625 
Q 28.40625 10.703125 28.953125 15.75 
Q 29.5 20.796875 28.90625 26.796875 
Q 27.703125 25.296875 26.09375 23.6875 
Q 24.5 22.09375 22.703125 20.84375 
Q 20.90625 19.59375 19 18.75 
Q 17.09375 17.90625 15.40625 17.90625 
Q 14 17.90625 12.59375 18.5 
Q 11.203125 19.09375 9.796875 20.796875 
Q 8.203125 22.90625 6.953125 25.546875 
Q 5.703125 28.203125 4.796875 30.703125 
Q 3.90625 33.203125 3.34375 35.203125 
Q 2.796875 37.203125 2.703125 38 
Q 2.5 39 2.703125 39.890625 
Q 2.90625 40.796875 4 41 
Q 5.5 41.296875 6.796875 40.796875 
Q 8.09375 40.296875 8.59375 39.203125 
Q 9 38.09375 9.703125 35.796875 
Q 10.40625 33.5 11.40625 31.25 
Q 12.40625 29 13.546875 27.296875 
Q 14.703125 25.59375 16 25.59375 
Q 17.5 25.59375 19.546875 27.09375 
Q 21.59375 28.59375 23.5 31 
Q 25.40625 33.40625 26.75 36.34375 
Q 28.09375 39.296875 28.09375 42.09375 
Q 28.09375 42.703125 28.296875 43.5 
Q 28.5 44.296875 28.890625 45.046875 
Q 29.296875 45.796875 29.84375 46.34375 
Q 30.40625 46.90625 31 47 
Q 32.59375 47.203125 33.84375 46.140625 
Q 35.09375 45.09375 35.09375 44 
z
" id="NanumPen-Regular-121"/>
     </defs>
     <g style="fill:#262626;" transform="translate(75.01 341.8725)rotate(-90)scale(0.32 -0.32)">
      <use xlink:href="#NanumPen-Regular-70"/>
      <use x="38.999985" xlink:href="#NanumPen-Regular-114"/>
      <use x="74.899979" xlink:href="#NanumPen-Regular-101"/>
      <use x="109.999969" xlink:href="#NanumPen-Regular-113"/>
      <use x="150.399963" xlink:href="#NanumPen-Regular-117"/>
      <use x="191.399948" xlink:href="#NanumPen-Regular-101"/>
      <use x="226.499939" xlink:href="#NanumPen-Regular-110"/>
      <use x="268.899933" xlink:href="#NanumPen-Regular-99"/>
      <use x="305.09993" xlink:href="#NanumPen-Regular-121"/>
     </g>
    </g>
   </g>
   <g id="patch_3">
    <path clip-path="url(#pad56c07f6a)" d="M 138.436364 504 
L 199.309091 504 
L 199.309091 434.971429 
L 138.436364 434.971429 
z
" style="fill:#708090;stroke:#ffffff;stroke-linejoin:miter;"/>
   </g>
   <g id="patch_4">
    <path clip-path="url(#pad56c07f6a)" d="M 199.309091 504 
L 260.181818 504 
L 260.181818 434.971429 
L 199.309091 434.971429 
z
" style="fill:#708090;stroke:#ffffff;stroke-linejoin:miter;"/>
   </g>
   <g id="patch_5">
    <path clip-path="url(#pad56c07f6a)" d="M 260.181818 504 
L 321.054545 504 
L 321.054545 504 
L 260.181818 504 
z
" style="fill:#708090;stroke:#ffffff;stroke-linejoin:miter;"/>
   </g>
   <g id="patch_6">
    <path clip-path="url(#pad56c07f6a)" d="M 321.054545 504 
L 381.927273 504 
L 381.927273 434.971429 
L 321.054545 434.971429 
z
" style="fill:#708090;stroke:#ffffff;stroke-linejoin:miter;"/>
   </g>
   <g id="patch_7">
    <path clip-path="url(#pad56c07f6a)" d="M 381.927273 504 
L 442.8 504 
L 442.8 296.914286 
L 381.927273 296.914286 
z
" style="fill:#708090;stroke:#ffffff;stroke-linejoin:miter;"/>
   </g>
   <g id="patch_8">
    <path clip-path="url(#pad56c07f6a)" d="M 442.8 504 
L 503.672727 504 
L 503.672727 89.828571 
L 442.8 89.828571 
z
" style="fill:#708090;stroke:#ffffff;stroke-linejoin:miter;"/>
   </g>
   <g id="patch_9">
    <path clip-path="url(#pad56c07f6a)" d="M 503.672727 504 
L 564.545455 504 
L 564.545455 434.971429 
L 503.672727 434.971429 
z
" style="fill:#708090;stroke:#ffffff;stroke-linejoin:miter;"/>
   </g>
   <g id="patch_10">
    <path clip-path="url(#pad56c07f6a)" d="M 564.545455 504 
L 625.418182 504 
L 625.418182 89.828571 
L 564.545455 89.828571 
z
" style="fill:#708090;stroke:#ffffff;stroke-linejoin:miter;"/>
   </g>
   <g id="patch_11">
    <path clip-path="url(#pad56c07f6a)" d="M 625.418182 504 
L 686.290909 504 
L 686.290909 296.914286 
L 625.418182 296.914286 
z
" style="fill:#708090;stroke:#ffffff;stroke-linejoin:miter;"/>
   </g>
   <g id="patch_12">
    <path clip-path="url(#pad56c07f6a)" d="M 686.290909 504 
L 747.163636 504 
L 747.163636 365.942857 
L 686.290909 365.942857 
z
" style="fill:#708090;stroke:#ffffff;stroke-linejoin:miter;"/>
   </g>
   <g id="patch_13">
    <path d="M 108 504 
L 108 69.12 
" style="fill:none;stroke:#262626;stroke-linecap:square;stroke-linejoin:miter;stroke-width:1.25;"/>
   </g>
   <g id="patch_14">
    <path d="M 108 504 
L 777.6 504 
" style="fill:none;stroke:#262626;stroke-linecap:square;stroke-linejoin:miter;stroke-width:1.25;"/>
   </g>
  </g>
 </g>
 <defs>
  <clipPath id="pad56c07f6a">
   <rect height="434.88" width="669.6" x="108" y="69.12"/>
  </clipPath>
 </defs>
</svg>
