<?xml version="1.0" encoding="utf-8" standalone="no"?>
<!DOCTYPE svg PUBLIC "-//W3C//DTD SVG 1.1//EN"
  "http://www.w3.org/Graphics/SVG/1.1/DTD/svg11.dtd">
<!-- Created with matplotlib (https://matplotlib.org/) -->
<svg height="432pt" version="1.1" viewBox="0 0 432 432" width="432pt" xmlns="http://www.w3.org/2000/svg" xmlns:xlink="http://www.w3.org/1999/xlink">
 <defs>
  <style type="text/css">
*{stroke-linecap:butt;stroke-linejoin:round;}
  </style>
 </defs>
 <g id="figure_1">
  <g id="patch_1">
   <path d="M 0 432 
L 432 432 
L 432 0 
L 0 0 
z
" style="fill:none;"/>
  </g>
  <g id="axes_1">
   <g id="LineCollection_1">
    <path clip-path="url(#pae2cd59107)" d="M 408.50452 216 
L 401.945085 166.176164 
" style="fill:none;stroke:#000000;"/>
    <path clip-path="url(#pae2cd59107)" d="M 408.50452 216 
L 382.713802 119.74774 
" style="fill:none;stroke:#000000;"/>
    <path clip-path="url(#pae2cd59107)" d="M 408.50452 216 
L 382.713791 312.252295 
" style="fill:none;stroke:#000000;"/>
    <path clip-path="url(#pae2cd59107)" d="M 408.50452 216 
L 401.945097 265.823796 
" style="fill:none;stroke:#000000;"/>
    <path clip-path="url(#pae2cd59107)" d="M 401.945085 166.176164 
L 382.713802 119.74774 
" style="fill:none;stroke:#000000;"/>
    <path clip-path="url(#pae2cd59107)" d="M 401.945085 166.176164 
L 352.12125 79.87875 
" style="fill:none;stroke:#000000;"/>
    <path clip-path="url(#pae2cd59107)" d="M 401.945085 166.176164 
L 401.945097 265.823796 
" style="fill:none;stroke:#000000;"/>
    <path clip-path="url(#pae2cd59107)" d="M 382.713802 119.74774 
L 352.12125 79.87875 
" style="fill:none;stroke:#000000;"/>
    <path clip-path="url(#pae2cd59107)" d="M 382.713802 119.74774 
L 312.252254 49.286186 
" style="fill:none;stroke:#000000;"/>
    <path clip-path="url(#pae2cd59107)" d="M 352.12125 79.87875 
L 312.252254 49.286186 
" style="fill:none;stroke:#000000;"/>
    <path clip-path="url(#pae2cd59107)" d="M 352.12125 79.87875 
L 265.823842 30.054915 
" style="fill:none;stroke:#000000;"/>
    <path clip-path="url(#pae2cd59107)" d="M 312.252254 49.286186 
L 265.823842 30.054915 
" style="fill:none;stroke:#000000;"/>
    <path clip-path="url(#pae2cd59107)" d="M 312.252254 49.286186 
L 215.999992 23.49548 
" style="fill:none;stroke:#000000;"/>
    <path clip-path="url(#pae2cd59107)" d="M 265.823842 30.054915 
L 215.999992 23.49548 
" style="fill:none;stroke:#000000;"/>
    <path clip-path="url(#pae2cd59107)" d="M 265.823842 30.054915 
L 166.176164 30.054915 
" style="fill:none;stroke:#000000;"/>
    <path clip-path="url(#pae2cd59107)" d="M 215.999992 23.49548 
L 119.747728 49.286198 
" style="fill:none;stroke:#000000;"/>
    <path clip-path="url(#pae2cd59107)" d="M 215.999992 23.49548 
L 166.176164 30.054915 
" style="fill:none;stroke:#000000;"/>
    <path clip-path="url(#pae2cd59107)" d="M 166.176164 30.054915 
L 119.747728 49.286198 
" style="fill:none;stroke:#000000;"/>
    <path clip-path="url(#pae2cd59107)" d="M 166.176164 30.054915 
L 79.87875 79.87875 
" style="fill:none;stroke:#000000;"/>
    <path clip-path="url(#pae2cd59107)" d="M 119.747728 49.286198 
L 79.87875 79.87875 
" style="fill:none;stroke:#000000;"/>
    <path clip-path="url(#pae2cd59107)" d="M 119.747728 49.286198 
L 49.286198 119.747728 
" style="fill:none;stroke:#000000;"/>
    <path clip-path="url(#pae2cd59107)" d="M 79.87875 79.87875 
L 49.286198 119.747728 
" style="fill:none;stroke:#000000;"/>
    <path clip-path="url(#pae2cd59107)" d="M 79.87875 79.87875 
L 30.054915 166.176147 
" style="fill:none;stroke:#000000;"/>
    <path clip-path="url(#pae2cd59107)" d="M 49.286198 119.747728 
L 30.054915 166.176147 
" style="fill:none;stroke:#000000;"/>
    <path clip-path="url(#pae2cd59107)" d="M 49.286198 119.747728 
L 23.49548 216.000017 
" style="fill:none;stroke:#000000;"/>
    <path clip-path="url(#pae2cd59107)" d="M 30.054915 166.176147 
L 23.49548 216.000017 
" style="fill:none;stroke:#000000;"/>
    <path clip-path="url(#pae2cd59107)" d="M 30.054915 166.176147 
L 30.054915 265.823842 
" style="fill:none;stroke:#000000;"/>
    <path clip-path="url(#pae2cd59107)" d="M 23.49548 216.000017 
L 30.054915 265.823842 
" style="fill:none;stroke:#000000;"/>
    <path clip-path="url(#pae2cd59107)" d="M 23.49548 216.000017 
L 49.286198 312.252254 
" style="fill:none;stroke:#000000;"/>
    <path clip-path="url(#pae2cd59107)" d="M 30.054915 265.823842 
L 49.286198 312.252254 
" style="fill:none;stroke:#000000;"/>
    <path clip-path="url(#pae2cd59107)" d="M 30.054915 265.823842 
L 79.878739 352.121238 
" style="fill:none;stroke:#000000;"/>
    <path clip-path="url(#pae2cd59107)" d="M 49.286198 312.252254 
L 119.747757 382.713814 
" style="fill:none;stroke:#000000;"/>
    <path clip-path="url(#pae2cd59107)" d="M 49.286198 312.252254 
L 79.878739 352.121238 
" style="fill:none;stroke:#000000;"/>
    <path clip-path="url(#pae2cd59107)" d="M 79.878739 352.121238 
L 119.747757 382.713814 
" style="fill:none;stroke:#000000;"/>
    <path clip-path="url(#pae2cd59107)" d="M 79.878739 352.121238 
L 166.176176 401.945097 
" style="fill:none;stroke:#000000;"/>
    <path clip-path="url(#pae2cd59107)" d="M 119.747757 382.713814 
L 166.176176 401.945097 
" style="fill:none;stroke:#000000;"/>
    <path clip-path="url(#pae2cd59107)" d="M 119.747757 382.713814 
L 216.000002 408.50452 
" style="fill:none;stroke:#000000;"/>
    <path clip-path="url(#pae2cd59107)" d="M 166.176176 401.945097 
L 216.000002 408.50452 
" style="fill:none;stroke:#000000;"/>
    <path clip-path="url(#pae2cd59107)" d="M 166.176176 401.945097 
L 265.82383 401.945085 
" style="fill:none;stroke:#000000;"/>
    <path clip-path="url(#pae2cd59107)" d="M 216.000002 408.50452 
L 265.82383 401.945085 
" style="fill:none;stroke:#000000;"/>
    <path clip-path="url(#pae2cd59107)" d="M 216.000002 408.50452 
L 312.252243 382.713814 
" style="fill:none;stroke:#000000;"/>
    <path clip-path="url(#pae2cd59107)" d="M 265.82383 401.945085 
L 312.252243 382.713814 
" style="fill:none;stroke:#000000;"/>
    <path clip-path="url(#pae2cd59107)" d="M 265.82383 401.945085 
L 352.121227 352.121272 
" style="fill:none;stroke:#000000;"/>
    <path clip-path="url(#pae2cd59107)" d="M 312.252243 382.713814 
L 352.121227 352.121272 
" style="fill:none;stroke:#000000;"/>
    <path clip-path="url(#pae2cd59107)" d="M 312.252243 382.713814 
L 382.713791 312.252295 
" style="fill:none;stroke:#000000;"/>
    <path clip-path="url(#pae2cd59107)" d="M 352.121227 352.121272 
L 382.713791 312.252295 
" style="fill:none;stroke:#000000;"/>
    <path clip-path="url(#pae2cd59107)" d="M 352.121227 352.121272 
L 401.945097 265.823796 
" style="fill:none;stroke:#000000;"/>
    <path clip-path="url(#pae2cd59107)" d="M 382.713791 312.252295 
L 401.945097 265.823796 
" style="fill:none;stroke:#000000;"/>
   </g>
   <g id="PathCollection_1">
    <defs>
     <path d="M 0 8.660254 
C 2.296726 8.660254 4.499694 7.747755 6.123724 6.123724 
C 7.747755 4.499694 8.660254 2.296726 8.660254 0 
C 8.660254 -2.296726 7.747755 -4.499694 6.123724 -6.123724 
C 4.499694 -7.747755 2.296726 -8.660254 0 -8.660254 
C -2.296726 -8.660254 -4.499694 -7.747755 -6.123724 -6.123724 
C -7.747755 -4.499694 -8.660254 -2.296726 -8.660254 0 
C -8.660254 2.296726 -7.747755 4.499694 -6.123724 6.123724 
C -4.499694 7.747755 -2.296726 8.660254 0 8.660254 
z
" id="mc62da516b2" style="stroke:#ebcb74;"/>
    </defs>
    <g clip-path="url(#pae2cd59107)">
     <use style="fill:#ebcb74;stroke:#ebcb74;" x="408.50452" xlink:href="#mc62da516b2" y="216"/>
     <use style="fill:#ebcb74;stroke:#ebcb74;" x="401.945085" xlink:href="#mc62da516b2" y="166.176164"/>
     <use style="fill:#ebcb74;stroke:#ebcb74;" x="382.713802" xlink:href="#mc62da516b2" y="119.74774"/>
     <use style="fill:#ebcb74;stroke:#ebcb74;" x="352.12125" xlink:href="#mc62da516b2" y="79.87875"/>
     <use style="fill:#ebcb74;stroke:#ebcb74;" x="312.252254" xlink:href="#mc62da516b2" y="49.286186"/>
     <use style="fill:#ebcb74;stroke:#ebcb74;" x="265.823842" xlink:href="#mc62da516b2" y="30.054915"/>
     <use style="fill:#ebcb74;stroke:#ebcb74;" x="215.999992" xlink:href="#mc62da516b2" y="23.49548"/>
     <use style="fill:#ebcb74;stroke:#ebcb74;" x="166.176164" xlink:href="#mc62da516b2" y="30.054915"/>
     <use style="fill:#ebcb74;stroke:#ebcb74;" x="119.747728" xlink:href="#mc62da516b2" y="49.286198"/>
     <use style="fill:#ebcb74;stroke:#ebcb74;" x="79.87875" xlink:href="#mc62da516b2" y="79.87875"/>
     <use style="fill:#ebcb74;stroke:#ebcb74;" x="49.286198" xlink:href="#mc62da516b2" y="119.747728"/>
     <use style="fill:#ebcb74;stroke:#ebcb74;" x="30.054915" xlink:href="#mc62da516b2" y="166.176147"/>
     <use style="fill:#ebcb74;stroke:#ebcb74;" x="23.49548" xlink:href="#mc62da516b2" y="216.000017"/>
     <use style="fill:#ebcb74;stroke:#ebcb74;" x="30.054915" xlink:href="#mc62da516b2" y="265.823842"/>
     <use style="fill:#ebcb74;stroke:#ebcb74;" x="49.286198" xlink:href="#mc62da516b2" y="312.252254"/>
     <use style="fill:#ebcb74;stroke:#ebcb74;" x="79.878739" xlink:href="#mc62da516b2" y="352.121238"/>
     <use style="fill:#ebcb74;stroke:#ebcb74;" x="119.747757" xlink:href="#mc62da516b2" y="382.713814"/>
     <use style="fill:#ebcb74;stroke:#ebcb74;" x="166.176176" xlink:href="#mc62da516b2" y="401.945097"/>
     <use style="fill:#ebcb74;stroke:#ebcb74;" x="216.000002" xlink:href="#mc62da516b2" y="408.50452"/>
     <use style="fill:#ebcb74;stroke:#ebcb74;" x="265.82383" xlink:href="#mc62da516b2" y="401.945085"/>
     <use style="fill:#ebcb74;stroke:#ebcb74;" x="312.252243" xlink:href="#mc62da516b2" y="382.713814"/>
     <use style="fill:#ebcb74;stroke:#ebcb74;" x="352.121227" xlink:href="#mc62da516b2" y="352.121272"/>
     <use style="fill:#ebcb74;stroke:#ebcb74;" x="382.713791" xlink:href="#mc62da516b2" y="312.252295"/>
     <use style="fill:#ebcb74;stroke:#ebcb74;" x="401.945097" xlink:href="#mc62da516b2" y="265.823796"/>
    </g>
   </g>
  </g>
 </g>
 <defs>
  <clipPath id="pae2cd59107">
   <rect height="432" width="432" x="0" y="0"/>
  </clipPath>
 </defs>
</svg>
