<?xml version="1.0" encoding="utf-8" standalone="no"?>
<!DOCTYPE svg PUBLIC "-//W3C//DTD SVG 1.1//EN"
  "http://www.w3.org/Graphics/SVG/1.1/DTD/svg11.dtd">
<!-- Created with matplotlib (https://matplotlib.org/) -->
<svg height="720pt" version="1.1" viewBox="0 0 720 720" width="720pt" xmlns="http://www.w3.org/2000/svg" xmlns:xlink="http://www.w3.org/1999/xlink">
 <defs>
  <style type="text/css">
*{stroke-linecap:butt;stroke-linejoin:round;}
  </style>
 </defs>
 <g id="figure_1">
  <g id="patch_1">
   <path d="M 0 720 
L 720 720 
L 720 0 
L 0 0 
z
" style="fill:none;"/>
  </g>
  <g id="axes_1">
   <g id="LineCollection_1">
    <path clip-path="url(#p137e3ac560)" d="M 242.980297 570.804247 
L 368.999996 112.705767 
" style="fill:none;stroke:#000004;"/>
    <path clip-path="url(#p137e3ac560)" d="M 368.999996 112.705767 
L 190.781225 184.609371 
" style="fill:none;stroke:#fbb61a;"/>
    <path clip-path="url(#p137e3ac560)" d="M 150.727458 235.452878 
L 303.7674 595.329234 
" style="fill:none;stroke:#fbbe23;"/>
    <path clip-path="url(#p137e3ac560)" d="M 621.039421 358.200002 
L 495.0197 570.804248 
" style="fill:none;stroke:#f2ea69;"/>
    <path clip-path="url(#p137e3ac560)" d="M 190.781213 531.790631 
L 495.0197 570.804248 
" style="fill:none;stroke:#f1f179;"/>
    <path clip-path="url(#p137e3ac560)" d="M 434.232596 595.329213 
L 125.548616 421.738587 
" style="fill:none;stroke:#000004;"/>
    <path clip-path="url(#p137e3ac560)" d="M 434.232596 595.329213 
L 495.019711 145.595748 
" style="fill:none;stroke:#000004;"/>
    <path clip-path="url(#p137e3ac560)" d="M 612.451381 294.66142 
L 303.7674 595.329234 
" style="fill:none;stroke:#f3e55d;"/>
    <path clip-path="url(#p137e3ac560)" d="M 621.039421 358.200002 
L 303.7674 121.070787 
" style="fill:none;stroke:#f2ea69;"/>
    <path clip-path="url(#p137e3ac560)" d="M 125.548616 421.738587 
L 303.7674 595.329234 
" style="fill:none;stroke:#f8cf3a;"/>
    <path clip-path="url(#p137e3ac560)" d="M 495.0197 570.804248 
L 303.7674 121.070787 
" style="fill:none;stroke:#771c6d;"/>
    <path clip-path="url(#p137e3ac560)" d="M 587.272537 235.452886 
L 587.272544 480.947141 
" style="fill:none;stroke:#f3e55d;"/>
    <path clip-path="url(#p137e3ac560)" d="M 369 603.694233 
L 434.232596 595.329213 
" style="fill:none;stroke:#f6d746;"/>
    <path clip-path="url(#p137e3ac560)" d="M 621.039421 358.200002 
L 150.727458 235.452878 
" style="fill:none;stroke:#f8cf3a;"/>
    <path clip-path="url(#p137e3ac560)" d="M 547.218778 184.609369 
L 303.7674 121.070787 
" style="fill:none;stroke:#f2ea69;"/>
    <path clip-path="url(#p137e3ac560)" d="M 587.272537 235.452886 
L 434.232603 121.070785 
" style="fill:none;stroke:#f8cf3a;"/>
    <path clip-path="url(#p137e3ac560)" d="M 612.451381 294.66142 
L 125.548613 294.66141 
" style="fill:none;stroke:#f2ea69;"/>
    <path clip-path="url(#p137e3ac560)" d="M 303.7674 121.070787 
L 587.272544 480.947141 
" style="fill:none;stroke:#fcac11;"/>
    <path clip-path="url(#p137e3ac560)" d="M 434.232603 121.070785 
L 242.980282 145.595755 
" style="fill:none;stroke:#f6d746;"/>
    <path clip-path="url(#p137e3ac560)" d="M 242.980297 570.804247 
L 547.218778 184.609369 
" style="fill:none;stroke:#000004;"/>
    <path clip-path="url(#p137e3ac560)" d="M 368.999996 112.705767 
L 303.7674 121.070787 
" style="fill:none;stroke:#f9c72f;"/>
    <path clip-path="url(#p137e3ac560)" d="M 495.019711 145.595748 
L 434.232596 595.329213 
" style="fill:none;stroke:#f9c72f;"/>
    <path clip-path="url(#p137e3ac560)" d="M 612.451381 294.66142 
L 434.232603 121.070785 
" style="fill:none;stroke:#fbbe23;"/>
    <path clip-path="url(#p137e3ac560)" d="M 150.727458 235.452878 
L 303.7674 121.070787 
" style="fill:none;stroke:#000004;"/>
    <path clip-path="url(#p137e3ac560)" d="M 190.781225 184.609371 
L 547.218766 531.790645 
" style="fill:none;stroke:#f3e55d;"/>
    <path clip-path="url(#p137e3ac560)" d="M 303.7674 595.329234 
L 495.0197 570.804248 
" style="fill:none;stroke:#f6d746;"/>
    <path clip-path="url(#p137e3ac560)" d="M 150.727466 480.947113 
L 369 603.694233 
" style="fill:none;stroke:#f1f179;"/>
    <path clip-path="url(#p137e3ac560)" d="M 434.232603 121.070785 
L 369 603.694233 
" style="fill:none;stroke:#f3f586;"/>
    <path clip-path="url(#p137e3ac560)" d="M 125.548613 294.66141 
L 587.272544 480.947141 
" style="fill:none;stroke:#f3e55d;"/>
    <path clip-path="url(#p137e3ac560)" d="M 150.727458 235.452878 
L 369 603.694233 
" style="fill:none;stroke:#fbb61a;"/>
    <path clip-path="url(#p137e3ac560)" d="M 621.039421 358.200002 
L 303.7674 595.329234 
" style="fill:none;stroke:#f4dd4f;"/>
    <path clip-path="url(#p137e3ac560)" d="M 242.980297 570.804247 
L 587.272544 480.947141 
" style="fill:none;stroke:#f6d746;"/>
    <path clip-path="url(#p137e3ac560)" d="M 116.960579 358.200009 
L 303.7674 595.329234 
" style="fill:none;stroke:#f2ea69;"/>
    <path clip-path="url(#p137e3ac560)" d="M 369 603.694233 
L 612.451387 421.738568 
" style="fill:none;stroke:#f1f179;"/>
    <path clip-path="url(#p137e3ac560)" d="M 303.7674 595.329234 
L 612.451387 421.738568 
" style="fill:none;stroke:#f6d746;"/>
    <path clip-path="url(#p137e3ac560)" d="M 125.548616 421.738587 
L 495.0197 570.804248 
" style="fill:none;stroke:#f8cf3a;"/>
    <path clip-path="url(#p137e3ac560)" d="M 125.548613 294.66141 
L 125.548616 421.738587 
" style="fill:none;stroke:#f8cf3a;"/>
    <path clip-path="url(#p137e3ac560)" d="M 369 603.694233 
L 495.0197 570.804248 
" style="fill:none;stroke:#f6d746;"/>
    <path clip-path="url(#p137e3ac560)" d="M 242.980282 145.595755 
L 190.781213 531.790631 
" style="fill:none;stroke:#fbbe23;"/>
    <path clip-path="url(#p137e3ac560)" d="M 495.019711 145.595748 
L 150.727458 235.452878 
" style="fill:none;stroke:#fcac11;"/>
    <path clip-path="url(#p137e3ac560)" d="M 587.272537 235.452886 
L 368.999996 112.705767 
" style="fill:none;stroke:#f8cf3a;"/>
    <path clip-path="url(#p137e3ac560)" d="M 190.781225 184.609371 
L 150.727466 480.947113 
" style="fill:none;stroke:#f3e55d;"/>
    <path clip-path="url(#p137e3ac560)" d="M 303.7674 121.070787 
L 150.727458 235.452878 
" style="fill:none;stroke:#fbbe23;"/>
    <path clip-path="url(#p137e3ac560)" d="M 434.232603 121.070785 
L 125.548613 294.66141 
" style="fill:none;stroke:#fbb61a;"/>
    <path clip-path="url(#p137e3ac560)" d="M 125.548616 421.738587 
L 150.727466 480.947113 
" style="fill:none;stroke:#f3f586;"/>
    <path clip-path="url(#p137e3ac560)" d="M 547.218778 184.609369 
L 612.451387 421.738568 
" style="fill:none;stroke:#f3e55d;"/>
    <path clip-path="url(#p137e3ac560)" d="M 150.727458 235.452878 
L 125.548616 421.738587 
" style="fill:none;stroke:#f6d746;"/>
    <path clip-path="url(#p137e3ac560)" d="M 368.999996 112.705767 
L 587.272544 480.947141 
" style="fill:none;stroke:#f98b0b;"/>
    <path clip-path="url(#p137e3ac560)" d="M 242.980282 145.595755 
L 547.218766 531.790645 
" style="fill:none;stroke:#fbb61a;"/>
    <path clip-path="url(#p137e3ac560)" d="M 125.548613 294.66141 
L 434.232603 121.070785 
" style="fill:none;stroke:#000004;"/>
    <path clip-path="url(#p137e3ac560)" d="M 495.019711 145.595748 
L 242.980297 570.804247 
" style="fill:none;stroke:#fbb61a;"/>
    <path clip-path="url(#p137e3ac560)" d="M 190.781225 184.609371 
L 242.980297 570.804247 
" style="fill:none;stroke:#f2ea69;"/>
    <path clip-path="url(#p137e3ac560)" d="M 547.218766 531.790645 
L 190.781213 531.790631 
" style="fill:none;stroke:#000004;"/>
    <path clip-path="url(#p137e3ac560)" d="M 150.727466 480.947113 
L 190.781213 531.790631 
" style="fill:none;stroke:#f8cf3a;"/>
    <path clip-path="url(#p137e3ac560)" d="M 434.232603 121.070785 
L 547.218766 531.790645 
" style="fill:none;stroke:#f9c72f;"/>
    <path clip-path="url(#p137e3ac560)" d="M 242.980297 570.804247 
L 116.960579 358.200009 
" style="fill:none;stroke:#000004;"/>
    <path clip-path="url(#p137e3ac560)" d="M 125.548613 294.66141 
L 547.218766 531.790645 
" style="fill:none;stroke:#f4dd4f;"/>
    <path clip-path="url(#p137e3ac560)" d="M 150.727458 235.452878 
L 612.451387 421.738568 
" style="fill:none;stroke:#f9c72f;"/>
    <path clip-path="url(#p137e3ac560)" d="M 242.980297 570.804247 
L 434.232596 595.329213 
" style="fill:none;stroke:#f6d746;"/>
    <path clip-path="url(#p137e3ac560)" d="M 303.7674 595.329234 
L 369 603.694233 
" style="fill:none;stroke:#f3e55d;"/>
    <path clip-path="url(#p137e3ac560)" d="M 303.7674 595.329234 
L 303.7674 121.070787 
" style="fill:none;stroke:#450a69;"/>
    <path clip-path="url(#p137e3ac560)" d="M 116.960579 358.200009 
L 587.272544 480.947141 
" style="fill:none;stroke:#f9c72f;"/>
    <path clip-path="url(#p137e3ac560)" d="M 587.272537 235.452886 
L 303.7674 595.329234 
" style="fill:none;stroke:#f8cf3a;"/>
    <path clip-path="url(#p137e3ac560)" d="M 150.727466 480.947113 
L 242.980297 570.804247 
" style="fill:none;stroke:#f6d746;"/>
    <path clip-path="url(#p137e3ac560)" d="M 621.039421 358.200002 
L 612.451381 294.66142 
" style="fill:none;stroke:#f5f992;"/>
    <path clip-path="url(#p137e3ac560)" d="M 303.7674 121.070787 
L 190.781213 531.790631 
" style="fill:none;stroke:#f4dd4f;"/>
    <path clip-path="url(#p137e3ac560)" d="M 125.548616 421.738587 
L 612.451387 421.738568 
" style="fill:none;stroke:#f2ea69;"/>
    <path clip-path="url(#p137e3ac560)" d="M 547.218778 184.609369 
L 116.960579 358.200009 
" style="fill:none;stroke:#f6d746;"/>
    <path clip-path="url(#p137e3ac560)" d="M 612.451381 294.66142 
L 116.960579 358.200009 
" style="fill:none;stroke:#f6d746;"/>
    <path clip-path="url(#p137e3ac560)" d="M 242.980282 145.595755 
L 116.960579 358.200009 
" style="fill:none;stroke:#f1f179;"/>
    <path clip-path="url(#p137e3ac560)" d="M 495.019711 145.595748 
L 190.781213 531.790631 
" style="fill:none;stroke:#f4dd4f;"/>
    <path clip-path="url(#p137e3ac560)" d="M 587.272537 235.452886 
L 125.548613 294.66141 
" style="fill:none;stroke:#fca108;"/>
    <path clip-path="url(#p137e3ac560)" d="M 612.451381 294.66142 
L 368.999996 112.705767 
" style="fill:none;stroke:#fcac11;"/>
    <path clip-path="url(#p137e3ac560)" d="M 303.7674 121.070787 
L 612.451387 421.738568 
" style="fill:none;stroke:#f9c72f;"/>
    <path clip-path="url(#p137e3ac560)" d="M 434.232603 121.070785 
L 150.727466 480.947113 
" style="fill:none;stroke:#fbbe23;"/>
    <path clip-path="url(#p137e3ac560)" d="M 547.218778 184.609369 
L 369 603.694233 
" style="fill:none;stroke:#f6d746;"/>
    <path clip-path="url(#p137e3ac560)" d="M 150.727458 235.452878 
L 150.727466 480.947113 
" style="fill:none;stroke:#fca108;"/>
    <path clip-path="url(#p137e3ac560)" d="M 150.727466 480.947113 
L 612.451387 421.738568 
" style="fill:none;stroke:#f9c72f;"/>
    <path clip-path="url(#p137e3ac560)" d="M 242.980282 145.595755 
L 369 603.694233 
" style="fill:none;stroke:#f6d746;"/>
    <path clip-path="url(#p137e3ac560)" d="M 150.727466 480.947113 
L 547.218766 531.790645 
" style="fill:none;stroke:#fbb61a;"/>
    <path clip-path="url(#p137e3ac560)" d="M 495.019711 145.595748 
L 547.218766 531.790645 
" style="fill:none;stroke:#f9c72f;"/>
    <path clip-path="url(#p137e3ac560)" d="M 434.232596 595.329213 
L 612.451387 421.738568 
" style="fill:none;stroke:#f6d746;"/>
    <path clip-path="url(#p137e3ac560)" d="M 190.781225 184.609371 
L 434.232596 595.329213 
" style="fill:none;stroke:#f9c72f;"/>
    <path clip-path="url(#p137e3ac560)" d="M 303.7674 121.070787 
L 242.980282 145.595755 
" style="fill:none;stroke:#f9c72f;"/>
    <path clip-path="url(#p137e3ac560)" d="M 368.999996 112.705767 
L 242.980297 570.804247 
" style="fill:none;stroke:#f8cf3a;"/>
    <path clip-path="url(#p137e3ac560)" d="M 125.548613 294.66141 
L 242.980297 570.804247 
" style="fill:none;stroke:#f3e55d;"/>
    <path clip-path="url(#p137e3ac560)" d="M 612.451381 294.66142 
L 547.218766 531.790645 
" style="fill:none;stroke:#f3f586;"/>
    <path clip-path="url(#p137e3ac560)" d="M 303.7674 121.070787 
L 547.218766 531.790645 
" style="fill:none;stroke:#fbb61a;"/>
    <path clip-path="url(#p137e3ac560)" d="M 587.272544 480.947141 
L 612.451387 421.738568 
" style="fill:none;stroke:#f2ea69;"/>
    <path clip-path="url(#p137e3ac560)" d="M 125.548613 294.66141 
L 150.727466 480.947113 
" style="fill:none;stroke:#fbb61a;"/>
    <path clip-path="url(#p137e3ac560)" d="M 587.272537 235.452886 
L 369 603.694233 
" style="fill:none;stroke:#f4dd4f;"/>
    <path clip-path="url(#p137e3ac560)" d="M 621.039421 358.200002 
L 150.727466 480.947113 
" style="fill:none;stroke:#f1f179;"/>
    <path clip-path="url(#p137e3ac560)" d="M 368.999996 112.705767 
L 612.451387 421.738568 
" style="fill:none;stroke:#fb9706;"/>
    <path clip-path="url(#p137e3ac560)" d="M 547.218778 184.609369 
L 125.548613 294.66141 
" style="fill:none;stroke:#fbb61a;"/>
    <path clip-path="url(#p137e3ac560)" d="M 612.451381 294.66142 
L 190.781213 531.790631 
" style="fill:none;stroke:#f4dd4f;"/>
    <path clip-path="url(#p137e3ac560)" d="M 242.980282 145.595755 
L 190.781225 184.609371 
" style="fill:none;stroke:#f2ea69;"/>
    <path clip-path="url(#p137e3ac560)" d="M 495.019711 145.595748 
L 116.960579 358.200009 
" style="fill:none;stroke:#f1f179;"/>
    <path clip-path="url(#p137e3ac560)" d="M 587.272537 235.452886 
L 116.960579 358.200009 
" style="fill:none;stroke:#f9c72f;"/>
    <path clip-path="url(#p137e3ac560)" d="M 190.781213 531.790631 
L 434.232596 595.329213 
" style="fill:none;stroke:#f4dd4f;"/>
    <path clip-path="url(#p137e3ac560)" d="M 547.218778 184.609369 
L 303.7674 595.329234 
" style="fill:none;stroke:#f9c72f;"/>
    <path clip-path="url(#p137e3ac560)" d="M 150.727466 480.947113 
L 587.272544 480.947141 
" style="fill:none;stroke:#f2ea69;"/>
    <path clip-path="url(#p137e3ac560)" d="M 242.980297 570.804247 
L 303.7674 121.070787 
" style="fill:none;stroke:#000004;"/>
    <path clip-path="url(#p137e3ac560)" d="M 368.999996 112.705767 
L 150.727466 480.947113 
" style="fill:none;stroke:#f9c72f;"/>
    <path clip-path="url(#p137e3ac560)" d="M 125.548613 294.66141 
L 150.727458 235.452878 
" style="fill:none;stroke:#000004;"/>
    <path clip-path="url(#p137e3ac560)" d="M 303.7674 595.329234 
L 368.999996 112.705767 
" style="fill:none;stroke:#9a2865;"/>
    <path clip-path="url(#p137e3ac560)" d="M 190.781213 531.790631 
L 612.451387 421.738568 
" style="fill:none;stroke:#f6d746;"/>
    <path clip-path="url(#p137e3ac560)" d="M 621.039421 358.200002 
L 368.999996 112.705767 
" style="fill:none;stroke:#fca108;"/>
    <path clip-path="url(#p137e3ac560)" d="M 116.960579 358.200009 
L 125.548616 421.738587 
" style="fill:none;stroke:#f4dd4f;"/>
    <path clip-path="url(#p137e3ac560)" d="M 612.451381 294.66142 
L 242.980297 570.804247 
" style="fill:none;stroke:#f4dd4f;"/>
    <path clip-path="url(#p137e3ac560)" d="M 369 603.694233 
L 495.019711 145.595748 
" style="fill:none;stroke:#000004;"/>
    <path clip-path="url(#p137e3ac560)" d="M 125.548616 421.738587 
L 242.980297 570.804247 
" style="fill:none;stroke:#f4dd4f;"/>
    <path clip-path="url(#p137e3ac560)" d="M 587.272537 235.452886 
L 612.451387 421.738568 
" style="fill:none;stroke:#f4dd4f;"/>
    <path clip-path="url(#p137e3ac560)" d="M 368.999996 112.705767 
L 125.548613 294.66141 
" style="fill:none;stroke:#f98b0b;"/>
    <path clip-path="url(#p137e3ac560)" d="M 621.039421 358.200002 
L 125.548613 294.66141 
" style="fill:none;stroke:#f2ea69;"/>
    <path clip-path="url(#p137e3ac560)" d="M 612.451387 421.738568 
L 547.218766 531.790645 
" style="fill:none;stroke:#000004;"/>
    <path clip-path="url(#p137e3ac560)" d="M 547.218778 184.609369 
L 368.999996 112.705767 
" style="fill:none;stroke:#fbbe23;"/>
    <path clip-path="url(#p137e3ac560)" d="M 125.548613 294.66141 
L 190.781213 531.790631 
" style="fill:none;stroke:#fca108;"/>
    <path clip-path="url(#p137e3ac560)" d="M 612.451381 294.66142 
L 150.727458 235.452878 
" style="fill:none;stroke:#f8cf3a;"/>
    <path clip-path="url(#p137e3ac560)" d="M 190.781225 184.609371 
L 303.7674 121.070787 
" style="fill:none;stroke:#000004;"/>
    <path clip-path="url(#p137e3ac560)" d="M 303.7674 121.070787 
L 369 603.694233 
" style="fill:none;stroke:#f3e55d;"/>
    <path clip-path="url(#p137e3ac560)" d="M 303.7674 121.070787 
L 495.0197 570.804248 
" style="fill:none;stroke:#f6d746;"/>
    <path clip-path="url(#p137e3ac560)" d="M 368.999996 112.705767 
L 125.548616 421.738587 
" style="fill:none;stroke:#fbb61a;"/>
    <path clip-path="url(#p137e3ac560)" d="M 190.781225 184.609371 
L 495.0197 570.804248 
" style="fill:none;stroke:#fbbe23;"/>
    <path clip-path="url(#p137e3ac560)" d="M 242.980297 570.804247 
L 495.019711 145.595748 
" style="fill:none;stroke:#000004;"/>
    <path clip-path="url(#p137e3ac560)" d="M 150.727466 480.947113 
L 434.232596 595.329213 
" style="fill:none;stroke:#f1f179;"/>
    <path clip-path="url(#p137e3ac560)" d="M 434.232603 121.070785 
L 303.7674 595.329234 
" style="fill:none;stroke:#f6d746;"/>
    <path clip-path="url(#p137e3ac560)" d="M 116.960579 358.200009 
L 303.7674 121.070787 
" style="fill:none;stroke:#000004;"/>
    <path clip-path="url(#p137e3ac560)" d="M 150.727458 235.452878 
L 434.232596 595.329213 
" style="fill:none;stroke:#f8cf3a;"/>
    <path clip-path="url(#p137e3ac560)" d="M 621.039421 358.200002 
L 369 603.694233 
" style="fill:none;stroke:#f1f179;"/>
    <path clip-path="url(#p137e3ac560)" d="M 242.980297 570.804247 
L 612.451387 421.738568 
" style="fill:none;stroke:#f1f179;"/>
    <path clip-path="url(#p137e3ac560)" d="M 125.548616 421.738587 
L 368.999996 112.705767 
" style="fill:none;stroke:#000004;"/>
    <path clip-path="url(#p137e3ac560)" d="M 116.960579 358.200009 
L 369 603.694233 
" style="fill:none;stroke:#f6d746;"/>
    <path clip-path="url(#p137e3ac560)" d="M 612.451381 294.66142 
L 434.232596 595.329213 
" style="fill:none;stroke:#f4dd4f;"/>
    <path clip-path="url(#p137e3ac560)" d="M 621.039421 358.200002 
L 434.232603 121.070785 
" style="fill:none;stroke:#f6d746;"/>
    <path clip-path="url(#p137e3ac560)" d="M 190.781213 531.790631 
L 303.7674 121.070787 
" style="fill:none;stroke:#000004;"/>
    <path clip-path="url(#p137e3ac560)" d="M 125.548616 421.738587 
L 434.232596 595.329213 
" style="fill:none;stroke:#f3e55d;"/>
    <path clip-path="url(#p137e3ac560)" d="M 495.0197 570.804248 
L 434.232603 121.070785 
" style="fill:none;stroke:#450a69;"/>
    <path clip-path="url(#p137e3ac560)" d="M 369 603.694233 
L 547.218766 531.790645 
" style="fill:none;stroke:#fbbe23;"/>
    <path clip-path="url(#p137e3ac560)" d="M 621.039421 358.200002 
L 242.980282 145.595755 
" style="fill:none;stroke:#f2ea69;"/>
    <path clip-path="url(#p137e3ac560)" d="M 495.019711 145.595748 
L 125.548613 294.66141 
" style="fill:none;stroke:#fca108;"/>
    <path clip-path="url(#p137e3ac560)" d="M 547.218778 184.609369 
L 434.232603 121.070785 
" style="fill:none;stroke:#f4dd4f;"/>
    <path clip-path="url(#p137e3ac560)" d="M 587.272537 235.452886 
L 303.7674 121.070787 
" style="fill:none;stroke:#f9c72f;"/>
    <path clip-path="url(#p137e3ac560)" d="M 190.781225 184.609371 
L 125.548616 421.738587 
" style="fill:none;stroke:#f1f179;"/>
    <path clip-path="url(#p137e3ac560)" d="M 434.232603 121.070785 
L 150.727458 235.452878 
" style="fill:none;stroke:#f68013;"/>
    <path clip-path="url(#p137e3ac560)" d="M 495.019711 145.595748 
L 368.999996 112.705767 
" style="fill:none;stroke:#fbb61a;"/>
    <path clip-path="url(#p137e3ac560)" d="M 547.218778 184.609369 
L 587.272544 480.947141 
" style="fill:none;stroke:#f6d746;"/>
    <path clip-path="url(#p137e3ac560)" d="M 369 603.694233 
L 587.272544 480.947141 
" style="fill:none;stroke:#f6d746;"/>
    <path clip-path="url(#p137e3ac560)" d="M 242.980282 145.595755 
L 587.272544 480.947141 
" style="fill:none;stroke:#f4dd4f;"/>
    <path clip-path="url(#p137e3ac560)" d="M 621.039421 358.200002 
L 547.218766 531.790645 
" style="fill:none;stroke:#fcac11;"/>
    <path clip-path="url(#p137e3ac560)" d="M 434.232603 121.070785 
L 303.7674 121.070787 
" style="fill:none;stroke:#f6d746;"/>
    <path clip-path="url(#p137e3ac560)" d="M 495.019711 145.595748 
L 303.7674 595.329234 
" style="fill:none;stroke:#f9c72f;"/>
    <path clip-path="url(#p137e3ac560)" d="M 125.548613 294.66141 
L 547.218778 184.609369 
" style="fill:none;stroke:#771c6d;"/>
    <path clip-path="url(#p137e3ac560)" d="M 190.781225 184.609371 
L 612.451387 421.738568 
" style="fill:none;stroke:#f4dd4f;"/>
    <path clip-path="url(#p137e3ac560)" d="M 368.999996 112.705767 
L 495.0197 570.804248 
" style="fill:none;stroke:#f68013;"/>
    <path clip-path="url(#p137e3ac560)" d="M 434.232603 121.070785 
L 495.0197 570.804248 
" style="fill:none;stroke:#fcac11;"/>
    <path clip-path="url(#p137e3ac560)" d="M 369 603.694233 
L 368.999996 112.705767 
" style="fill:none;stroke:#000004;"/>
    <path clip-path="url(#p137e3ac560)" d="M 125.548613 294.66141 
L 495.0197 570.804248 
" style="fill:none;stroke:#f9c72f;"/>
    <path clip-path="url(#p137e3ac560)" d="M 150.727458 235.452878 
L 495.0197 570.804248 
" style="fill:none;stroke:#fbb61a;"/>
    <path clip-path="url(#p137e3ac560)" d="M 303.7674 595.329234 
L 116.960579 358.200009 
" style="fill:none;stroke:#000004;"/>
    <path clip-path="url(#p137e3ac560)" d="M 303.7674 121.070787 
L 303.7674 595.329234 
" style="fill:none;stroke:#f3e55d;"/>
    <path clip-path="url(#p137e3ac560)" d="M 303.7674 595.329234 
L 587.272544 480.947141 
" style="fill:none;stroke:#fbb61a;"/>
    <path clip-path="url(#p137e3ac560)" d="M 495.0197 570.804248 
L 190.781213 531.790631 
" style="fill:none;stroke:#450a69;"/>
    <path clip-path="url(#p137e3ac560)" d="M 190.781213 531.790631 
L 547.218766 531.790645 
" style="fill:none;stroke:#fbbe23;"/>
    <path clip-path="url(#p137e3ac560)" d="M 621.039421 358.200002 
L 587.272537 235.452886 
" style="fill:none;stroke:#f9c72f;"/>
    <path clip-path="url(#p137e3ac560)" d="M 125.548616 421.738587 
L 587.272544 480.947141 
" style="fill:none;stroke:#f1f179;"/>
    <path clip-path="url(#p137e3ac560)" d="M 547.218778 184.609369 
L 190.781213 531.790631 
" style="fill:none;stroke:#f8cf3a;"/>
    <path clip-path="url(#p137e3ac560)" d="M 612.451381 294.66142 
L 547.218778 184.609369 
" style="fill:none;stroke:#f2ea69;"/>
    <path clip-path="url(#p137e3ac560)" d="M 242.980282 145.595755 
L 125.548616 421.738587 
" style="fill:none;stroke:#f2ea69;"/>
    <path clip-path="url(#p137e3ac560)" d="M 495.019711 145.595748 
L 242.980282 145.595755 
" style="fill:none;stroke:#f9c72f;"/>
    <path clip-path="url(#p137e3ac560)" d="M 587.272537 235.452886 
L 242.980282 145.595755 
" style="fill:none;stroke:#fbbe23;"/>
    <path clip-path="url(#p137e3ac560)" d="M 434.232603 121.070785 
L 125.548616 421.738587 
" style="fill:none;stroke:#fbbe23;"/>
    <path clip-path="url(#p137e3ac560)" d="M 547.218778 184.609369 
L 547.218766 531.790645 
" style="fill:none;stroke:#f4dd4f;"/>
    <path clip-path="url(#p137e3ac560)" d="M 150.727458 235.452878 
L 190.781213 531.790631 
" style="fill:none;stroke:#f8cf3a;"/>
    <path clip-path="url(#p137e3ac560)" d="M 150.727466 480.947113 
L 303.7674 595.329234 
" style="fill:none;stroke:#f8cf3a;"/>
    <path clip-path="url(#p137e3ac560)" d="M 242.980282 145.595755 
L 434.232596 595.329213 
" style="fill:none;stroke:#f3e55d;"/>
    <path clip-path="url(#p137e3ac560)" d="M 368.999996 112.705767 
L 150.727458 235.452878 
" style="fill:none;stroke:#f68013;"/>
    <path clip-path="url(#p137e3ac560)" d="M 495.019711 145.595748 
L 587.272544 480.947141 
" style="fill:none;stroke:#f9c72f;"/>
    <path clip-path="url(#p137e3ac560)" d="M 434.232596 595.329213 
L 587.272544 480.947141 
" style="fill:none;stroke:#f8cf3a;"/>
    <path clip-path="url(#p137e3ac560)" d="M 368.999996 112.705767 
L 116.960579 358.200009 
" style="fill:none;stroke:#fbb61a;"/>
    <path clip-path="url(#p137e3ac560)" d="M 190.781225 184.609371 
L 369 603.694233 
" style="fill:none;stroke:#f4dd4f;"/>
    <path clip-path="url(#p137e3ac560)" d="M 303.7674 121.070787 
L 125.548613 294.66141 
" style="fill:none;stroke:#f9c72f;"/>
    <path clip-path="url(#p137e3ac560)" d="M 368.999996 112.705767 
L 303.7674 595.329234 
" style="fill:none;stroke:#fcac11;"/>
    <path clip-path="url(#p137e3ac560)" d="M 434.232603 121.070785 
L 612.451387 421.738568 
" style="fill:none;stroke:#f4dd4f;"/>
    <path clip-path="url(#p137e3ac560)" d="M 125.548613 294.66141 
L 434.232596 595.329213 
" style="fill:none;stroke:#fbb61a;"/>
    <path clip-path="url(#p137e3ac560)" d="M 612.451381 294.66142 
L 495.0197 570.804248 
" style="fill:none;stroke:#f1f179;"/>
    <path clip-path="url(#p137e3ac560)" d="M 303.7674 595.329234 
L 190.781213 531.790631 
" style="fill:none;stroke:#000004;"/>
    <path clip-path="url(#p137e3ac560)" d="M 242.980297 570.804247 
L 303.7674 595.329234 
" style="fill:none;stroke:#f9c72f;"/>
    <path clip-path="url(#p137e3ac560)" d="M 116.960579 358.200009 
L 495.0197 570.804248 
" style="fill:none;stroke:#fbb61a;"/>
    <path clip-path="url(#p137e3ac560)" d="M 587.272537 235.452886 
L 434.232596 595.329213 
" style="fill:none;stroke:#f4dd4f;"/>
    <path clip-path="url(#p137e3ac560)" d="M 621.039421 358.200002 
L 190.781213 531.790631 
" style="fill:none;stroke:#f3e55d;"/>
    <path clip-path="url(#p137e3ac560)" d="M 303.7674 121.070787 
L 434.232596 595.329213 
" style="fill:none;stroke:#f9c72f;"/>
    <path clip-path="url(#p137e3ac560)" d="M 303.7674 595.329234 
L 495.019711 145.595748 
" style="fill:none;stroke:#000004;"/>
    <path clip-path="url(#p137e3ac560)" d="M 434.232596 595.329213 
L 495.0197 570.804248 
" style="fill:none;stroke:#f9c72f;"/>
    <path clip-path="url(#p137e3ac560)" d="M 547.218778 184.609369 
L 150.727458 235.452878 
" style="fill:none;stroke:#fbb61a;"/>
    <path clip-path="url(#p137e3ac560)" d="M 612.451381 294.66142 
L 150.727466 480.947113 
" style="fill:none;stroke:#f2ea69;"/>
    <path clip-path="url(#p137e3ac560)" d="M 242.980282 145.595755 
L 150.727458 235.452878 
" style="fill:none;stroke:#fbbe23;"/>
    <path clip-path="url(#p137e3ac560)" d="M 495.019711 145.595748 
L 125.548616 421.738587 
" style="fill:none;stroke:#f9c72f;"/>
    <path clip-path="url(#p137e3ac560)" d="M 587.272537 235.452886 
L 125.548616 421.738587 
" style="fill:none;stroke:#f8cf3a;"/>
    <path clip-path="url(#p137e3ac560)" d="M 190.781225 184.609371 
L 125.548613 294.66141 
" style="fill:none;stroke:#f3e55d;"/>
    <path clip-path="url(#p137e3ac560)" d="M 612.451387 421.738568 
L 190.781213 531.790631 
" style="fill:none;stroke:#000004;"/>
    <path clip-path="url(#p137e3ac560)" d="M 369 603.694233 
L 434.232603 121.070785 
" style="fill:none;stroke:#000004;"/>
    <path clip-path="url(#p137e3ac560)" d="M 547.218778 184.609369 
L 242.980297 570.804247 
" style="fill:none;stroke:#f6d746;"/>
    <path clip-path="url(#p137e3ac560)" d="M 242.980282 145.595755 
L 242.980297 570.804247 
" style="fill:none;stroke:#f3e55d;"/>
    <path clip-path="url(#p137e3ac560)" d="M 368.999996 112.705767 
L 190.781213 531.790631 
" style="fill:none;stroke:#f8cf3a;"/>
    <path clip-path="url(#p137e3ac560)" d="M 434.232596 595.329213 
L 547.218766 531.790645 
" style="fill:none;stroke:#f6d746;"/>
    <path clip-path="url(#p137e3ac560)" d="M 303.7674 595.329234 
L 434.232603 121.070785 
" style="fill:none;stroke:#771c6d;"/>
    <path clip-path="url(#p137e3ac560)" d="M 303.7674 121.070787 
L 150.727466 480.947113 
" style="fill:none;stroke:#f3f586;"/>
    <path clip-path="url(#p137e3ac560)" d="M 368.999996 112.705767 
L 369 603.694233 
" style="fill:none;stroke:#fbbe23;"/>
    <path clip-path="url(#p137e3ac560)" d="M 495.0197 570.804248 
L 587.272544 480.947141 
" style="fill:none;stroke:#f6d746;"/>
    <path clip-path="url(#p137e3ac560)" d="M 434.232596 595.329213 
L 368.999996 112.705767 
" style="fill:none;stroke:#450a69;"/>
    <path clip-path="url(#p137e3ac560)" d="M 612.451381 294.66142 
L 612.451387 421.738568 
" style="fill:none;stroke:#f1f179;"/>
    <path clip-path="url(#p137e3ac560)" d="M 303.7674 595.329234 
L 150.727458 235.452878 
" style="fill:none;stroke:#450a69;"/>
    <path clip-path="url(#p137e3ac560)" d="M 547.218766 531.790645 
L 612.451387 421.738568 
" style="fill:none;stroke:#f3f586;"/>
    <path clip-path="url(#p137e3ac560)" d="M 587.272537 235.452886 
L 495.0197 570.804248 
" style="fill:none;stroke:#fbbe23;"/>
    <path clip-path="url(#p137e3ac560)" d="M 612.451381 294.66142 
L 495.019711 145.595748 
" style="fill:none;stroke:#f4dd4f;"/>
    <path clip-path="url(#p137e3ac560)" d="M 621.039421 358.200002 
L 116.960579 358.200009 
" style="fill:none;stroke:#f3e55d;"/>
    <path clip-path="url(#p137e3ac560)" d="M 495.0197 570.804248 
L 612.451387 421.738568 
" style="fill:none;stroke:#f3e55d;"/>
    <path clip-path="url(#p137e3ac560)" d="M 547.218778 184.609369 
L 190.781225 184.609371 
" style="fill:none;stroke:#fbb61a;"/>
    <path clip-path="url(#p137e3ac560)" d="M 587.272537 235.452886 
L 547.218778 184.609369 
" style="fill:none;stroke:#f8cf3a;"/>
    <path clip-path="url(#p137e3ac560)" d="M 612.451381 294.66142 
L 190.781225 184.609371 
" style="fill:none;stroke:#f2ea69;"/>
    <path clip-path="url(#p137e3ac560)" d="M 242.980282 145.595755 
L 303.7674 121.070787 
" style="fill:none;stroke:#000004;"/>
    <path clip-path="url(#p137e3ac560)" d="M 621.039421 358.200002 
L 495.019711 145.595748 
" style="fill:none;stroke:#f3e55d;"/>
    <path clip-path="url(#p137e3ac560)" d="M 587.272537 235.452886 
L 150.727466 480.947113 
" style="fill:none;stroke:#f2ea69;"/>
    <path clip-path="url(#p137e3ac560)" d="M 150.727458 235.452878 
L 434.232603 121.070785 
" style="fill:none;stroke:#000004;"/>
    <path clip-path="url(#p137e3ac560)" d="M 242.980297 570.804247 
L 434.232603 121.070785 
" style="fill:none;stroke:#000004;"/>
    <path clip-path="url(#p137e3ac560)" d="M 368.999996 112.705767 
L 242.980282 145.595755 
" style="fill:none;stroke:#fb9706;"/>
    <path clip-path="url(#p137e3ac560)" d="M 434.232603 121.070785 
L 242.980297 570.804247 
" style="fill:none;stroke:#f4dd4f;"/>
    <path clip-path="url(#p137e3ac560)" d="M 150.727458 235.452878 
L 242.980297 570.804247 
" style="fill:none;stroke:#fbb61a;"/>
    <path clip-path="url(#p137e3ac560)" d="M 621.039421 358.200002 
L 434.232596 595.329213 
" style="fill:none;stroke:#f8cf3a;"/>
    <path clip-path="url(#p137e3ac560)" d="M 303.7674 121.070787 
L 125.548616 421.738587 
" style="fill:none;stroke:#f2ea69;"/>
    <path clip-path="url(#p137e3ac560)" d="M 150.727466 480.947113 
L 303.7674 121.070787 
" style="fill:none;stroke:#000004;"/>
    <path clip-path="url(#p137e3ac560)" d="M 116.960579 358.200009 
L 434.232596 595.329213 
" style="fill:none;stroke:#fbbe23;"/>
    <path clip-path="url(#p137e3ac560)" d="M 612.451381 294.66142 
L 369 603.694233 
" style="fill:none;stroke:#f4dd4f;"/>
    <path clip-path="url(#p137e3ac560)" d="M 303.7674 595.329234 
L 547.218766 531.790645 
" style="fill:none;stroke:#fbbe23;"/>
    <path clip-path="url(#p137e3ac560)" d="M 621.039421 358.200002 
L 242.980297 570.804247 
" style="fill:none;stroke:#f3e55d;"/>
    <path clip-path="url(#p137e3ac560)" d="M 125.548616 421.738587 
L 369 603.694233 
" style="fill:none;stroke:#f2ea69;"/>
    <path clip-path="url(#p137e3ac560)" d="M 190.781213 531.790631 
L 303.7674 595.329234 
" style="fill:none;stroke:#fbb61a;"/>
    <path clip-path="url(#p137e3ac560)" d="M 612.451381 294.66142 
L 303.7674 121.070787 
" style="fill:none;stroke:#f3f586;"/>
    <path clip-path="url(#p137e3ac560)" d="M 621.039421 358.200002 
L 190.781225 184.609371 
" style="fill:none;stroke:#f6d746;"/>
    <path clip-path="url(#p137e3ac560)" d="M 303.7674 121.070787 
L 242.980297 570.804247 
" style="fill:none;stroke:#f6d746;"/>
    <path clip-path="url(#p137e3ac560)" d="M 547.218766 531.790645 
L 303.7674 121.070787 
" style="fill:none;stroke:#000004;"/>
    <path clip-path="url(#p137e3ac560)" d="M 547.218778 184.609369 
L 495.019711 145.595748 
" style="fill:none;stroke:#fcac11;"/>
    <path clip-path="url(#p137e3ac560)" d="M 587.272537 235.452886 
L 495.019711 145.595748 
" style="fill:none;stroke:#f2ea69;"/>
    <path clip-path="url(#p137e3ac560)" d="M 190.781225 184.609371 
L 116.960579 358.200009 
" style="fill:none;stroke:#f3e55d;"/>
    <path clip-path="url(#p137e3ac560)" d="M 434.232603 121.070785 
L 190.781225 184.609371 
" style="fill:none;stroke:#f9c72f;"/>
    <path clip-path="url(#p137e3ac560)" d="M 303.7674 595.329234 
L 434.232596 595.329213 
" style="fill:none;stroke:#f8cf3a;"/>
    <path clip-path="url(#p137e3ac560)" d="M 150.727458 235.452878 
L 125.548613 294.66141 
" style="fill:none;stroke:#f4dd4f;"/>
    <path clip-path="url(#p137e3ac560)" d="M 242.980282 145.595755 
L 612.451387 421.738568 
" style="fill:none;stroke:#f3e55d;"/>
    <path clip-path="url(#p137e3ac560)" d="M 621.039421 358.200002 
L 587.272544 480.947141 
" style="fill:none;stroke:#f3e55d;"/>
    <path clip-path="url(#p137e3ac560)" d="M 434.232603 121.070785 
L 368.999996 112.705767 
" style="fill:none;stroke:#fbb61a;"/>
    <path clip-path="url(#p137e3ac560)" d="M 495.019711 145.595748 
L 369 603.694233 
" style="fill:none;stroke:#f9c72f;"/>
    <path clip-path="url(#p137e3ac560)" d="M 150.727458 235.452878 
L 368.999996 112.705767 
" style="fill:none;stroke:#000004;"/>
    <path clip-path="url(#p137e3ac560)" d="M 190.781225 184.609371 
L 587.272544 480.947141 
" style="fill:none;stroke:#f6d746;"/>
    <path clip-path="url(#p137e3ac560)" d="M 190.781213 531.790631 
L 587.272544 480.947141 
" style="fill:none;stroke:#f9c72f;"/>
    <path clip-path="url(#p137e3ac560)" d="M 368.999996 112.705767 
L 547.218766 531.790645 
" style="fill:none;stroke:#fcac11;"/>
    <path clip-path="url(#p137e3ac560)" d="M 434.232603 121.070785 
L 434.232596 595.329213 
" style="fill:none;stroke:#fbbe23;"/>
    <path clip-path="url(#p137e3ac560)" d="M 125.548613 294.66141 
L 612.451387 421.738568 
" style="fill:none;stroke:#fbbe23;"/>
    <path clip-path="url(#p137e3ac560)" d="M 150.727458 235.452878 
L 547.218766 531.790645 
" style="fill:none;stroke:#f9c72f;"/>
    <path clip-path="url(#p137e3ac560)" d="M 303.7674 595.329234 
L 547.218778 184.609369 
" style="fill:none;stroke:#450a69;"/>
    <path clip-path="url(#p137e3ac560)" d="M 242.980297 570.804247 
L 547.218766 531.790645 
" style="fill:none;stroke:#f4dd4f;"/>
    <path clip-path="url(#p137e3ac560)" d="M 116.960579 358.200009 
L 242.980297 570.804247 
" style="fill:none;stroke:#f4dd4f;"/>
    <path clip-path="url(#p137e3ac560)" d="M 242.980297 570.804247 
L 587.272537 235.452886 
" style="fill:none;stroke:#000004;"/>
    <path clip-path="url(#p137e3ac560)" d="M 621.039421 358.200002 
L 547.218778 184.609369 
" style="fill:none;stroke:#f3e55d;"/>
    <path clip-path="url(#p137e3ac560)" d="M 190.781213 531.790631 
L 434.232603 121.070785 
" style="fill:none;stroke:#000004;"/>
    <path clip-path="url(#p137e3ac560)" d="M 125.548616 421.738587 
L 547.218766 531.790645 
" style="fill:none;stroke:#f8cf3a;"/>
    <path clip-path="url(#p137e3ac560)" d="M 547.218778 184.609369 
L 150.727466 480.947113 
" style="fill:none;stroke:#f3e55d;"/>
    <path clip-path="url(#p137e3ac560)" d="M 116.960579 358.200009 
L 150.727466 480.947113 
" style="fill:none;stroke:#f9c72f;"/>
    <path clip-path="url(#p137e3ac560)" d="M 612.451381 294.66142 
L 587.272537 235.452886 
" style="fill:none;stroke:#f2ea69;"/>
    <path clip-path="url(#p137e3ac560)" d="M 242.980282 145.595755 
L 150.727466 480.947113 
" style="fill:none;stroke:#f3f586;"/>
    <path clip-path="url(#p137e3ac560)" d="M 495.019711 145.595748 
L 190.781225 184.609371 
" style="fill:none;stroke:#f6d746;"/>
    <path clip-path="url(#p137e3ac560)" d="M 587.272537 235.452886 
L 190.781225 184.609371 
" style="fill:none;stroke:#f8cf3a;"/>
    <path clip-path="url(#p137e3ac560)" d="M 190.781225 184.609371 
L 190.781213 531.790631 
" style="fill:none;stroke:#fcac11;"/>
    <path clip-path="url(#p137e3ac560)" d="M 150.727458 235.452878 
L 547.218778 184.609369 
" style="fill:none;stroke:#450a69;"/>
    <path clip-path="url(#p137e3ac560)" d="M 242.980297 570.804247 
L 150.727458 235.452878 
" style="fill:none;stroke:#450a69;"/>
    <path clip-path="url(#p137e3ac560)" d="M 547.218778 184.609369 
L 495.0197 570.804248 
" style="fill:none;stroke:#f6d746;"/>
    <path clip-path="url(#p137e3ac560)" d="M 150.727458 235.452878 
L 116.960579 358.200009 
" style="fill:none;stroke:#f6d746;"/>
    <path clip-path="url(#p137e3ac560)" d="M 242.980282 145.595755 
L 495.0197 570.804248 
" style="fill:none;stroke:#f9c72f;"/>
    <path clip-path="url(#p137e3ac560)" d="M 495.019711 145.595748 
L 434.232603 121.070785 
" style="fill:none;stroke:#f4dd4f;"/>
    <path clip-path="url(#p137e3ac560)" d="M 495.019711 145.595748 
L 612.451387 421.738568 
" style="fill:none;stroke:#fcac11;"/>
    <path clip-path="url(#p137e3ac560)" d="M 125.548613 294.66141 
L 612.451381 294.66142 
" style="fill:none;stroke:#000004;"/>
    <path clip-path="url(#p137e3ac560)" d="M 190.781225 184.609371 
L 303.7674 595.329234 
" style="fill:none;stroke:#f2ea69;"/>
    <path clip-path="url(#p137e3ac560)" d="M 190.781213 531.790631 
L 369 603.694233 
" style="fill:none;stroke:#f8cf3a;"/>
    <path clip-path="url(#p137e3ac560)" d="M 495.0197 570.804248 
L 125.548616 421.738587 
" style="fill:none;stroke:#000004;"/>
    <path clip-path="url(#p137e3ac560)" d="M 434.232603 121.070785 
L 587.272544 480.947141 
" style="fill:none;stroke:#fb9706;"/>
    <path clip-path="url(#p137e3ac560)" d="M 434.232596 595.329213 
L 116.960579 358.200009 
" style="fill:none;stroke:#000004;"/>
    <path clip-path="url(#p137e3ac560)" d="M 125.548613 294.66141 
L 369 603.694233 
" style="fill:none;stroke:#f9c72f;"/>
    <path clip-path="url(#p137e3ac560)" d="M 150.727458 235.452878 
L 587.272544 480.947141 
" style="fill:none;stroke:#f9c72f;"/>
    <path clip-path="url(#p137e3ac560)" d="M 242.980297 570.804247 
L 369 603.694233 
" style="fill:none;stroke:#f4dd4f;"/>
    <path clip-path="url(#p137e3ac560)" d="M 116.960579 358.200009 
L 547.218766 531.790645 
" style="fill:none;stroke:#f4dd4f;"/>
    <path clip-path="url(#p137e3ac560)" d="M 587.272537 235.452886 
L 242.980297 570.804247 
" style="fill:none;stroke:#f3e55d;"/>
    <path clip-path="url(#p137e3ac560)" d="M 369 603.694233 
L 125.548616 421.738587 
" style="fill:none;stroke:#000004;"/>
    <path clip-path="url(#p137e3ac560)" d="M 125.548616 421.738587 
L 190.781213 531.790631 
" style="fill:none;stroke:#f6d746;"/>
    <path clip-path="url(#p137e3ac560)" d="M 547.218778 184.609369 
L 125.548616 421.738587 
" style="fill:none;stroke:#f8cf3a;"/>
    <path clip-path="url(#p137e3ac560)" d="M 612.451381 294.66142 
L 125.548616 421.738587 
" style="fill:none;stroke:#fcffa4;"/>
    <path clip-path="url(#p137e3ac560)" d="M 242.980282 145.595755 
L 125.548613 294.66141 
" style="fill:none;stroke:#fbbe23;"/>
    <path clip-path="url(#p137e3ac560)" d="M 242.980297 570.804247 
L 495.0197 570.804248 
" style="fill:none;stroke:#fcac11;"/>
    <path clip-path="url(#p137e3ac560)" d="M 242.980297 570.804247 
L 125.548613 294.66141 
" style="fill:none;stroke:#000004;"/>
    <path clip-path="url(#p137e3ac560)" d="M 495.019711 145.595748 
L 150.727466 480.947113 
" style="fill:none;stroke:#f6d746;"/>
    <path clip-path="url(#p137e3ac560)" d="M 587.272537 235.452886 
L 150.727458 235.452878 
" style="fill:none;stroke:#fcac11;"/>
    <path clip-path="url(#p137e3ac560)" d="M 190.781225 184.609371 
L 150.727458 235.452878 
" style="fill:none;stroke:#fb9706;"/>
    <path clip-path="url(#p137e3ac560)" d="M 434.232603 121.070785 
L 190.781213 531.790631 
" style="fill:none;stroke:#fb9706;"/>
    <path clip-path="url(#p137e3ac560)" d="M 547.218778 184.609369 
L 434.232596 595.329213 
" style="fill:none;stroke:#f2ea69;"/>
    <path clip-path="url(#p137e3ac560)" d="M 303.7674 121.070787 
L 116.960579 358.200009 
" style="fill:none;stroke:#f8cf3a;"/>
    <path clip-path="url(#p137e3ac560)" d="M 242.980282 145.595755 
L 303.7674 595.329234 
" style="fill:none;stroke:#f6d746;"/>
    <path clip-path="url(#p137e3ac560)" d="M 150.727466 480.947113 
L 495.0197 570.804248 
" style="fill:none;stroke:#fbbe23;"/>
    <path clip-path="url(#p137e3ac560)" d="M 495.019711 145.595748 
L 495.0197 570.804248 
" style="fill:none;stroke:#fcac11;"/>
    <path clip-path="url(#p137e3ac560)" d="M 125.548613 294.66141 
L 116.960579 358.200009 
" style="fill:none;stroke:#fcac11;"/>
    <path clip-path="url(#p137e3ac560)" d="M 116.960579 358.200009 
L 612.451387 421.738568 
" style="fill:none;stroke:#f3f586;"/>
    <path clip-path="url(#p137e3ac560)" d="M 621.039421 358.200002 
L 612.451387 421.738568 
" style="fill:none;stroke:#f6d746;"/>
    <path clip-path="url(#p137e3ac560)" d="M 303.7674 121.070787 
L 190.781225 184.609371 
" style="fill:none;stroke:#f8cf3a;"/>
    <path clip-path="url(#p137e3ac560)" d="M 368.999996 112.705767 
L 434.232596 595.329213 
" style="fill:none;stroke:#fbb61a;"/>
    <path clip-path="url(#p137e3ac560)" d="M 434.232596 595.329213 
L 150.727466 480.947113 
" style="fill:none;stroke:#000004;"/>
    <path clip-path="url(#p137e3ac560)" d="M 116.960579 358.200009 
L 190.781213 531.790631 
" style="fill:none;stroke:#f8cf3a;"/>
    <path clip-path="url(#p137e3ac560)" d="M 125.548613 294.66141 
L 303.7674 595.329234 
" style="fill:none;stroke:#fbbe23;"/>
    <path clip-path="url(#p137e3ac560)" d="M 612.451381 294.66142 
L 587.272544 480.947141 
" style="fill:none;stroke:#f3e55d;"/>
    <path clip-path="url(#p137e3ac560)" d="M 495.019711 145.595748 
L 303.7674 121.070787 
" style="fill:none;stroke:#fcac11;"/>
    <path clip-path="url(#p137e3ac560)" d="M 547.218766 531.790645 
L 587.272544 480.947141 
" style="fill:none;stroke:#f6d746;"/>
    <path clip-path="url(#p137e3ac560)" d="M 587.272537 235.452886 
L 547.218766 531.790645 
" style="fill:none;stroke:#f4dd4f;"/>
    <path clip-path="url(#p137e3ac560)" d="M 369 603.694233 
L 150.727466 480.947113 
" style="fill:none;stroke:#000004;"/>
    <path clip-path="url(#p137e3ac560)" d="M 621.039421 358.200002 
L 125.548616 421.738587 
" style="fill:none;stroke:#f1f179;"/>
    <path clip-path="url(#p137e3ac560)" d="M 547.218778 184.609369 
L 242.980282 145.595755 
" style="fill:none;stroke:#f4dd4f;"/>
    <path clip-path="url(#p137e3ac560)" d="M 495.0197 570.804248 
L 547.218766 531.790645 
" style="fill:none;stroke:#fbb61a;"/>
    <path clip-path="url(#p137e3ac560)" d="M 612.451381 294.66142 
L 242.980282 145.595755 
" style="fill:none;stroke:#f6d746;"/>
    <path clip-path="url(#p137e3ac560)" d="M 587.272537 235.452886 
L 190.781213 531.790631 
" style="fill:none;stroke:#f6d746;"/>
    <path clip-path="url(#p137e3ac560)" d="M 190.781225 184.609371 
L 434.232603 121.070785 
" style="fill:none;stroke:#000004;"/>
    <path clip-path="url(#p137e3ac560)" d="M 190.781213 531.790631 
L 242.980297 570.804247 
" style="fill:none;stroke:#fbb61a;"/>
    <path clip-path="url(#p137e3ac560)" d="M 495.0197 570.804248 
L 150.727466 480.947113 
" style="fill:none;stroke:#000004;"/>
    <path clip-path="url(#p137e3ac560)" d="M 434.232603 121.070785 
L 116.960579 358.200009 
" style="fill:none;stroke:#f4dd4f;"/>
    <path clip-path="url(#p137e3ac560)" d="M 125.548613 294.66141 
L 368.999996 112.705767 
" style="fill:none;stroke:#000004;"/>
   </g>
   <g id="PathCollection_1">
    <defs>
     <path d="M 0 3.535534 
C 0.937635 3.535534 1.836992 3.163008 2.5 2.5 
C 3.163008 1.836992 3.535534 0.937635 3.535534 0 
C 3.535534 -0.937635 3.163008 -1.836992 2.5 -2.5 
C 1.836992 -3.163008 0.937635 -3.535534 0 -3.535534 
C -0.937635 -3.535534 -1.836992 -3.163008 -2.5 -2.5 
C -3.163008 -1.836992 -3.535534 -0.937635 -3.535534 0 
C -3.535534 0.937635 -3.163008 1.836992 -2.5 2.5 
C -1.836992 3.163008 -0.937635 3.535534 0 3.535534 
z
" id="md1dfc9b537" style="stroke:#666666;"/>
    </defs>
    <g clip-path="url(#p137e3ac560)">
     <use style="fill:#666666;stroke:#666666;" x="621.039421" xlink:href="#md1dfc9b537" y="358.200002"/>
     <use style="fill:#666666;stroke:#666666;" x="612.451381" xlink:href="#md1dfc9b537" y="294.66142"/>
     <use style="fill:#666666;stroke:#666666;" x="587.272537" xlink:href="#md1dfc9b537" y="235.452886"/>
     <use style="fill:#666666;stroke:#666666;" x="547.218778" xlink:href="#md1dfc9b537" y="184.609369"/>
     <use style="fill:#666666;stroke:#666666;" x="495.019711" xlink:href="#md1dfc9b537" y="145.595748"/>
     <use style="fill:#666666;stroke:#666666;" x="434.232603" xlink:href="#md1dfc9b537" y="121.070785"/>
     <use style="fill:#666666;stroke:#666666;" x="368.999996" xlink:href="#md1dfc9b537" y="112.705767"/>
     <use style="fill:#666666;stroke:#666666;" x="303.7674" xlink:href="#md1dfc9b537" y="121.070787"/>
     <use style="fill:#666666;stroke:#666666;" x="242.980282" xlink:href="#md1dfc9b537" y="145.595755"/>
     <use style="fill:#666666;stroke:#666666;" x="190.781225" xlink:href="#md1dfc9b537" y="184.609371"/>
     <use style="fill:#666666;stroke:#666666;" x="150.727458" xlink:href="#md1dfc9b537" y="235.452878"/>
     <use style="fill:#666666;stroke:#666666;" x="125.548613" xlink:href="#md1dfc9b537" y="294.66141"/>
     <use style="fill:#666666;stroke:#666666;" x="116.960579" xlink:href="#md1dfc9b537" y="358.200009"/>
     <use style="fill:#666666;stroke:#666666;" x="125.548616" xlink:href="#md1dfc9b537" y="421.738587"/>
     <use style="fill:#666666;stroke:#666666;" x="150.727466" xlink:href="#md1dfc9b537" y="480.947113"/>
     <use style="fill:#666666;stroke:#666666;" x="190.781213" xlink:href="#md1dfc9b537" y="531.790631"/>
     <use style="fill:#666666;stroke:#666666;" x="242.980297" xlink:href="#md1dfc9b537" y="570.804247"/>
     <use style="fill:#666666;stroke:#666666;" x="303.7674" xlink:href="#md1dfc9b537" y="595.329234"/>
     <use style="fill:#666666;stroke:#666666;" x="369" xlink:href="#md1dfc9b537" y="603.694233"/>
     <use style="fill:#666666;stroke:#666666;" x="434.232596" xlink:href="#md1dfc9b537" y="595.329213"/>
     <use style="fill:#666666;stroke:#666666;" x="495.0197" xlink:href="#md1dfc9b537" y="570.804248"/>
     <use style="fill:#666666;stroke:#666666;" x="547.218766" xlink:href="#md1dfc9b537" y="531.790645"/>
     <use style="fill:#666666;stroke:#666666;" x="587.272544" xlink:href="#md1dfc9b537" y="480.947141"/>
     <use style="fill:#666666;stroke:#666666;" x="612.451387" xlink:href="#md1dfc9b537" y="421.738568"/>
    </g>
   </g>
   <g id="text_1">
    <!-- Weighted Network -->
    <defs>
     <path d="M 61.703125 51.09375 
Q 58.796875 43.59375 54.9375 35.4375 
Q 51.09375 27.296875 45.796875 19.296875 
Q 44.296875 17 42.40625 17 
Q 41.203125 17 40.390625 17.546875 
Q 39.59375 18.09375 39 19 
Q 36.40625 23 34.296875 27.5 
Q 32.203125 32 30.203125 37.703125 
Q 27.296875 32.59375 23.75 27.390625 
Q 20.203125 22.203125 16 17.703125 
Q 15.203125 16.796875 14.34375 16.5 
Q 13.5 16.203125 13 16.296875 
Q 10.90625 16.59375 9.703125 18.90625 
Q 6 25.796875 4.703125 34.09375 
Q 3.40625 42.40625 3.296875 51.09375 
Q 3.296875 51.90625 3.890625 52.703125 
Q 4.5 53.5 5.703125 53.40625 
Q 7.5 53.296875 8.5 52.046875 
Q 9.5 50.796875 9.703125 49 
Q 9.90625 46.5 10.203125 43.34375 
Q 10.5 40.203125 11 36.890625 
Q 11.5 33.59375 12.296875 30.5 
Q 13.09375 27.40625 14.296875 25.09375 
Q 15.796875 27 17.5 29.296875 
Q 19.203125 31.59375 20.84375 34.09375 
Q 22.5 36.59375 24 39.140625 
Q 25.5 41.703125 26.703125 44.203125 
Q 27.5 45.90625 28.703125 46.40625 
Q 29.90625 46.90625 30.59375 46.90625 
Q 33.59375 46.90625 34.703125 44 
Q 36.40625 39.796875 38.15625 35.09375 
Q 39.90625 30.40625 42 26.203125 
Q 43.796875 29 45.6875 32.5 
Q 47.59375 36 49.390625 39.640625 
Q 51.203125 43.296875 52.84375 47 
Q 54.5 50.703125 55.796875 54 
Q 56.296875 55.203125 57.5 56 
Q 58.703125 56.796875 60.09375 55.90625 
Q 61.203125 55.203125 61.640625 53.640625 
Q 62.09375 52.09375 61.703125 51.09375 
z
" id="NanumPen-Regular-87"/>
     <path d="M 28.296875 36 
Q 24.40625 33.703125 19.90625 32.453125 
Q 15.40625 31.203125 10.203125 31.203125 
Q 10.40625 27.703125 12.203125 25.640625 
Q 14 23.59375 16.703125 23.203125 
Q 18.296875 23 19.9375 23.296875 
Q 21.59375 23.59375 23.046875 24.25 
Q 24.5 24.90625 25.703125 25.703125 
Q 26.90625 26.5 27.796875 27.296875 
Q 28.703125 28.09375 29.703125 28.34375 
Q 30.703125 28.59375 31.203125 28.40625 
Q 32.59375 27.90625 32.203125 25.40625 
Q 30.59375 22.203125 27.59375 19.953125 
Q 24.59375 17.703125 20.90625 17.09375 
Q 17.703125 16.5 14.296875 17.390625 
Q 10.90625 18.296875 8.203125 20.90625 
Q 5.90625 23.203125 4.703125 26.296875 
Q 3.5 29.40625 3.203125 32.703125 
Q 2.90625 35.796875 3.75 38.59375 
Q 4.59375 41.40625 6.390625 43.546875 
Q 8.203125 45.703125 10.890625 47.09375 
Q 13.59375 48.5 17.203125 48.703125 
Q 21.5 49 25 47.09375 
Q 28.5 45.203125 29.90625 41.796875 
Q 30.703125 39.90625 30.34375 38.5 
Q 30 37.09375 28.296875 36 
z
M 16.796875 42.796875 
Q 15.796875 42.59375 14.640625 42.09375 
Q 13.5 41.59375 12.546875 40.84375 
Q 11.59375 40.09375 10.84375 39.140625 
Q 10.09375 38.203125 10 37 
Q 11.703125 37 13.75 37.296875 
Q 15.796875 37.59375 17.75 38.046875 
Q 19.703125 38.5 21.34375 39.09375 
Q 23 39.703125 24.09375 40.40625 
Q 23.296875 42.296875 21.140625 42.75 
Q 19 43.203125 16.796875 42.796875 
z
" id="NanumPen-Regular-101"/>
     <path d="M 20.90625 53.296875 
Q 20.703125 52.296875 19.5 52.1875 
Q 18.296875 52.09375 17.5 52.09375 
Q 15 52 12.34375 51.59375 
Q 9.703125 51.203125 6.796875 50.40625 
Q 5.59375 50 4.1875 50.703125 
Q 2.796875 51.40625 2.5 53.5 
Q 2.5 54.296875 3.09375 54.796875 
Q 3.703125 55.296875 4.5 55.703125 
Q 5.796875 56.296875 7.59375 56.75 
Q 9.40625 57.203125 11.25 57.390625 
Q 13.09375 57.59375 14.796875 57.546875 
Q 16.5 57.5 17.59375 57.203125 
Q 19.203125 56.703125 20.140625 55.703125 
Q 21.09375 54.703125 20.90625 53.296875 
z
M 18.59375 20 
Q 19.296875 18.40625 19.34375 16.546875 
Q 19.40625 14.703125 18.296875 14 
Q 16.90625 13.09375 15.296875 14.09375 
Q 13.703125 15.09375 12.90625 16.796875 
Q 11.796875 18.90625 11.1875 21.953125 
Q 10.59375 25 10.296875 28 
Q 10 31 9.953125 33.59375 
Q 9.90625 36.203125 9.90625 37.5 
Q 10 38.90625 10.703125 40.09375 
Q 11.40625 41.296875 12.5 41.5 
Q 14.296875 41.40625 15.390625 39.84375 
Q 16.5 38.296875 16.40625 36 
Q 16.40625 34.203125 16.5 32 
Q 16.59375 29.796875 16.890625 27.59375 
Q 17.203125 25.40625 17.59375 23.34375 
Q 18 21.296875 18.59375 20 
z
" id="NanumPen-Regular-105"/>
     <path d="M 22.296875 40.09375 
Q 23.09375 39 23.84375 37.34375 
Q 24.59375 35.703125 25 34 
Q 25.59375 31.296875 26.34375 28.140625 
Q 27.09375 25 27.84375 21.59375 
Q 28.59375 18.203125 29.25 14.703125 
Q 29.90625 11.203125 30.40625 8 
Q 31 3.59375 29.75 -0.453125 
Q 28.5 -4.5 25.59375 -7.703125 
Q 22.703125 -10.90625 18.390625 -12.796875 
Q 14.09375 -14.703125 8.703125 -14.90625 
Q 7.5 -14.796875 6.203125 -13.75 
Q 4.90625 -12.703125 4.90625 -11.59375 
Q 4.796875 -10.5 5.9375 -9.84375 
Q 7.09375 -9.203125 8.296875 -9 
Q 10.40625 -8.796875 12.65625 -8.140625 
Q 14.90625 -7.5 16.90625 -6.296875 
Q 18.90625 -5.09375 20.546875 -3.390625 
Q 22.203125 -1.703125 23.09375 0.59375 
Q 23.796875 2.40625 23.796875 5.046875 
Q 23.796875 7.703125 23.4375 10.296875 
Q 23.09375 12.90625 22.546875 15.25 
Q 22 17.59375 21.59375 18.796875 
Q 20.90625 18.09375 19.84375 17.296875 
Q 18.796875 16.5 17.5 15.796875 
Q 16.203125 15.09375 14.640625 14.6875 
Q 13.09375 14.296875 11.5 14.40625 
Q 9.796875 14.5 8.34375 15.59375 
Q 6.90625 16.703125 5.796875 18.453125 
Q 4.703125 20.203125 4.046875 22.5 
Q 3.40625 24.796875 3.40625 27.296875 
Q 3.59375 33.296875 6.4375 37.9375 
Q 9.296875 42.59375 15.59375 45.203125 
Q 16.09375 45.296875 16.9375 45.390625 
Q 17.796875 45.5 18.6875 45.453125 
Q 19.59375 45.40625 20.4375 45.203125 
Q 21.296875 45 21.90625 44.59375 
Q 23 43.796875 23 42.296875 
Q 23 40.796875 22.296875 40.09375 
z
M 9.703125 26.40625 
Q 9.703125 25.296875 9.890625 23.9375 
Q 10.09375 22.59375 11.203125 22 
Q 12.40625 21.296875 14.15625 21.796875 
Q 15.90625 22.296875 17.40625 23.5 
Q 18.796875 24.59375 19.25 25.9375 
Q 19.703125 27.296875 19.203125 29.59375 
Q 18.703125 31.90625 18.09375 34.40625 
Q 17.5 36.90625 17.296875 38.90625 
Q 16.09375 38.296875 14.75 37.1875 
Q 13.40625 36.09375 12.296875 34.4375 
Q 11.203125 32.796875 10.453125 30.796875 
Q 9.703125 28.796875 9.703125 26.40625 
z
" id="NanumPen-Regular-103"/>
     <path d="M 11.09375 56.796875 
Q 11.09375 54.40625 11.046875 51.40625 
Q 11 48.40625 11.046875 45.203125 
Q 11.09375 42 11.140625 38.59375 
Q 11.203125 35.203125 11.296875 32.09375 
Q 12.296875 34.09375 13.6875 36.046875 
Q 15.09375 38 16.84375 39.5 
Q 18.59375 41 20.546875 41.890625 
Q 22.5 42.796875 24.796875 42.796875 
Q 27.296875 42.796875 29.25 41.1875 
Q 31.203125 39.59375 32.640625 36.9375 
Q 34.09375 34.296875 35.09375 31.046875 
Q 36.09375 27.796875 36.75 24.4375 
Q 37.40625 21.09375 37.703125 18.046875 
Q 38 15 38.203125 12.796875 
Q 38.203125 11.203125 37.390625 10.203125 
Q 36.59375 9.203125 35.5 9.203125 
Q 34.703125 9.203125 33.546875 10.25 
Q 32.40625 11.296875 31.90625 12.796875 
Q 31.59375 14 31.296875 16.296875 
Q 31 18.59375 30.59375 21.25 
Q 30.203125 23.90625 29.59375 26.59375 
Q 29 29.296875 28.140625 31.4375 
Q 27.296875 33.59375 26.09375 34.796875 
Q 24.90625 36 23.296875 35.703125 
Q 20.796875 35.203125 18.9375 32.203125 
Q 17.09375 29.203125 15.75 25.390625 
Q 14.40625 21.59375 13.546875 17.6875 
Q 12.703125 13.796875 12.296875 11.40625 
Q 11.90625 9.59375 11.25 8.9375 
Q 10.59375 8.296875 9.796875 8.296875 
Q 9 8.296875 8.34375 9.09375 
Q 7.703125 9.90625 7.140625 11.046875 
Q 6.59375 12.203125 6.1875 13.453125 
Q 5.796875 14.703125 5.703125 15.59375 
Q 5.203125 21 4.890625 25.953125 
Q 4.59375 30.90625 4.4375 35.90625 
Q 4.296875 40.90625 4.296875 46.15625 
Q 4.296875 51.40625 4.5 57.40625 
Q 4.5 62.40625 8.09375 61.90625 
Q 9.296875 61.703125 10.1875 60.140625 
Q 11.09375 58.59375 11.09375 56.796875 
z
" id="NanumPen-Regular-104"/>
     <path d="M 26.796875 39.296875 
Q 28.703125 39.40625 30.59375 38.40625 
Q 32.5 37.40625 32.5 35.296875 
Q 32.296875 33.59375 30.640625 33.140625 
Q 29 32.703125 28 32.703125 
Q 26 32.703125 23.703125 32.59375 
Q 21.40625 32.5 19 32.296875 
Q 18.796875 29 18.640625 26.09375 
Q 18.5 23.203125 18.390625 20.953125 
Q 18.296875 18.703125 18.296875 17.296875 
Q 18.296875 15.90625 18.40625 15.796875 
Q 20.59375 16.203125 23.140625 17.140625 
Q 25.703125 18.09375 28.25 19.25 
Q 30.796875 20.40625 33.25 21.65625 
Q 35.703125 22.90625 37.90625 24 
Q 38.90625 24.5 39.75 24.296875 
Q 40.59375 24.09375 40.796875 23.40625 
Q 41 22.296875 40.5 20.6875 
Q 40 19.09375 38.703125 17.796875 
Q 37.203125 16.59375 34.75 15.046875 
Q 32.296875 13.5 29.5 12.09375 
Q 26.703125 10.703125 23.84375 9.640625 
Q 21 8.59375 18.796875 8.40625 
Q 15.5 8.09375 13.796875 10.1875 
Q 12.09375 12.296875 11.90625 15.5 
Q 11.703125 18.703125 11.84375 22.890625 
Q 12 27.09375 12.203125 31.796875 
Q 10.296875 31.59375 8.546875 31.4375 
Q 6.796875 31.296875 5.203125 31.09375 
Q 3.90625 31.09375 2.34375 31.6875 
Q 0.796875 32.296875 0.796875 34 
Q 0.796875 34.59375 1.296875 35.59375 
Q 1.796875 36.59375 3.5 37.09375 
Q 7.59375 37.796875 12.59375 38.296875 
Q 12.90625 43 13.296875 47.390625 
Q 13.703125 51.796875 14 55.40625 
Q 14.09375 56.59375 14.6875 57.5 
Q 15.296875 58.40625 16 58.40625 
Q 17.703125 58.5 19.25 57.546875 
Q 20.796875 56.59375 20.796875 55.40625 
Q 20.40625 52 20.046875 47.703125 
Q 19.703125 43.40625 19.40625 38.90625 
Q 21.40625 39.09375 23.25 39.140625 
Q 25.09375 39.203125 26.796875 39.296875 
z
" id="NanumPen-Regular-116"/>
     <path d="M 21 63.203125 
Q 20.703125 65 21.25 66.5 
Q 21.796875 68 23.5 68.203125 
Q 25 68.40625 26.140625 67.40625 
Q 27.296875 66.40625 27.59375 64.796875 
Q 29.59375 53.296875 31.34375 41.9375 
Q 33.09375 30.59375 34.5 19.703125 
Q 34.90625 16.796875 34.09375 15.75 
Q 33.296875 14.703125 32.203125 14.203125 
Q 31 13.703125 29.953125 14.203125 
Q 28.90625 14.703125 28.59375 16 
L 28.5 16.59375 
L 28.09375 16.5 
Q 24.796875 15.296875 21.1875 15.140625 
Q 17.59375 15 14.296875 16 
Q 11 17 8.453125 19.25 
Q 5.90625 21.5 4.796875 25 
Q 2.40625 32.703125 7.796875 39 
Q 10.09375 41.59375 13.5 43.6875 
Q 16.90625 45.796875 21.703125 47 
L 23.5 47.40625 
z
M 10.90625 27.5 
Q 11.5 25.09375 13.09375 23.796875 
Q 14.703125 22.5 16.890625 22.046875 
Q 19.09375 21.59375 21.59375 21.890625 
Q 24.09375 22.203125 26.5 23 
L 27.40625 23.296875 
L 24.59375 40.90625 
L 22.59375 40.40625 
Q 20.5 39.796875 18.140625 38.546875 
Q 15.796875 37.296875 14 35.59375 
Q 12.203125 33.90625 11.25 31.796875 
Q 10.296875 29.703125 10.90625 27.5 
z
" id="NanumPen-Regular-100"/>
     <path id="NanumPen-Regular-32"/>
     <path d="M 42.5 53.40625 
Q 41.796875 44.90625 40.84375 36.046875 
Q 39.90625 27.203125 38.296875 19.40625 
Q 37.90625 17.5 37.203125 16.703125 
Q 36.5 15.90625 35.203125 15.59375 
Q 34.09375 15.40625 32.140625 16.296875 
Q 30.203125 17.203125 28.90625 18.90625 
Q 27.203125 21.203125 25.25 23.953125 
Q 23.296875 26.703125 21.046875 29.546875 
Q 18.796875 32.40625 16.34375 35.203125 
Q 13.90625 38 11.203125 40.40625 
Q 10.90625 33.796875 10.703125 27.34375 
Q 10.5 20.90625 10.703125 14.40625 
Q 10.703125 13.5 9.09375 13.5 
Q 7.203125 13.5 6 15.453125 
Q 4.796875 17.40625 4.59375 19.40625 
Q 4.296875 21.40625 4.296875 25.15625 
Q 4.296875 28.90625 4.4375 33 
Q 4.59375 37.09375 4.796875 40.890625 
Q 5 44.703125 5.203125 46.90625 
Q 5.40625 49.296875 6.34375 50.390625 
Q 7.296875 51.5 8.203125 51.40625 
Q 10.203125 51.203125 10.84375 50.25 
Q 11.5 49.296875 11.59375 47.90625 
Q 15.203125 45.296875 18.25 42.296875 
Q 21.296875 39.296875 23.84375 36.1875 
Q 26.40625 33.09375 28.546875 30.046875 
Q 30.703125 27 32.59375 24.5 
Q 33.796875 30.5 34.546875 37.890625 
Q 35.296875 45.296875 36.09375 53.40625 
Q 36 54.40625 37.296875 55.34375 
Q 38.59375 56.296875 39.703125 56.203125 
Q 42.5 56 42.5 53.40625 
z
" id="NanumPen-Regular-78"/>
     <path d="M 39.703125 14.796875 
Q 38.90625 13.703125 37.90625 13.34375 
Q 36.90625 13 36.09375 13 
Q 34.703125 13.09375 33.5 13.9375 
Q 32.296875 14.796875 32 15.703125 
Q 31.40625 17.40625 30.703125 19.5 
Q 30 21.59375 29.34375 23.75 
Q 28.703125 25.90625 28 27.953125 
Q 27.296875 30 26.703125 31.703125 
Q 24.703125 28.203125 22.890625 24.640625 
Q 21.09375 21.09375 18.90625 17.296875 
Q 17.90625 15.796875 16.59375 15.25 
Q 15.296875 14.703125 14.40625 14.796875 
Q 13.09375 14.90625 12.046875 15.796875 
Q 11 16.703125 10.40625 17.5 
Q 9.296875 19.296875 8.1875 22.140625 
Q 7.09375 25 6.140625 28.140625 
Q 5.203125 31.296875 4.390625 34.4375 
Q 3.59375 37.59375 3.09375 40.09375 
Q 2.796875 41.796875 3.140625 43.296875 
Q 3.5 44.796875 4.90625 45 
Q 6.59375 45.09375 8 43.84375 
Q 9.40625 42.59375 9.59375 41.40625 
Q 10 39.40625 10.546875 37.046875 
Q 11.09375 34.703125 11.75 32.296875 
Q 12.40625 29.90625 13.046875 27.59375 
Q 13.703125 25.296875 14.40625 23.5 
Q 15.90625 25.90625 17.75 29.046875 
Q 19.59375 32.203125 21.296875 35.140625 
Q 23 38.09375 24.390625 40.296875 
Q 25.796875 42.5 26.59375 43 
Q 27.203125 43.40625 28.296875 42.953125 
Q 29.40625 42.5 29.90625 41.703125 
Q 32.09375 37.296875 33.546875 32.046875 
Q 35 26.796875 36.40625 22.296875 
Q 37.796875 24.09375 39.390625 27.046875 
Q 41 30 42.5 33.296875 
Q 44 36.59375 45.296875 39.890625 
Q 46.59375 43.203125 47.40625 45.796875 
Q 48.203125 48.5 49.59375 48.40625 
Q 51.40625 48.203125 52.703125 47.203125 
Q 54 46.203125 53.703125 45.09375 
Q 51.5 36.296875 48 28.9375 
Q 44.5 21.59375 39.703125 14.796875 
z
" id="NanumPen-Regular-119"/>
     <path d="M 27.09375 47.40625 
Q 30.09375 46.296875 32.140625 44.09375 
Q 34.203125 41.90625 35.296875 39.15625 
Q 36.40625 36.40625 36.546875 33.5 
Q 36.703125 30.59375 35.90625 28.09375 
Q 34.796875 25.296875 33.09375 22.59375 
Q 31.40625 19.90625 29.203125 17.796875 
Q 27 15.703125 24.203125 14.390625 
Q 21.40625 13.09375 18 13.09375 
Q 13.90625 13.09375 11.09375 15 
Q 8.296875 16.90625 6.6875 19.90625 
Q 5.09375 22.90625 4.640625 26.703125 
Q 4.203125 30.5 4.796875 34.296875 
Q 5.203125 37.09375 6.140625 39.75 
Q 7.09375 42.40625 8.59375 44.453125 
Q 10.09375 46.5 12.046875 47.796875 
Q 14 49.09375 16.5 49.09375 
Q 17.90625 49.09375 20 48.546875 
Q 22.09375 48 23.90625 47 
Q 25.203125 48.203125 27.09375 47.40625 
z
M 23.296875 40.09375 
Q 22.203125 40.796875 20.75 41.9375 
Q 19.296875 43.09375 18.203125 43.09375 
Q 17 43.09375 15.84375 42 
Q 14.703125 40.90625 13.84375 39.453125 
Q 13 38 12.390625 36.5 
Q 11.796875 35 11.59375 34.09375 
Q 11.296875 32.59375 11.1875 30.5 
Q 11.09375 28.40625 11.5 26.34375 
Q 11.90625 24.296875 13.046875 22.640625 
Q 14.203125 21 16.5 20.296875 
Q 17.90625 19.90625 19.796875 20.34375 
Q 21.703125 20.796875 23.546875 22 
Q 25.40625 23.203125 27.046875 25.203125 
Q 28.703125 27.203125 29.59375 29.796875 
Q 30.59375 32.703125 29.640625 35.84375 
Q 28.703125 39 25.796875 40.40625 
Q 25.09375 39.90625 24.390625 39.90625 
Q 23.703125 39.90625 23.296875 40.09375 
z
" id="NanumPen-Regular-111"/>
     <path d="M 34 47 
Q 32.203125 46 30.25 44.890625 
Q 28.296875 43.796875 26.34375 42.34375 
Q 24.40625 40.90625 22.65625 38.953125 
Q 20.90625 37 19.5 34.296875 
Q 17.5 30.5 16.796875 26.546875 
Q 16.09375 22.59375 15.90625 18.796875 
Q 15.90625 17 15.046875 15.140625 
Q 14.203125 13.296875 12.703125 13.296875 
Q 10.796875 13.296875 9.640625 15.25 
Q 8.5 17.203125 8.09375 19 
Q 6.40625 26.09375 5.296875 33.046875 
Q 4.203125 40 3.40625 46.90625 
Q 3.40625 48.296875 4.25 48.6875 
Q 5.09375 49.09375 6.203125 49 
Q 7.40625 48.90625 8.5 48.40625 
Q 9.59375 47.90625 9.796875 46.796875 
Q 10.203125 43.09375 10.796875 39.046875 
Q 11.40625 35 12 32.09375 
Q 12.40625 35.5 14.203125 38.703125 
Q 16 41.90625 18.640625 44.5 
Q 21.296875 47.09375 24.640625 48.890625 
Q 28 50.703125 31.5 51.296875 
Q 33 51.5 34 51.296875 
Q 35 51.09375 35.40625 50.59375 
Q 35.796875 50.09375 35.546875 49 
Q 35.296875 47.90625 34 47 
z
" id="NanumPen-Regular-114"/>
     <path d="M 31.59375 45.203125 
Q 32 45.296875 32.796875 45.34375 
Q 33.59375 45.40625 34.34375 45.25 
Q 35.09375 45.09375 35.640625 44.75 
Q 36.203125 44.40625 36.296875 43.90625 
Q 36.5 42.703125 35.953125 41.75 
Q 35.40625 40.796875 34 40.09375 
Q 30.203125 38.296875 26.09375 36.046875 
Q 22 33.796875 19.09375 32 
Q 20.90625 30.796875 23.25 29.296875 
Q 25.59375 27.796875 28.09375 26.140625 
Q 30.59375 24.5 33.09375 22.640625 
Q 35.59375 20.796875 37.796875 19 
Q 39.796875 17.296875 38.5 15.90625 
Q 37.90625 15.203125 36.546875 14.890625 
Q 35.203125 14.59375 34 15.203125 
Q 31.796875 16.296875 29.1875 17.84375 
Q 26.59375 19.40625 23.890625 21.046875 
Q 21.203125 22.703125 18.640625 24.34375 
Q 16.09375 26 14 27.40625 
Q 14.40625 23.90625 14.75 20.40625 
Q 15.09375 16.90625 15.40625 13.40625 
Q 16 11.5 15.296875 10.296875 
Q 14.59375 9.09375 13 9.203125 
Q 11.296875 9.5 10.5 10.546875 
Q 9.703125 11.59375 9.296875 13.296875 
Q 8.703125 17.40625 7.953125 23 
Q 7.203125 28.59375 6.390625 34.59375 
Q 5.59375 40.59375 4.84375 46.296875 
Q 4.09375 52 3.5 56.40625 
Q 3.296875 57.796875 3.25 59.4375 
Q 3.203125 61.09375 4.296875 61.59375 
Q 5.796875 62.203125 7.390625 60.953125 
Q 9 59.703125 9.796875 57.203125 
Q 10.59375 52.59375 11.390625 47.1875 
Q 12.203125 41.796875 13 35.796875 
Q 15 37 17.640625 38.453125 
Q 20.296875 39.90625 22.9375 41.25 
Q 25.59375 42.59375 27.890625 43.6875 
Q 30.203125 44.796875 31.59375 45.203125 
z
" id="NanumPen-Regular-107"/>
    </defs>
    <g transform="translate(267.5 80.4)scale(0.32 -0.32)">
     <use xlink:href="#NanumPen-Regular-87"/>
     <use x="64.599991" xlink:href="#NanumPen-Regular-101"/>
     <use x="99.699982" xlink:href="#NanumPen-Regular-105"/>
     <use x="123.899979" xlink:href="#NanumPen-Regular-103"/>
     <use x="157.799973" xlink:href="#NanumPen-Regular-104"/>
     <use x="199.09996" xlink:href="#NanumPen-Regular-116"/>
     <use x="239.899948" xlink:href="#NanumPen-Regular-101"/>
     <use x="274.999939" xlink:href="#NanumPen-Regular-100"/>
     <use x="310.699936" xlink:href="#NanumPen-Regular-32"/>
     <use x="338.699921" xlink:href="#NanumPen-Regular-78"/>
     <use x="384.799911" xlink:href="#NanumPen-Regular-101"/>
     <use x="419.899902" xlink:href="#NanumPen-Regular-116"/>
     <use x="460.69989" xlink:href="#NanumPen-Regular-119"/>
     <use x="517.499878" xlink:href="#NanumPen-Regular-111"/>
     <use x="557.899872" xlink:href="#NanumPen-Regular-114"/>
     <use x="593.799866" xlink:href="#NanumPen-Regular-107"/>
    </g>
   </g>
  </g>
 </g>
 <defs>
  <clipPath id="p137e3ac560">
   <rect height="543.6" width="558" x="90" y="86.4"/>
  </clipPath>
 </defs>
</svg>
