<?xml version="1.0" encoding="utf-8" standalone="no"?>
<!DOCTYPE svg PUBLIC "-//W3C//DTD SVG 1.1//EN"
  "http://www.w3.org/Graphics/SVG/1.1/DTD/svg11.dtd">
<!-- Created with matplotlib (https://matplotlib.org/) -->
<svg height="720pt" version="1.1" viewBox="0 0 720 720" width="720pt" xmlns="http://www.w3.org/2000/svg" xmlns:xlink="http://www.w3.org/1999/xlink">
 <defs>
  <style type="text/css">
*{stroke-linecap:butt;stroke-linejoin:round;}
  </style>
 </defs>
 <g id="figure_1">
  <g id="patch_1">
   <path d="M 0 720 
L 720 720 
L 720 0 
L 0 0 
z
" style="fill:none;"/>
  </g>
  <g id="axes_1">
   <g id="LineCollection_1">
    <path clip-path="url(#pa21952475b)" d="M 242.980297 570.804247 
L 368.999996 112.705767 
" style="fill:none;stroke:#000004;"/>
    <path clip-path="url(#pa21952475b)" d="M 368.999996 112.705767 
L 190.781225 184.609371 
" style="fill:none;stroke:#fbb61a;"/>
    <path clip-path="url(#pa21952475b)" d="M 150.727458 235.452878 
L 303.7674 595.329234 
" style="fill:none;stroke:#fbbe23;"/>
    <path clip-path="url(#pa21952475b)" d="M 621.039421 358.200002 
L 495.0197 570.804248 
" style="fill:none;stroke:#f2ea69;"/>
    <path clip-path="url(#pa21952475b)" d="M 190.781213 531.790631 
L 495.0197 570.804248 
" style="fill:none;stroke:#f1f179;"/>
    <path clip-path="url(#pa21952475b)" d="M 434.232596 595.329213 
L 125.548616 421.738587 
" style="fill:none;stroke:#000004;"/>
    <path clip-path="url(#pa21952475b)" d="M 434.232596 595.329213 
L 495.019711 145.595748 
" style="fill:none;stroke:#000004;"/>
    <path clip-path="url(#pa21952475b)" d="M 612.451381 294.66142 
L 303.7674 595.329234 
" style="fill:none;stroke:#f3e55d;"/>
    <path clip-path="url(#pa21952475b)" d="M 621.039421 358.200002 
L 303.7674 121.070787 
" style="fill:none;stroke:#f2ea69;"/>
    <path clip-path="url(#pa21952475b)" d="M 125.548616 421.738587 
L 303.7674 595.329234 
" style="fill:none;stroke:#f8cf3a;"/>
    <path clip-path="url(#pa21952475b)" d="M 495.0197 570.804248 
L 303.7674 121.070787 
" style="fill:none;stroke:#771c6d;"/>
    <path clip-path="url(#pa21952475b)" d="M 587.272537 235.452886 
L 587.272544 480.947141 
" style="fill:none;stroke:#f3e55d;"/>
    <path clip-path="url(#pa21952475b)" d="M 369 603.694233 
L 434.232596 595.329213 
" style="fill:none;stroke:#f6d746;"/>
    <path clip-path="url(#pa21952475b)" d="M 621.039421 358.200002 
L 150.727458 235.452878 
" style="fill:none;stroke:#f8cf3a;"/>
    <path clip-path="url(#pa21952475b)" d="M 547.218778 184.609369 
L 303.7674 121.070787 
" style="fill:none;stroke:#f2ea69;"/>
    <path clip-path="url(#pa21952475b)" d="M 587.272537 235.452886 
L 434.232603 121.070785 
" style="fill:none;stroke:#f8cf3a;"/>
    <path clip-path="url(#pa21952475b)" d="M 612.451381 294.66142 
L 125.548613 294.66141 
" style="fill:none;stroke:#f2ea69;"/>
    <path clip-path="url(#pa21952475b)" d="M 303.7674 121.070787 
L 587.272544 480.947141 
" style="fill:none;stroke:#fcac11;"/>
    <path clip-path="url(#pa21952475b)" d="M 434.232603 121.070785 
L 242.980282 145.595755 
" style="fill:none;stroke:#f6d746;"/>
    <path clip-path="url(#pa21952475b)" d="M 242.980297 570.804247 
L 547.218778 184.609369 
" style="fill:none;stroke:#000004;"/>
    <path clip-path="url(#pa21952475b)" d="M 368.999996 112.705767 
L 303.7674 121.070787 
" style="fill:none;stroke:#f9c72f;"/>
    <path clip-path="url(#pa21952475b)" d="M 495.019711 145.595748 
L 434.232596 595.329213 
" style="fill:none;stroke:#f9c72f;"/>
    <path clip-path="url(#pa21952475b)" d="M 612.451381 294.66142 
L 434.232603 121.070785 
" style="fill:none;stroke:#fbbe23;"/>
    <path clip-path="url(#pa21952475b)" d="M 150.727458 235.452878 
L 303.7674 121.070787 
" style="fill:none;stroke:#000004;"/>
    <path clip-path="url(#pa21952475b)" d="M 190.781225 184.609371 
L 547.218766 531.790645 
" style="fill:none;stroke:#f3e55d;"/>
    <path clip-path="url(#pa21952475b)" d="M 303.7674 595.329234 
L 495.0197 570.804248 
" style="fill:none;stroke:#f6d746;"/>
    <path clip-path="url(#pa21952475b)" d="M 150.727466 480.947113 
L 369 603.694233 
" style="fill:none;stroke:#f1f179;"/>
    <path clip-path="url(#pa21952475b)" d="M 434.232603 121.070785 
L 369 603.694233 
" style="fill:none;stroke:#f3f586;"/>
    <path clip-path="url(#pa21952475b)" d="M 125.548613 294.66141 
L 587.272544 480.947141 
" style="fill:none;stroke:#f3e55d;"/>
    <path clip-path="url(#pa21952475b)" d="M 150.727458 235.452878 
L 369 603.694233 
" style="fill:none;stroke:#fbb61a;"/>
    <path clip-path="url(#pa21952475b)" d="M 621.039421 358.200002 
L 303.7674 595.329234 
" style="fill:none;stroke:#f4dd4f;"/>
    <path clip-path="url(#pa21952475b)" d="M 242.980297 570.804247 
L 587.272544 480.947141 
" style="fill:none;stroke:#f6d746;"/>
    <path clip-path="url(#pa21952475b)" d="M 116.960579 358.200009 
L 303.7674 595.329234 
" style="fill:none;stroke:#f2ea69;"/>
    <path clip-path="url(#pa21952475b)" d="M 369 603.694233 
L 612.451387 421.738568 
" style="fill:none;stroke:#f1f179;"/>
    <path clip-path="url(#pa21952475b)" d="M 303.7674 595.329234 
L 612.451387 421.738568 
" style="fill:none;stroke:#f6d746;"/>
    <path clip-path="url(#pa21952475b)" d="M 125.548616 421.738587 
L 495.0197 570.804248 
" style="fill:none;stroke:#f8cf3a;"/>
    <path clip-path="url(#pa21952475b)" d="M 125.548613 294.66141 
L 125.548616 421.738587 
" style="fill:none;stroke:#f8cf3a;"/>
    <path clip-path="url(#pa21952475b)" d="M 369 603.694233 
L 495.0197 570.804248 
" style="fill:none;stroke:#f6d746;"/>
    <path clip-path="url(#pa21952475b)" d="M 242.980282 145.595755 
L 190.781213 531.790631 
" style="fill:none;stroke:#fbbe23;"/>
    <path clip-path="url(#pa21952475b)" d="M 495.019711 145.595748 
L 150.727458 235.452878 
" style="fill:none;stroke:#fcac11;"/>
    <path clip-path="url(#pa21952475b)" d="M 587.272537 235.452886 
L 368.999996 112.705767 
" style="fill:none;stroke:#f8cf3a;"/>
    <path clip-path="url(#pa21952475b)" d="M 190.781225 184.609371 
L 150.727466 480.947113 
" style="fill:none;stroke:#f3e55d;"/>
    <path clip-path="url(#pa21952475b)" d="M 303.7674 121.070787 
L 150.727458 235.452878 
" style="fill:none;stroke:#fbbe23;"/>
    <path clip-path="url(#pa21952475b)" d="M 434.232603 121.070785 
L 125.548613 294.66141 
" style="fill:none;stroke:#fbb61a;"/>
    <path clip-path="url(#pa21952475b)" d="M 125.548616 421.738587 
L 150.727466 480.947113 
" style="fill:none;stroke:#f3f586;"/>
    <path clip-path="url(#pa21952475b)" d="M 547.218778 184.609369 
L 612.451387 421.738568 
" style="fill:none;stroke:#f3e55d;"/>
    <path clip-path="url(#pa21952475b)" d="M 150.727458 235.452878 
L 125.548616 421.738587 
" style="fill:none;stroke:#f6d746;"/>
    <path clip-path="url(#pa21952475b)" d="M 368.999996 112.705767 
L 587.272544 480.947141 
" style="fill:none;stroke:#f98b0b;"/>
    <path clip-path="url(#pa21952475b)" d="M 242.980282 145.595755 
L 547.218766 531.790645 
" style="fill:none;stroke:#fbb61a;"/>
    <path clip-path="url(#pa21952475b)" d="M 125.548613 294.66141 
L 434.232603 121.070785 
" style="fill:none;stroke:#000004;"/>
    <path clip-path="url(#pa21952475b)" d="M 495.019711 145.595748 
L 242.980297 570.804247 
" style="fill:none;stroke:#fbb61a;"/>
    <path clip-path="url(#pa21952475b)" d="M 190.781225 184.609371 
L 242.980297 570.804247 
" style="fill:none;stroke:#f2ea69;"/>
    <path clip-path="url(#pa21952475b)" d="M 547.218766 531.790645 
L 190.781213 531.790631 
" style="fill:none;stroke:#000004;"/>
    <path clip-path="url(#pa21952475b)" d="M 150.727466 480.947113 
L 190.781213 531.790631 
" style="fill:none;stroke:#f8cf3a;"/>
    <path clip-path="url(#pa21952475b)" d="M 434.232603 121.070785 
L 547.218766 531.790645 
" style="fill:none;stroke:#f9c72f;"/>
    <path clip-path="url(#pa21952475b)" d="M 242.980297 570.804247 
L 116.960579 358.200009 
" style="fill:none;stroke:#000004;"/>
    <path clip-path="url(#pa21952475b)" d="M 125.548613 294.66141 
L 547.218766 531.790645 
" style="fill:none;stroke:#f4dd4f;"/>
    <path clip-path="url(#pa21952475b)" d="M 150.727458 235.452878 
L 612.451387 421.738568 
" style="fill:none;stroke:#f9c72f;"/>
    <path clip-path="url(#pa21952475b)" d="M 242.980297 570.804247 
L 434.232596 595.329213 
" style="fill:none;stroke:#f6d746;"/>
    <path clip-path="url(#pa21952475b)" d="M 303.7674 595.329234 
L 369 603.694233 
" style="fill:none;stroke:#f3e55d;"/>
    <path clip-path="url(#pa21952475b)" d="M 303.7674 595.329234 
L 303.7674 121.070787 
" style="fill:none;stroke:#450a69;"/>
    <path clip-path="url(#pa21952475b)" d="M 116.960579 358.200009 
L 587.272544 480.947141 
" style="fill:none;stroke:#f9c72f;"/>
    <path clip-path="url(#pa21952475b)" d="M 587.272537 235.452886 
L 303.7674 595.329234 
" style="fill:none;stroke:#f8cf3a;"/>
    <path clip-path="url(#pa21952475b)" d="M 150.727466 480.947113 
L 242.980297 570.804247 
" style="fill:none;stroke:#f6d746;"/>
    <path clip-path="url(#pa21952475b)" d="M 621.039421 358.200002 
L 612.451381 294.66142 
" style="fill:none;stroke:#f5f992;"/>
    <path clip-path="url(#pa21952475b)" d="M 303.7674 121.070787 
L 190.781213 531.790631 
" style="fill:none;stroke:#f4dd4f;"/>
    <path clip-path="url(#pa21952475b)" d="M 125.548616 421.738587 
L 612.451387 421.738568 
" style="fill:none;stroke:#f2ea69;"/>
    <path clip-path="url(#pa21952475b)" d="M 547.218778 184.609369 
L 116.960579 358.200009 
" style="fill:none;stroke:#f6d746;"/>
    <path clip-path="url(#pa21952475b)" d="M 612.451381 294.66142 
L 116.960579 358.200009 
" style="fill:none;stroke:#f6d746;"/>
    <path clip-path="url(#pa21952475b)" d="M 242.980282 145.595755 
L 116.960579 358.200009 
" style="fill:none;stroke:#f1f179;"/>
    <path clip-path="url(#pa21952475b)" d="M 495.019711 145.595748 
L 190.781213 531.790631 
" style="fill:none;stroke:#f4dd4f;"/>
    <path clip-path="url(#pa21952475b)" d="M 587.272537 235.452886 
L 125.548613 294.66141 
" style="fill:none;stroke:#fca108;"/>
    <path clip-path="url(#pa21952475b)" d="M 612.451381 294.66142 
L 368.999996 112.705767 
" style="fill:none;stroke:#fcac11;"/>
    <path clip-path="url(#pa21952475b)" d="M 303.7674 121.070787 
L 612.451387 421.738568 
" style="fill:none;stroke:#f9c72f;"/>
    <path clip-path="url(#pa21952475b)" d="M 434.232603 121.070785 
L 150.727466 480.947113 
" style="fill:none;stroke:#fbbe23;"/>
    <path clip-path="url(#pa21952475b)" d="M 547.218778 184.609369 
L 369 603.694233 
" style="fill:none;stroke:#f6d746;"/>
    <path clip-path="url(#pa21952475b)" d="M 150.727458 235.452878 
L 150.727466 480.947113 
" style="fill:none;stroke:#fca108;"/>
    <path clip-path="url(#pa21952475b)" d="M 150.727466 480.947113 
L 612.451387 421.738568 
" style="fill:none;stroke:#f9c72f;"/>
    <path clip-path="url(#pa21952475b)" d="M 242.980282 145.595755 
L 369 603.694233 
" style="fill:none;stroke:#f6d746;"/>
    <path clip-path="url(#pa21952475b)" d="M 150.727466 480.947113 
L 547.218766 531.790645 
" style="fill:none;stroke:#fbb61a;"/>
    <path clip-path="url(#pa21952475b)" d="M 495.019711 145.595748 
L 547.218766 531.790645 
" style="fill:none;stroke:#f9c72f;"/>
    <path clip-path="url(#pa21952475b)" d="M 434.232596 595.329213 
L 612.451387 421.738568 
" style="fill:none;stroke:#f6d746;"/>
    <path clip-path="url(#pa21952475b)" d="M 190.781225 184.609371 
L 434.232596 595.329213 
" style="fill:none;stroke:#f9c72f;"/>
    <path clip-path="url(#pa21952475b)" d="M 303.7674 121.070787 
L 242.980282 145.595755 
" style="fill:none;stroke:#f9c72f;"/>
    <path clip-path="url(#pa21952475b)" d="M 368.999996 112.705767 
L 242.980297 570.804247 
" style="fill:none;stroke:#f8cf3a;"/>
    <path clip-path="url(#pa21952475b)" d="M 125.548613 294.66141 
L 242.980297 570.804247 
" style="fill:none;stroke:#f3e55d;"/>
    <path clip-path="url(#pa21952475b)" d="M 612.451381 294.66142 
L 547.218766 531.790645 
" style="fill:none;stroke:#f3f586;"/>
    <path clip-path="url(#pa21952475b)" d="M 303.7674 121.070787 
L 547.218766 531.790645 
" style="fill:none;stroke:#fbb61a;"/>
    <path clip-path="url(#pa21952475b)" d="M 587.272544 480.947141 
L 612.451387 421.738568 
" style="fill:none;stroke:#f2ea69;"/>
    <path clip-path="url(#pa21952475b)" d="M 125.548613 294.66141 
L 150.727466 480.947113 
" style="fill:none;stroke:#fbb61a;"/>
    <path clip-path="url(#pa21952475b)" d="M 587.272537 235.452886 
L 369 603.694233 
" style="fill:none;stroke:#f4dd4f;"/>
    <path clip-path="url(#pa21952475b)" d="M 621.039421 358.200002 
L 150.727466 480.947113 
" style="fill:none;stroke:#f1f179;"/>
    <path clip-path="url(#pa21952475b)" d="M 368.999996 112.705767 
L 612.451387 421.738568 
" style="fill:none;stroke:#fb9706;"/>
    <path clip-path="url(#pa21952475b)" d="M 547.218778 184.609369 
L 125.548613 294.66141 
" style="fill:none;stroke:#fbb61a;"/>
    <path clip-path="url(#pa21952475b)" d="M 612.451381 294.66142 
L 190.781213 531.790631 
" style="fill:none;stroke:#f4dd4f;"/>
    <path clip-path="url(#pa21952475b)" d="M 242.980282 145.595755 
L 190.781225 184.609371 
" style="fill:none;stroke:#f2ea69;"/>
    <path clip-path="url(#pa21952475b)" d="M 495.019711 145.595748 
L 116.960579 358.200009 
" style="fill:none;stroke:#f1f179;"/>
    <path clip-path="url(#pa21952475b)" d="M 587.272537 235.452886 
L 116.960579 358.200009 
" style="fill:none;stroke:#f9c72f;"/>
    <path clip-path="url(#pa21952475b)" d="M 190.781213 531.790631 
L 434.232596 595.329213 
" style="fill:none;stroke:#f4dd4f;"/>
    <path clip-path="url(#pa21952475b)" d="M 547.218778 184.609369 
L 303.7674 595.329234 
" style="fill:none;stroke:#f9c72f;"/>
    <path clip-path="url(#pa21952475b)" d="M 150.727466 480.947113 
L 587.272544 480.947141 
" style="fill:none;stroke:#f2ea69;"/>
    <path clip-path="url(#pa21952475b)" d="M 242.980297 570.804247 
L 303.7674 121.070787 
" style="fill:none;stroke:#000004;"/>
    <path clip-path="url(#pa21952475b)" d="M 368.999996 112.705767 
L 150.727466 480.947113 
" style="fill:none;stroke:#f9c72f;"/>
    <path clip-path="url(#pa21952475b)" d="M 125.548613 294.66141 
L 150.727458 235.452878 
" style="fill:none;stroke:#000004;"/>
    <path clip-path="url(#pa21952475b)" d="M 303.7674 595.329234 
L 368.999996 112.705767 
" style="fill:none;stroke:#9a2865;"/>
    <path clip-path="url(#pa21952475b)" d="M 190.781213 531.790631 
L 612.451387 421.738568 
" style="fill:none;stroke:#f6d746;"/>
    <path clip-path="url(#pa21952475b)" d="M 621.039421 358.200002 
L 368.999996 112.705767 
" style="fill:none;stroke:#fca108;"/>
    <path clip-path="url(#pa21952475b)" d="M 116.960579 358.200009 
L 125.548616 421.738587 
" style="fill:none;stroke:#f4dd4f;"/>
    <path clip-path="url(#pa21952475b)" d="M 612.451381 294.66142 
L 242.980297 570.804247 
" style="fill:none;stroke:#f4dd4f;"/>
    <path clip-path="url(#pa21952475b)" d="M 369 603.694233 
L 495.019711 145.595748 
" style="fill:none;stroke:#000004;"/>
    <path clip-path="url(#pa21952475b)" d="M 125.548616 421.738587 
L 242.980297 570.804247 
" style="fill:none;stroke:#f4dd4f;"/>
    <path clip-path="url(#pa21952475b)" d="M 587.272537 235.452886 
L 612.451387 421.738568 
" style="fill:none;stroke:#f4dd4f;"/>
    <path clip-path="url(#pa21952475b)" d="M 368.999996 112.705767 
L 125.548613 294.66141 
" style="fill:none;stroke:#f98b0b;"/>
    <path clip-path="url(#pa21952475b)" d="M 621.039421 358.200002 
L 125.548613 294.66141 
" style="fill:none;stroke:#f2ea69;"/>
    <path clip-path="url(#pa21952475b)" d="M 612.451387 421.738568 
L 547.218766 531.790645 
" style="fill:none;stroke:#000004;"/>
    <path clip-path="url(#pa21952475b)" d="M 547.218778 184.609369 
L 368.999996 112.705767 
" style="fill:none;stroke:#fbbe23;"/>
    <path clip-path="url(#pa21952475b)" d="M 125.548613 294.66141 
L 190.781213 531.790631 
" style="fill:none;stroke:#fca108;"/>
    <path clip-path="url(#pa21952475b)" d="M 612.451381 294.66142 
L 150.727458 235.452878 
" style="fill:none;stroke:#f8cf3a;"/>
    <path clip-path="url(#pa21952475b)" d="M 190.781225 184.609371 
L 303.7674 121.070787 
" style="fill:none;stroke:#000004;"/>
    <path clip-path="url(#pa21952475b)" d="M 303.7674 121.070787 
L 369 603.694233 
" style="fill:none;stroke:#f3e55d;"/>
    <path clip-path="url(#pa21952475b)" d="M 303.7674 121.070787 
L 495.0197 570.804248 
" style="fill:none;stroke:#f6d746;"/>
    <path clip-path="url(#pa21952475b)" d="M 368.999996 112.705767 
L 125.548616 421.738587 
" style="fill:none;stroke:#fbb61a;"/>
    <path clip-path="url(#pa21952475b)" d="M 190.781225 184.609371 
L 495.0197 570.804248 
" style="fill:none;stroke:#fbbe23;"/>
    <path clip-path="url(#pa21952475b)" d="M 242.980297 570.804247 
L 495.019711 145.595748 
" style="fill:none;stroke:#000004;"/>
    <path clip-path="url(#pa21952475b)" d="M 150.727466 480.947113 
L 434.232596 595.329213 
" style="fill:none;stroke:#f1f179;"/>
    <path clip-path="url(#pa21952475b)" d="M 434.232603 121.070785 
L 303.7674 595.329234 
" style="fill:none;stroke:#f6d746;"/>
    <path clip-path="url(#pa21952475b)" d="M 116.960579 358.200009 
L 303.7674 121.070787 
" style="fill:none;stroke:#000004;"/>
    <path clip-path="url(#pa21952475b)" d="M 150.727458 235.452878 
L 434.232596 595.329213 
" style="fill:none;stroke:#f8cf3a;"/>
    <path clip-path="url(#pa21952475b)" d="M 621.039421 358.200002 
L 369 603.694233 
" style="fill:none;stroke:#f1f179;"/>
    <path clip-path="url(#pa21952475b)" d="M 242.980297 570.804247 
L 612.451387 421.738568 
" style="fill:none;stroke:#f1f179;"/>
    <path clip-path="url(#pa21952475b)" d="M 125.548616 421.738587 
L 368.999996 112.705767 
" style="fill:none;stroke:#000004;"/>
    <path clip-path="url(#pa21952475b)" d="M 116.960579 358.200009 
L 369 603.694233 
" style="fill:none;stroke:#f6d746;"/>
    <path clip-path="url(#pa21952475b)" d="M 612.451381 294.66142 
L 434.232596 595.329213 
" style="fill:none;stroke:#f4dd4f;"/>
    <path clip-path="url(#pa21952475b)" d="M 621.039421 358.200002 
L 434.232603 121.070785 
" style="fill:none;stroke:#f6d746;"/>
    <path clip-path="url(#pa21952475b)" d="M 190.781213 531.790631 
L 303.7674 121.070787 
" style="fill:none;stroke:#000004;"/>
    <path clip-path="url(#pa21952475b)" d="M 125.548616 421.738587 
L 434.232596 595.329213 
" style="fill:none;stroke:#f3e55d;"/>
    <path clip-path="url(#pa21952475b)" d="M 495.0197 570.804248 
L 434.232603 121.070785 
" style="fill:none;stroke:#450a69;"/>
    <path clip-path="url(#pa21952475b)" d="M 369 603.694233 
L 547.218766 531.790645 
" style="fill:none;stroke:#fbbe23;"/>
    <path clip-path="url(#pa21952475b)" d="M 621.039421 358.200002 
L 242.980282 145.595755 
" style="fill:none;stroke:#f2ea69;"/>
    <path clip-path="url(#pa21952475b)" d="M 495.019711 145.595748 
L 125.548613 294.66141 
" style="fill:none;stroke:#fca108;"/>
    <path clip-path="url(#pa21952475b)" d="M 547.218778 184.609369 
L 434.232603 121.070785 
" style="fill:none;stroke:#f4dd4f;"/>
    <path clip-path="url(#pa21952475b)" d="M 587.272537 235.452886 
L 303.7674 121.070787 
" style="fill:none;stroke:#f9c72f;"/>
    <path clip-path="url(#pa21952475b)" d="M 190.781225 184.609371 
L 125.548616 421.738587 
" style="fill:none;stroke:#f1f179;"/>
    <path clip-path="url(#pa21952475b)" d="M 434.232603 121.070785 
L 150.727458 235.452878 
" style="fill:none;stroke:#f68013;"/>
    <path clip-path="url(#pa21952475b)" d="M 495.019711 145.595748 
L 368.999996 112.705767 
" style="fill:none;stroke:#fbb61a;"/>
    <path clip-path="url(#pa21952475b)" d="M 547.218778 184.609369 
L 587.272544 480.947141 
" style="fill:none;stroke:#f6d746;"/>
    <path clip-path="url(#pa21952475b)" d="M 369 603.694233 
L 587.272544 480.947141 
" style="fill:none;stroke:#f6d746;"/>
    <path clip-path="url(#pa21952475b)" d="M 242.980282 145.595755 
L 587.272544 480.947141 
" style="fill:none;stroke:#f4dd4f;"/>
    <path clip-path="url(#pa21952475b)" d="M 621.039421 358.200002 
L 547.218766 531.790645 
" style="fill:none;stroke:#fcac11;"/>
    <path clip-path="url(#pa21952475b)" d="M 434.232603 121.070785 
L 303.7674 121.070787 
" style="fill:none;stroke:#f6d746;"/>
    <path clip-path="url(#pa21952475b)" d="M 495.019711 145.595748 
L 303.7674 595.329234 
" style="fill:none;stroke:#f9c72f;"/>
    <path clip-path="url(#pa21952475b)" d="M 125.548613 294.66141 
L 547.218778 184.609369 
" style="fill:none;stroke:#771c6d;"/>
    <path clip-path="url(#pa21952475b)" d="M 190.781225 184.609371 
L 612.451387 421.738568 
" style="fill:none;stroke:#f4dd4f;"/>
    <path clip-path="url(#pa21952475b)" d="M 368.999996 112.705767 
L 495.0197 570.804248 
" style="fill:none;stroke:#f68013;"/>
    <path clip-path="url(#pa21952475b)" d="M 434.232603 121.070785 
L 495.0197 570.804248 
" style="fill:none;stroke:#fcac11;"/>
    <path clip-path="url(#pa21952475b)" d="M 369 603.694233 
L 368.999996 112.705767 
" style="fill:none;stroke:#000004;"/>
    <path clip-path="url(#pa21952475b)" d="M 125.548613 294.66141 
L 495.0197 570.804248 
" style="fill:none;stroke:#f9c72f;"/>
    <path clip-path="url(#pa21952475b)" d="M 150.727458 235.452878 
L 495.0197 570.804248 
" style="fill:none;stroke:#fbb61a;"/>
    <path clip-path="url(#pa21952475b)" d="M 303.7674 595.329234 
L 116.960579 358.200009 
" style="fill:none;stroke:#000004;"/>
    <path clip-path="url(#pa21952475b)" d="M 303.7674 121.070787 
L 303.7674 595.329234 
" style="fill:none;stroke:#f3e55d;"/>
    <path clip-path="url(#pa21952475b)" d="M 303.7674 595.329234 
L 587.272544 480.947141 
" style="fill:none;stroke:#fbb61a;"/>
    <path clip-path="url(#pa21952475b)" d="M 495.0197 570.804248 
L 190.781213 531.790631 
" style="fill:none;stroke:#450a69;"/>
    <path clip-path="url(#pa21952475b)" d="M 190.781213 531.790631 
L 547.218766 531.790645 
" style="fill:none;stroke:#fbbe23;"/>
    <path clip-path="url(#pa21952475b)" d="M 621.039421 358.200002 
L 587.272537 235.452886 
" style="fill:none;stroke:#f9c72f;"/>
    <path clip-path="url(#pa21952475b)" d="M 125.548616 421.738587 
L 587.272544 480.947141 
" style="fill:none;stroke:#f1f179;"/>
    <path clip-path="url(#pa21952475b)" d="M 547.218778 184.609369 
L 190.781213 531.790631 
" style="fill:none;stroke:#f8cf3a;"/>
    <path clip-path="url(#pa21952475b)" d="M 612.451381 294.66142 
L 547.218778 184.609369 
" style="fill:none;stroke:#f2ea69;"/>
    <path clip-path="url(#pa21952475b)" d="M 242.980282 145.595755 
L 125.548616 421.738587 
" style="fill:none;stroke:#f2ea69;"/>
    <path clip-path="url(#pa21952475b)" d="M 495.019711 145.595748 
L 242.980282 145.595755 
" style="fill:none;stroke:#f9c72f;"/>
    <path clip-path="url(#pa21952475b)" d="M 587.272537 235.452886 
L 242.980282 145.595755 
" style="fill:none;stroke:#fbbe23;"/>
    <path clip-path="url(#pa21952475b)" d="M 434.232603 121.070785 
L 125.548616 421.738587 
" style="fill:none;stroke:#fbbe23;"/>
    <path clip-path="url(#pa21952475b)" d="M 547.218778 184.609369 
L 547.218766 531.790645 
" style="fill:none;stroke:#f4dd4f;"/>
    <path clip-path="url(#pa21952475b)" d="M 150.727458 235.452878 
L 190.781213 531.790631 
" style="fill:none;stroke:#f8cf3a;"/>
    <path clip-path="url(#pa21952475b)" d="M 150.727466 480.947113 
L 303.7674 595.329234 
" style="fill:none;stroke:#f8cf3a;"/>
    <path clip-path="url(#pa21952475b)" d="M 242.980282 145.595755 
L 434.232596 595.329213 
" style="fill:none;stroke:#f3e55d;"/>
    <path clip-path="url(#pa21952475b)" d="M 368.999996 112.705767 
L 150.727458 235.452878 
" style="fill:none;stroke:#f68013;"/>
    <path clip-path="url(#pa21952475b)" d="M 495.019711 145.595748 
L 587.272544 480.947141 
" style="fill:none;stroke:#f9c72f;"/>
    <path clip-path="url(#pa21952475b)" d="M 434.232596 595.329213 
L 587.272544 480.947141 
" style="fill:none;stroke:#f8cf3a;"/>
    <path clip-path="url(#pa21952475b)" d="M 368.999996 112.705767 
L 116.960579 358.200009 
" style="fill:none;stroke:#fbb61a;"/>
    <path clip-path="url(#pa21952475b)" d="M 190.781225 184.609371 
L 369 603.694233 
" style="fill:none;stroke:#f4dd4f;"/>
    <path clip-path="url(#pa21952475b)" d="M 303.7674 121.070787 
L 125.548613 294.66141 
" style="fill:none;stroke:#f9c72f;"/>
    <path clip-path="url(#pa21952475b)" d="M 368.999996 112.705767 
L 303.7674 595.329234 
" style="fill:none;stroke:#fcac11;"/>
    <path clip-path="url(#pa21952475b)" d="M 434.232603 121.070785 
L 612.451387 421.738568 
" style="fill:none;stroke:#f4dd4f;"/>
    <path clip-path="url(#pa21952475b)" d="M 125.548613 294.66141 
L 434.232596 595.329213 
" style="fill:none;stroke:#fbb61a;"/>
    <path clip-path="url(#pa21952475b)" d="M 612.451381 294.66142 
L 495.0197 570.804248 
" style="fill:none;stroke:#f1f179;"/>
    <path clip-path="url(#pa21952475b)" d="M 303.7674 595.329234 
L 190.781213 531.790631 
" style="fill:none;stroke:#000004;"/>
    <path clip-path="url(#pa21952475b)" d="M 242.980297 570.804247 
L 303.7674 595.329234 
" style="fill:none;stroke:#f9c72f;"/>
    <path clip-path="url(#pa21952475b)" d="M 116.960579 358.200009 
L 495.0197 570.804248 
" style="fill:none;stroke:#fbb61a;"/>
    <path clip-path="url(#pa21952475b)" d="M 587.272537 235.452886 
L 434.232596 595.329213 
" style="fill:none;stroke:#f4dd4f;"/>
    <path clip-path="url(#pa21952475b)" d="M 621.039421 358.200002 
L 190.781213 531.790631 
" style="fill:none;stroke:#f3e55d;"/>
    <path clip-path="url(#pa21952475b)" d="M 303.7674 121.070787 
L 434.232596 595.329213 
" style="fill:none;stroke:#f9c72f;"/>
    <path clip-path="url(#pa21952475b)" d="M 303.7674 595.329234 
L 495.019711 145.595748 
" style="fill:none;stroke:#000004;"/>
    <path clip-path="url(#pa21952475b)" d="M 434.232596 595.329213 
L 495.0197 570.804248 
" style="fill:none;stroke:#f9c72f;"/>
    <path clip-path="url(#pa21952475b)" d="M 547.218778 184.609369 
L 150.727458 235.452878 
" style="fill:none;stroke:#fbb61a;"/>
    <path clip-path="url(#pa21952475b)" d="M 612.451381 294.66142 
L 150.727466 480.947113 
" style="fill:none;stroke:#f2ea69;"/>
    <path clip-path="url(#pa21952475b)" d="M 242.980282 145.595755 
L 150.727458 235.452878 
" style="fill:none;stroke:#fbbe23;"/>
    <path clip-path="url(#pa21952475b)" d="M 495.019711 145.595748 
L 125.548616 421.738587 
" style="fill:none;stroke:#f9c72f;"/>
    <path clip-path="url(#pa21952475b)" d="M 587.272537 235.452886 
L 125.548616 421.738587 
" style="fill:none;stroke:#f8cf3a;"/>
    <path clip-path="url(#pa21952475b)" d="M 190.781225 184.609371 
L 125.548613 294.66141 
" style="fill:none;stroke:#f3e55d;"/>
    <path clip-path="url(#pa21952475b)" d="M 612.451387 421.738568 
L 190.781213 531.790631 
" style="fill:none;stroke:#000004;"/>
    <path clip-path="url(#pa21952475b)" d="M 369 603.694233 
L 434.232603 121.070785 
" style="fill:none;stroke:#000004;"/>
    <path clip-path="url(#pa21952475b)" d="M 547.218778 184.609369 
L 242.980297 570.804247 
" style="fill:none;stroke:#f6d746;"/>
    <path clip-path="url(#pa21952475b)" d="M 242.980282 145.595755 
L 242.980297 570.804247 
" style="fill:none;stroke:#f3e55d;"/>
    <path clip-path="url(#pa21952475b)" d="M 368.999996 112.705767 
L 190.781213 531.790631 
" style="fill:none;stroke:#f8cf3a;"/>
    <path clip-path="url(#pa21952475b)" d="M 434.232596 595.329213 
L 547.218766 531.790645 
" style="fill:none;stroke:#f6d746;"/>
    <path clip-path="url(#pa21952475b)" d="M 303.7674 595.329234 
L 434.232603 121.070785 
" style="fill:none;stroke:#771c6d;"/>
    <path clip-path="url(#pa21952475b)" d="M 303.7674 121.070787 
L 150.727466 480.947113 
" style="fill:none;stroke:#f3f586;"/>
    <path clip-path="url(#pa21952475b)" d="M 368.999996 112.705767 
L 369 603.694233 
" style="fill:none;stroke:#fbbe23;"/>
    <path clip-path="url(#pa21952475b)" d="M 495.0197 570.804248 
L 587.272544 480.947141 
" style="fill:none;stroke:#f6d746;"/>
    <path clip-path="url(#pa21952475b)" d="M 434.232596 595.329213 
L 368.999996 112.705767 
" style="fill:none;stroke:#450a69;"/>
    <path clip-path="url(#pa21952475b)" d="M 612.451381 294.66142 
L 612.451387 421.738568 
" style="fill:none;stroke:#f1f179;"/>
    <path clip-path="url(#pa21952475b)" d="M 303.7674 595.329234 
L 150.727458 235.452878 
" style="fill:none;stroke:#450a69;"/>
    <path clip-path="url(#pa21952475b)" d="M 547.218766 531.790645 
L 612.451387 421.738568 
" style="fill:none;stroke:#f3f586;"/>
    <path clip-path="url(#pa21952475b)" d="M 587.272537 235.452886 
L 495.0197 570.804248 
" style="fill:none;stroke:#fbbe23;"/>
    <path clip-path="url(#pa21952475b)" d="M 612.451381 294.66142 
L 495.019711 145.595748 
" style="fill:none;stroke:#f4dd4f;"/>
    <path clip-path="url(#pa21952475b)" d="M 621.039421 358.200002 
L 116.960579 358.200009 
" style="fill:none;stroke:#f3e55d;"/>
    <path clip-path="url(#pa21952475b)" d="M 495.0197 570.804248 
L 612.451387 421.738568 
" style="fill:none;stroke:#f3e55d;"/>
    <path clip-path="url(#pa21952475b)" d="M 547.218778 184.609369 
L 190.781225 184.609371 
" style="fill:none;stroke:#fbb61a;"/>
    <path clip-path="url(#pa21952475b)" d="M 587.272537 235.452886 
L 547.218778 184.609369 
" style="fill:none;stroke:#f8cf3a;"/>
    <path clip-path="url(#pa21952475b)" d="M 612.451381 294.66142 
L 190.781225 184.609371 
" style="fill:none;stroke:#f2ea69;"/>
    <path clip-path="url(#pa21952475b)" d="M 242.980282 145.595755 
L 303.7674 121.070787 
" style="fill:none;stroke:#000004;"/>
    <path clip-path="url(#pa21952475b)" d="M 621.039421 358.200002 
L 495.019711 145.595748 
" style="fill:none;stroke:#f3e55d;"/>
    <path clip-path="url(#pa21952475b)" d="M 587.272537 235.452886 
L 150.727466 480.947113 
" style="fill:none;stroke:#f2ea69;"/>
    <path clip-path="url(#pa21952475b)" d="M 150.727458 235.452878 
L 434.232603 121.070785 
" style="fill:none;stroke:#000004;"/>
    <path clip-path="url(#pa21952475b)" d="M 242.980297 570.804247 
L 434.232603 121.070785 
" style="fill:none;stroke:#000004;"/>
    <path clip-path="url(#pa21952475b)" d="M 368.999996 112.705767 
L 242.980282 145.595755 
" style="fill:none;stroke:#fb9706;"/>
    <path clip-path="url(#pa21952475b)" d="M 434.232603 121.070785 
L 242.980297 570.804247 
" style="fill:none;stroke:#f4dd4f;"/>
    <path clip-path="url(#pa21952475b)" d="M 150.727458 235.452878 
L 242.980297 570.804247 
" style="fill:none;stroke:#fbb61a;"/>
    <path clip-path="url(#pa21952475b)" d="M 621.039421 358.200002 
L 434.232596 595.329213 
" style="fill:none;stroke:#f8cf3a;"/>
    <path clip-path="url(#pa21952475b)" d="M 303.7674 121.070787 
L 125.548616 421.738587 
" style="fill:none;stroke:#f2ea69;"/>
    <path clip-path="url(#pa21952475b)" d="M 150.727466 480.947113 
L 303.7674 121.070787 
" style="fill:none;stroke:#000004;"/>
    <path clip-path="url(#pa21952475b)" d="M 116.960579 358.200009 
L 434.232596 595.329213 
" style="fill:none;stroke:#fbbe23;"/>
    <path clip-path="url(#pa21952475b)" d="M 612.451381 294.66142 
L 369 603.694233 
" style="fill:none;stroke:#f4dd4f;"/>
    <path clip-path="url(#pa21952475b)" d="M 303.7674 595.329234 
L 547.218766 531.790645 
" style="fill:none;stroke:#fbbe23;"/>
    <path clip-path="url(#pa21952475b)" d="M 621.039421 358.200002 
L 242.980297 570.804247 
" style="fill:none;stroke:#f3e55d;"/>
    <path clip-path="url(#pa21952475b)" d="M 125.548616 421.738587 
L 369 603.694233 
" style="fill:none;stroke:#f2ea69;"/>
    <path clip-path="url(#pa21952475b)" d="M 190.781213 531.790631 
L 303.7674 595.329234 
" style="fill:none;stroke:#fbb61a;"/>
    <path clip-path="url(#pa21952475b)" d="M 612.451381 294.66142 
L 303.7674 121.070787 
" style="fill:none;stroke:#f3f586;"/>
    <path clip-path="url(#pa21952475b)" d="M 621.039421 358.200002 
L 190.781225 184.609371 
" style="fill:none;stroke:#f6d746;"/>
    <path clip-path="url(#pa21952475b)" d="M 303.7674 121.070787 
L 242.980297 570.804247 
" style="fill:none;stroke:#f6d746;"/>
    <path clip-path="url(#pa21952475b)" d="M 547.218766 531.790645 
L 303.7674 121.070787 
" style="fill:none;stroke:#000004;"/>
    <path clip-path="url(#pa21952475b)" d="M 547.218778 184.609369 
L 495.019711 145.595748 
" style="fill:none;stroke:#fcac11;"/>
    <path clip-path="url(#pa21952475b)" d="M 587.272537 235.452886 
L 495.019711 145.595748 
" style="fill:none;stroke:#f2ea69;"/>
    <path clip-path="url(#pa21952475b)" d="M 190.781225 184.609371 
L 116.960579 358.200009 
" style="fill:none;stroke:#f3e55d;"/>
    <path clip-path="url(#pa21952475b)" d="M 434.232603 121.070785 
L 190.781225 184.609371 
" style="fill:none;stroke:#f9c72f;"/>
    <path clip-path="url(#pa21952475b)" d="M 303.7674 595.329234 
L 434.232596 595.329213 
" style="fill:none;stroke:#f8cf3a;"/>
    <path clip-path="url(#pa21952475b)" d="M 150.727458 235.452878 
L 125.548613 294.66141 
" style="fill:none;stroke:#f4dd4f;"/>
    <path clip-path="url(#pa21952475b)" d="M 242.980282 145.595755 
L 612.451387 421.738568 
" style="fill:none;stroke:#f3e55d;"/>
    <path clip-path="url(#pa21952475b)" d="M 621.039421 358.200002 
L 587.272544 480.947141 
" style="fill:none;stroke:#f3e55d;"/>
    <path clip-path="url(#pa21952475b)" d="M 434.232603 121.070785 
L 368.999996 112.705767 
" style="fill:none;stroke:#fbb61a;"/>
    <path clip-path="url(#pa21952475b)" d="M 495.019711 145.595748 
L 369 603.694233 
" style="fill:none;stroke:#f9c72f;"/>
    <path clip-path="url(#pa21952475b)" d="M 150.727458 235.452878 
L 368.999996 112.705767 
" style="fill:none;stroke:#000004;"/>
    <path clip-path="url(#pa21952475b)" d="M 190.781225 184.609371 
L 587.272544 480.947141 
" style="fill:none;stroke:#f6d746;"/>
    <path clip-path="url(#pa21952475b)" d="M 190.781213 531.790631 
L 587.272544 480.947141 
" style="fill:none;stroke:#f9c72f;"/>
    <path clip-path="url(#pa21952475b)" d="M 368.999996 112.705767 
L 547.218766 531.790645 
" style="fill:none;stroke:#fcac11;"/>
    <path clip-path="url(#pa21952475b)" d="M 434.232603 121.070785 
L 434.232596 595.329213 
" style="fill:none;stroke:#fbbe23;"/>
    <path clip-path="url(#pa21952475b)" d="M 125.548613 294.66141 
L 612.451387 421.738568 
" style="fill:none;stroke:#fbbe23;"/>
    <path clip-path="url(#pa21952475b)" d="M 150.727458 235.452878 
L 547.218766 531.790645 
" style="fill:none;stroke:#f9c72f;"/>
    <path clip-path="url(#pa21952475b)" d="M 303.7674 595.329234 
L 547.218778 184.609369 
" style="fill:none;stroke:#450a69;"/>
    <path clip-path="url(#pa21952475b)" d="M 242.980297 570.804247 
L 547.218766 531.790645 
" style="fill:none;stroke:#f4dd4f;"/>
    <path clip-path="url(#pa21952475b)" d="M 116.960579 358.200009 
L 242.980297 570.804247 
" style="fill:none;stroke:#f4dd4f;"/>
    <path clip-path="url(#pa21952475b)" d="M 242.980297 570.804247 
L 587.272537 235.452886 
" style="fill:none;stroke:#000004;"/>
    <path clip-path="url(#pa21952475b)" d="M 621.039421 358.200002 
L 547.218778 184.609369 
" style="fill:none;stroke:#f3e55d;"/>
    <path clip-path="url(#pa21952475b)" d="M 190.781213 531.790631 
L 434.232603 121.070785 
" style="fill:none;stroke:#000004;"/>
    <path clip-path="url(#pa21952475b)" d="M 125.548616 421.738587 
L 547.218766 531.790645 
" style="fill:none;stroke:#f8cf3a;"/>
    <path clip-path="url(#pa21952475b)" d="M 547.218778 184.609369 
L 150.727466 480.947113 
" style="fill:none;stroke:#f3e55d;"/>
    <path clip-path="url(#pa21952475b)" d="M 116.960579 358.200009 
L 150.727466 480.947113 
" style="fill:none;stroke:#f9c72f;"/>
    <path clip-path="url(#pa21952475b)" d="M 612.451381 294.66142 
L 587.272537 235.452886 
" style="fill:none;stroke:#f2ea69;"/>
    <path clip-path="url(#pa21952475b)" d="M 242.980282 145.595755 
L 150.727466 480.947113 
" style="fill:none;stroke:#f3f586;"/>
    <path clip-path="url(#pa21952475b)" d="M 495.019711 145.595748 
L 190.781225 184.609371 
" style="fill:none;stroke:#f6d746;"/>
    <path clip-path="url(#pa21952475b)" d="M 587.272537 235.452886 
L 190.781225 184.609371 
" style="fill:none;stroke:#f8cf3a;"/>
    <path clip-path="url(#pa21952475b)" d="M 190.781225 184.609371 
L 190.781213 531.790631 
" style="fill:none;stroke:#fcac11;"/>
    <path clip-path="url(#pa21952475b)" d="M 150.727458 235.452878 
L 547.218778 184.609369 
" style="fill:none;stroke:#450a69;"/>
    <path clip-path="url(#pa21952475b)" d="M 242.980297 570.804247 
L 150.727458 235.452878 
" style="fill:none;stroke:#450a69;"/>
    <path clip-path="url(#pa21952475b)" d="M 547.218778 184.609369 
L 495.0197 570.804248 
" style="fill:none;stroke:#f6d746;"/>
    <path clip-path="url(#pa21952475b)" d="M 150.727458 235.452878 
L 116.960579 358.200009 
" style="fill:none;stroke:#f6d746;"/>
    <path clip-path="url(#pa21952475b)" d="M 242.980282 145.595755 
L 495.0197 570.804248 
" style="fill:none;stroke:#f9c72f;"/>
    <path clip-path="url(#pa21952475b)" d="M 495.019711 145.595748 
L 434.232603 121.070785 
" style="fill:none;stroke:#f4dd4f;"/>
    <path clip-path="url(#pa21952475b)" d="M 495.019711 145.595748 
L 612.451387 421.738568 
" style="fill:none;stroke:#fcac11;"/>
    <path clip-path="url(#pa21952475b)" d="M 125.548613 294.66141 
L 612.451381 294.66142 
" style="fill:none;stroke:#000004;"/>
    <path clip-path="url(#pa21952475b)" d="M 190.781225 184.609371 
L 303.7674 595.329234 
" style="fill:none;stroke:#f2ea69;"/>
    <path clip-path="url(#pa21952475b)" d="M 190.781213 531.790631 
L 369 603.694233 
" style="fill:none;stroke:#f8cf3a;"/>
    <path clip-path="url(#pa21952475b)" d="M 495.0197 570.804248 
L 125.548616 421.738587 
" style="fill:none;stroke:#000004;"/>
    <path clip-path="url(#pa21952475b)" d="M 434.232603 121.070785 
L 587.272544 480.947141 
" style="fill:none;stroke:#fb9706;"/>
    <path clip-path="url(#pa21952475b)" d="M 434.232596 595.329213 
L 116.960579 358.200009 
" style="fill:none;stroke:#000004;"/>
    <path clip-path="url(#pa21952475b)" d="M 125.548613 294.66141 
L 369 603.694233 
" style="fill:none;stroke:#f9c72f;"/>
    <path clip-path="url(#pa21952475b)" d="M 150.727458 235.452878 
L 587.272544 480.947141 
" style="fill:none;stroke:#f9c72f;"/>
    <path clip-path="url(#pa21952475b)" d="M 242.980297 570.804247 
L 369 603.694233 
" style="fill:none;stroke:#f4dd4f;"/>
    <path clip-path="url(#pa21952475b)" d="M 116.960579 358.200009 
L 547.218766 531.790645 
" style="fill:none;stroke:#f4dd4f;"/>
    <path clip-path="url(#pa21952475b)" d="M 587.272537 235.452886 
L 242.980297 570.804247 
" style="fill:none;stroke:#f3e55d;"/>
    <path clip-path="url(#pa21952475b)" d="M 369 603.694233 
L 125.548616 421.738587 
" style="fill:none;stroke:#000004;"/>
    <path clip-path="url(#pa21952475b)" d="M 125.548616 421.738587 
L 190.781213 531.790631 
" style="fill:none;stroke:#f6d746;"/>
    <path clip-path="url(#pa21952475b)" d="M 547.218778 184.609369 
L 125.548616 421.738587 
" style="fill:none;stroke:#f8cf3a;"/>
    <path clip-path="url(#pa21952475b)" d="M 612.451381 294.66142 
L 125.548616 421.738587 
" style="fill:none;stroke:#fcffa4;"/>
    <path clip-path="url(#pa21952475b)" d="M 242.980282 145.595755 
L 125.548613 294.66141 
" style="fill:none;stroke:#fbbe23;"/>
    <path clip-path="url(#pa21952475b)" d="M 242.980297 570.804247 
L 495.0197 570.804248 
" style="fill:none;stroke:#fcac11;"/>
    <path clip-path="url(#pa21952475b)" d="M 242.980297 570.804247 
L 125.548613 294.66141 
" style="fill:none;stroke:#000004;"/>
    <path clip-path="url(#pa21952475b)" d="M 495.019711 145.595748 
L 150.727466 480.947113 
" style="fill:none;stroke:#f6d746;"/>
    <path clip-path="url(#pa21952475b)" d="M 587.272537 235.452886 
L 150.727458 235.452878 
" style="fill:none;stroke:#fcac11;"/>
    <path clip-path="url(#pa21952475b)" d="M 190.781225 184.609371 
L 150.727458 235.452878 
" style="fill:none;stroke:#fb9706;"/>
    <path clip-path="url(#pa21952475b)" d="M 434.232603 121.070785 
L 190.781213 531.790631 
" style="fill:none;stroke:#fb9706;"/>
    <path clip-path="url(#pa21952475b)" d="M 547.218778 184.609369 
L 434.232596 595.329213 
" style="fill:none;stroke:#f2ea69;"/>
    <path clip-path="url(#pa21952475b)" d="M 303.7674 121.070787 
L 116.960579 358.200009 
" style="fill:none;stroke:#f8cf3a;"/>
    <path clip-path="url(#pa21952475b)" d="M 242.980282 145.595755 
L 303.7674 595.329234 
" style="fill:none;stroke:#f6d746;"/>
    <path clip-path="url(#pa21952475b)" d="M 150.727466 480.947113 
L 495.0197 570.804248 
" style="fill:none;stroke:#fbbe23;"/>
    <path clip-path="url(#pa21952475b)" d="M 495.019711 145.595748 
L 495.0197 570.804248 
" style="fill:none;stroke:#fcac11;"/>
    <path clip-path="url(#pa21952475b)" d="M 125.548613 294.66141 
L 116.960579 358.200009 
" style="fill:none;stroke:#fcac11;"/>
    <path clip-path="url(#pa21952475b)" d="M 116.960579 358.200009 
L 612.451387 421.738568 
" style="fill:none;stroke:#f3f586;"/>
    <path clip-path="url(#pa21952475b)" d="M 621.039421 358.200002 
L 612.451387 421.738568 
" style="fill:none;stroke:#f6d746;"/>
    <path clip-path="url(#pa21952475b)" d="M 303.7674 121.070787 
L 190.781225 184.609371 
" style="fill:none;stroke:#f8cf3a;"/>
    <path clip-path="url(#pa21952475b)" d="M 368.999996 112.705767 
L 434.232596 595.329213 
" style="fill:none;stroke:#fbb61a;"/>
    <path clip-path="url(#pa21952475b)" d="M 434.232596 595.329213 
L 150.727466 480.947113 
" style="fill:none;stroke:#000004;"/>
    <path clip-path="url(#pa21952475b)" d="M 116.960579 358.200009 
L 190.781213 531.790631 
" style="fill:none;stroke:#f8cf3a;"/>
    <path clip-path="url(#pa21952475b)" d="M 125.548613 294.66141 
L 303.7674 595.329234 
" style="fill:none;stroke:#fbbe23;"/>
    <path clip-path="url(#pa21952475b)" d="M 612.451381 294.66142 
L 587.272544 480.947141 
" style="fill:none;stroke:#f3e55d;"/>
    <path clip-path="url(#pa21952475b)" d="M 495.019711 145.595748 
L 303.7674 121.070787 
" style="fill:none;stroke:#fcac11;"/>
    <path clip-path="url(#pa21952475b)" d="M 547.218766 531.790645 
L 587.272544 480.947141 
" style="fill:none;stroke:#f6d746;"/>
    <path clip-path="url(#pa21952475b)" d="M 587.272537 235.452886 
L 547.218766 531.790645 
" style="fill:none;stroke:#f4dd4f;"/>
    <path clip-path="url(#pa21952475b)" d="M 369 603.694233 
L 150.727466 480.947113 
" style="fill:none;stroke:#000004;"/>
    <path clip-path="url(#pa21952475b)" d="M 621.039421 358.200002 
L 125.548616 421.738587 
" style="fill:none;stroke:#f1f179;"/>
    <path clip-path="url(#pa21952475b)" d="M 547.218778 184.609369 
L 242.980282 145.595755 
" style="fill:none;stroke:#f4dd4f;"/>
    <path clip-path="url(#pa21952475b)" d="M 495.0197 570.804248 
L 547.218766 531.790645 
" style="fill:none;stroke:#fbb61a;"/>
    <path clip-path="url(#pa21952475b)" d="M 612.451381 294.66142 
L 242.980282 145.595755 
" style="fill:none;stroke:#f6d746;"/>
    <path clip-path="url(#pa21952475b)" d="M 587.272537 235.452886 
L 190.781213 531.790631 
" style="fill:none;stroke:#f6d746;"/>
    <path clip-path="url(#pa21952475b)" d="M 190.781225 184.609371 
L 434.232603 121.070785 
" style="fill:none;stroke:#000004;"/>
    <path clip-path="url(#pa21952475b)" d="M 190.781213 531.790631 
L 242.980297 570.804247 
" style="fill:none;stroke:#fbb61a;"/>
    <path clip-path="url(#pa21952475b)" d="M 495.0197 570.804248 
L 150.727466 480.947113 
" style="fill:none;stroke:#000004;"/>
    <path clip-path="url(#pa21952475b)" d="M 434.232603 121.070785 
L 116.960579 358.200009 
" style="fill:none;stroke:#f4dd4f;"/>
    <path clip-path="url(#pa21952475b)" d="M 125.548613 294.66141 
L 368.999996 112.705767 
" style="fill:none;stroke:#000004;"/>
   </g>
   <g id="PathCollection_1">
    <defs>
     <path d="M 0 3.535534 
C 0.937635 3.535534 1.836992 3.163008 2.5 2.5 
C 3.163008 1.836992 3.535534 0.937635 3.535534 0 
C 3.535534 -0.937635 3.163008 -1.836992 2.5 -2.5 
C 1.836992 -3.163008 0.937635 -3.535534 0 -3.535534 
C -0.937635 -3.535534 -1.836992 -3.163008 -2.5 -2.5 
C -3.163008 -1.836992 -3.535534 -0.937635 -3.535534 0 
C -3.535534 0.937635 -3.163008 1.836992 -2.5 2.5 
C -1.836992 3.163008 -0.937635 3.535534 0 3.535534 
z
" id="m798582f067" style="stroke:#666666;"/>
    </defs>
    <g clip-path="url(#pa21952475b)">
     <use style="fill:#666666;stroke:#666666;" x="621.039421" xlink:href="#m798582f067" y="358.200002"/>
     <use style="fill:#666666;stroke:#666666;" x="612.451381" xlink:href="#m798582f067" y="294.66142"/>
     <use style="fill:#666666;stroke:#666666;" x="587.272537" xlink:href="#m798582f067" y="235.452886"/>
     <use style="fill:#666666;stroke:#666666;" x="547.218778" xlink:href="#m798582f067" y="184.609369"/>
     <use style="fill:#666666;stroke:#666666;" x="495.019711" xlink:href="#m798582f067" y="145.595748"/>
     <use style="fill:#666666;stroke:#666666;" x="434.232603" xlink:href="#m798582f067" y="121.070785"/>
     <use style="fill:#666666;stroke:#666666;" x="368.999996" xlink:href="#m798582f067" y="112.705767"/>
     <use style="fill:#666666;stroke:#666666;" x="303.7674" xlink:href="#m798582f067" y="121.070787"/>
     <use style="fill:#666666;stroke:#666666;" x="242.980282" xlink:href="#m798582f067" y="145.595755"/>
     <use style="fill:#666666;stroke:#666666;" x="190.781225" xlink:href="#m798582f067" y="184.609371"/>
     <use style="fill:#666666;stroke:#666666;" x="150.727458" xlink:href="#m798582f067" y="235.452878"/>
     <use style="fill:#666666;stroke:#666666;" x="125.548613" xlink:href="#m798582f067" y="294.66141"/>
     <use style="fill:#666666;stroke:#666666;" x="116.960579" xlink:href="#m798582f067" y="358.200009"/>
     <use style="fill:#666666;stroke:#666666;" x="125.548616" xlink:href="#m798582f067" y="421.738587"/>
     <use style="fill:#666666;stroke:#666666;" x="150.727466" xlink:href="#m798582f067" y="480.947113"/>
     <use style="fill:#666666;stroke:#666666;" x="190.781213" xlink:href="#m798582f067" y="531.790631"/>
     <use style="fill:#666666;stroke:#666666;" x="242.980297" xlink:href="#m798582f067" y="570.804247"/>
     <use style="fill:#666666;stroke:#666666;" x="303.7674" xlink:href="#m798582f067" y="595.329234"/>
     <use style="fill:#666666;stroke:#666666;" x="369" xlink:href="#m798582f067" y="603.694233"/>
     <use style="fill:#666666;stroke:#666666;" x="434.232596" xlink:href="#m798582f067" y="595.329213"/>
     <use style="fill:#666666;stroke:#666666;" x="495.0197" xlink:href="#m798582f067" y="570.804248"/>
     <use style="fill:#666666;stroke:#666666;" x="547.218766" xlink:href="#m798582f067" y="531.790645"/>
     <use style="fill:#666666;stroke:#666666;" x="587.272544" xlink:href="#m798582f067" y="480.947141"/>
     <use style="fill:#666666;stroke:#666666;" x="612.451387" xlink:href="#m798582f067" y="421.738568"/>
    </g>
   </g>
  </g>
 </g>
 <defs>
  <clipPath id="pa21952475b">
   <rect height="543.6" width="558" x="90" y="86.4"/>
  </clipPath>
 </defs>
</svg>
